<svg width="133" height="181" viewBox="0 0 133 181" fill="none" xmlns="http://www.w3.org/2000/svg">
<path d="M71.5498 166.871L43.5934 164.888C6.16231 160.486 0 126.803 0 126.803L26.8558 128.345C26.8558 128.345 31.0402 161.81 71.5444 166.871H71.5498Z" fill="#08833C"/>
<path d="M67.3759 134.491C79.355 143.599 90.1217 142.127 94.8804 135.831C101.707 126.803 90.6959 114.255 73.5276 104.573C56.354 94.8857 27.079 81.0192 32.2311 49.7557C37.3885 18.4976 71.3264 12.5533 71.3264 12.5533H44.4707C44.4707 12.5533 21.794 13.9569 9.90538 35.1608C-1.98324 56.3647 6.34837 79.9186 32.2311 93.5671C58.1139 107.216 75.7554 115.547 67.3759 134.497V134.491Z" fill="#08833C"/>
<path d="M71.3262 0H44.4705V12.5479H71.3262V0Z" fill="#08833C"/>
<path d="M51.5156 116.228L26.8558 113.367L0 126.798L26.8558 128.334L51.5156 116.228Z" fill="#08833C"/>
<path d="M43.5884 164.888V177.218L70.8854 180.52L71.5501 166.871L43.5884 164.888Z" fill="#08833C"/>
<path d="M67.1473 42.7108C66.6953 43.402 66.3072 44.0826 65.9775 44.7578C67.4025 46.6985 68.7158 49.6281 68.9072 53.9348L97.5281 57.0186C92.2431 38.7444 74.1922 31.9228 67.1473 42.7108Z" fill="#08833C"/>
<path d="M97.5226 57.0186L124.378 43.8114C124.378 43.8114 117.551 15.6317 87.1759 12.7712L85.416 0.00532532H71.3262V12.5533C71.3262 12.5533 37.3883 18.4976 32.2309 49.7557C27.0735 81.0139 56.3537 94.8857 73.5274 104.573C90.701 114.261 101.707 126.809 94.8801 135.831C88.0532 144.859 68.9017 143.977 51.51 116.238L26.8555 128.345C26.8555 128.345 31.0399 161.81 71.5442 166.871L70.8849 180.52H85.634L87.1759 167.972C87.1759 167.972 117.557 165.771 128.781 137.815C140.01 109.858 121.518 87.6228 94.8801 74.8516C68.2424 62.0857 59.9799 53.6796 67.1418 42.7108C74.1867 31.9228 92.2376 38.7497 97.5226 57.0186Z" fill="#83D0A8"/>
</svg>
