<svg width="171" height="64" viewBox="0 0 171 64" fill="none" xmlns="http://www.w3.org/2000/svg">
<g clip-path="url(#clip0_8_161)">
<rect width="171" height="64" rx="32" fill="#FCFDFF"/>
<circle cx="86" cy="104" r="98" fill="#08833C"/>
<path d="M42.9102 39V25.06H52.1102V26.88H44.9502V30.96H51.1702V32.78H44.9502V39H42.9102ZM56.9119 39.18C56.1785 39.18 55.5452 39.0333 55.0119 38.74C54.4919 38.4333 54.0919 38 53.8119 37.44C53.5452 36.8667 53.4119 36.1733 53.4119 35.36V29.14H55.3719V34.74C55.3719 35.3267 55.4452 35.8267 55.5919 36.24C55.7385 36.64 55.9652 36.9467 56.2719 37.16C56.5919 37.36 56.9919 37.46 57.4719 37.46C58.0319 37.46 58.4852 37.32 58.8319 37.04C59.1919 36.76 59.4585 36.3467 59.6319 35.8C59.8052 35.24 59.8919 34.5467 59.8919 33.72V29.14H61.8319V39H59.8919V36.88L60.2919 36.96C59.9985 37.6933 59.5519 38.2467 58.9519 38.62C58.3519 38.9933 57.6719 39.18 56.9119 39.18ZM64.5866 39V29.14H66.5666V31.28L66.1666 31.4C66.3399 30.8533 66.5866 30.4067 66.9066 30.06C67.2399 29.7 67.6266 29.4267 68.0666 29.24C68.5199 29.0533 69.0066 28.96 69.5266 28.96C70.6199 28.96 71.4732 29.28 72.0866 29.92C72.7132 30.5467 73.0266 31.4667 73.0266 32.68V39H71.0666V33.4C71.0666 32.4533 70.8932 31.76 70.5466 31.32C70.2132 30.88 69.6932 30.66 68.9866 30.66C68.4532 30.66 68.0066 30.78 67.6466 31.02C67.2999 31.26 67.0332 31.64 66.8466 32.16C66.6599 32.68 66.5666 33.34 66.5666 34.14V39H64.5866ZM79.5813 39.18C78.6879 39.18 77.9146 38.96 77.2613 38.52C76.6079 38.0667 76.0946 37.4533 75.7213 36.68C75.3613 35.8933 75.1813 35.02 75.1813 34.06C75.1813 33.0067 75.3746 32.1 75.7613 31.34C76.1613 30.58 76.6946 29.9933 77.3613 29.58C78.0279 29.1667 78.7679 28.96 79.5813 28.96C80.1679 28.96 80.7013 29.08 81.1813 29.32C81.6746 29.56 82.0879 29.8933 82.4213 30.32C82.7546 30.7467 82.9879 31.2467 83.1213 31.82L82.6213 31.98V25.06H84.5612V39H82.6213V36.16L83.2013 36.18C83.0279 36.82 82.7679 37.3667 82.4213 37.82C82.0746 38.26 81.6546 38.6 81.1613 38.84C80.6813 39.0667 80.1546 39.18 79.5813 39.18ZM79.9813 37.38C80.5546 37.38 81.0479 37.24 81.4613 36.96C81.8879 36.68 82.2146 36.2933 82.4413 35.8C82.6813 35.2933 82.8013 34.7133 82.8013 34.06C82.8013 33.4067 82.6813 32.8333 82.4413 32.34C82.2146 31.8333 81.8879 31.4467 81.4613 31.18C81.0479 30.9 80.5546 30.76 79.9813 30.76C79.4213 30.76 78.9279 30.9 78.5013 31.18C78.0746 31.4467 77.7413 31.8333 77.5013 32.34C77.2746 32.8333 77.1613 33.4067 77.1613 34.06C77.1613 34.7133 77.2746 35.2933 77.5013 35.8C77.7413 36.2933 78.0746 36.68 78.5013 36.96C78.9279 37.24 79.4213 37.38 79.9813 37.38ZM95.6567 39L91.5367 25.06H93.6567L96.7767 35.9L99.7767 25.84H101.797L104.797 35.9L107.897 25.06H110.037L105.917 39H103.917L100.617 28.26H100.957L97.6567 39H95.6567ZM117.277 39L117.117 37.18V32.8C117.117 32.1067 116.917 31.5733 116.517 31.2C116.117 30.8267 115.537 30.64 114.777 30.64C114.243 30.64 113.73 30.7467 113.237 30.96C112.757 31.1733 112.297 31.52 111.857 32L110.637 30.74C111.223 30.1267 111.87 29.68 112.577 29.4C113.297 29.1067 114.077 28.96 114.917 28.96C116.237 28.96 117.257 29.3 117.977 29.98C118.71 30.6467 119.077 31.5867 119.077 32.8V39H117.277ZM114.097 39.18C113.363 39.18 112.717 39.0467 112.157 38.78C111.597 38.5133 111.163 38.1467 110.857 37.68C110.55 37.2 110.397 36.6467 110.397 36.02C110.397 35.4733 110.51 35.0067 110.737 34.62C110.963 34.22 111.257 33.9133 111.617 33.7C111.95 33.4867 112.33 33.34 112.757 33.26C113.197 33.1667 113.663 33.12 114.157 33.12H117.297V34.6H114.437C114.17 34.6 113.89 34.6267 113.597 34.68C113.317 34.72 113.077 34.8133 112.877 34.96C112.717 35.08 112.59 35.2333 112.497 35.42C112.403 35.5933 112.357 35.8 112.357 36.04C112.357 36.5067 112.537 36.88 112.897 37.16C113.257 37.44 113.737 37.58 114.337 37.58C114.843 37.58 115.303 37.4667 115.717 37.24C116.143 37 116.483 36.68 116.737 36.28C116.99 35.8667 117.117 35.4 117.117 34.88L117.817 35.8C117.697 36.4933 117.463 37.1 117.117 37.62C116.77 38.1267 116.337 38.5133 115.817 38.78C115.31 39.0467 114.737 39.18 114.097 39.18ZM122.343 43.06L124.263 38.42L120.463 29.14H122.623L125.303 36.46L128.023 29.14H130.143L124.483 43.06H122.343Z" fill="#FCFDFF"/>
</g>
<defs>
<clipPath id="clip0_8_161">
<rect width="171" height="64" rx="32" fill="white"/>
</clipPath>
</defs>
</svg>
