<svg width="383" height="282" viewBox="0 0 383 282" fill="none" xmlns="http://www.w3.org/2000/svg">
<g clip-path="url(#clip0_37_217)">
<path d="M370.464 195.012L370.138 194.36C370.177 194.477 370.36 194.686 370.464 195.012Z" fill="#FEFCFD"/>
<path d="M199.178 431.68C208.399 429.546 217.515 426.988 226.462 424.019C226.501 424.012 226.533 423.999 226.56 423.986C226.612 423.973 226.657 423.953 226.71 423.934C226.729 423.927 226.755 423.921 226.775 423.914C226.794 423.914 226.814 423.901 226.834 423.895C228.915 423.203 230.991 422.485 233.053 421.741C233.144 421.708 233.242 421.676 233.333 421.637C233.359 421.63 233.385 421.624 233.412 421.611C233.412 421.611 233.416 421.608 233.425 421.604H233.438C252.512 414.732 270.732 405.916 287.49 395.116C335.917 363.897 373.962 314.85 381.558 256.426C384.012 237.56 383.64 211.986 378.086 193.766C360.062 134.611 324.68 93.6357 268.729 67.4219C243.396 55.5517 215.694 48.1646 187.582 47.4272C185.989 43.5183 183.855 39.2375 180.984 34.8522C171.45 20.3064 159.279 11.4773 151.312 7.43137C152.545 8.48853 153.028 10.4722 153.765 11.575C161.244 22.7405 151.664 39.9292 150.45 42.037C140.518 42.2132 130.586 42.3829 120.654 42.559C121.026 41.7303 121.483 40.9341 121.607 40.0728C123.434 27.2302 113.345 7.60742 107.537 0.92511C107.583 5.14723 107.603 9.34326 107.211 13.5458C101.573 73.9215 39.8333 99.6784 0.659573 136.483C-17.1947 153.254 -47.3239 189.022 -48.5246 214.165C-49.0467 225.174 -42.7167 238.624 -29.8089 236.157C-27.9817 235.804 -21.4364 234.747 -15.5633 230.832C-5.15482 223.895 20.3867 187.462 25.0722 180.989L25.268 180.728C26.5927 178.894 27.9174 177.145 29.203 175.514C46.6135 153.424 -7.21042 366.612 19.6754 359.61L75.7964 433.128" fill="#F49300"/>
<path d="M273.271 101.16C273.362 101.205 273.447 101.245 273.538 101.29C299.517 113.67 331.512 133.73 350.47 155.493C358.503 164.714 366.784 184.258 370.791 195.985C370.823 196.083 370.758 196.213 370.791 196.317C370.83 196.428 371.012 196.644 371.117 196.97C373.792 205.31 375.489 213.278 376.031 222.055C378.047 254.853 370.334 285.778 354.724 314.335C321.208 375.637 258.105 410.843 190.583 424.573C159.691 430.857 111.342 402.986 81.0171 400.722" fill="#F49300"/>
<path d="M167.809 426.603C209.586 426.316 283.314 407.254 333.562 345.684C338.991 339.028 347.044 328.332 355.096 313.708C355.031 306.295 353.883 288.408 342.202 269.986C330.729 251.897 315.427 243.25 308.764 239.968C285.924 254.324 279.268 260.53 259.821 261.503C246.77 262.155 220.014 262.808 191.301 251.061C145.824 269.046 116.922 293.413 100.594 309.793C66.4127 344.092 66.8499 363.995 67.3132 369.829C68.527 385.178 76.1294 400.702 81.0172 403.985C103.178 418.87 127.134 423.457 150.033 425.722C159.208 426.629 166.145 426.616 167.809 426.603Z" fill="#FCFDFF"/>
<path d="M120.171 41.5868C120.132 40.1054 127.832 41.0451 134.795 34.7674C141.236 28.9661 143.037 21.1026 143.037 21.1026C143.429 19.8105 144.199 17.2786 145.158 14.0222C146.665 8.91261 147.031 7.50958 148.225 7.00058C150.313 6.11961 153.485 8.58632 154.992 10.27C160.833 16.8152 160.82 33.1686 150.835 41.5868C138.861 51.6755 120.223 43.8838 120.165 41.5868H120.171Z" fill="#D07D00"/>
<path d="M25.2681 180.728C25.0658 182.105 4.77086 205.408 -4.46953 217.35C-21.9845 237.384 -39.5712 236.888 -45.5814 226.264C-55.0371 209.545 -23.6355 159.31 0.659668 136.483C39.8334 99.6785 101.573 73.9216 107.211 13.5458C107.603 9.3433 107.583 5.14728 107.538 0.925154C106.944 0.820742 106.65 0.487932 105.769 0.605395C100.686 1.30364 95.8239 11.6664 93.8205 15.8886C90.6294 22.5839 88.0779 29.4555 84.3191 35.8964C72.8926 55.48 38.8937 80.8845 25.875 87.5929C25.875 87.5929 -19.1523 111.085 -54.3911 164.596C-65.1454 180.93 -86.9804 221.944 -74.9274 295.371C-74.6534 295.267 -68.1407 311.379 -55.3699 343.7C-55.3438 343.759 -55.3047 343.818 -55.2721 343.876C-55.259 343.896 -55.2525 343.916 -55.2394 343.935C-55.1937 344.007 10.507 436.92 121.868 440.209C147.305 440.959 171.672 436.933 179.34 435.634C201.56 431.869 219.923 426.381 233.438 421.611C217.234 425.643 179.072 432.071 148.232 427.262C107.772 420.958 92.1238 410.256 81.0171 403.991C27.8849 374.032 4.425 325.089 -4.18892 306.158C-4.19544 306.158 -3.81696 306.765 -3.81696 306.758C-7.0798 295.665 -9.8989 284.721 -9.69008 268.909" fill="#D07D00"/>
<path d="M45.7783 216.475C20.4259 244.001 8.86893 275.657 5.31895 285.648C1.31218 296.918 -1.06318 306.68 -2.51188 313.708C-6.8841 301.153 -12.3461 280.049 -9.65751 254.416C-4.38475 204.122 28.433 172.642 39.9051 161.659C86.7792 116.789 152.225 105.76 165.198 107.496C165.655 107.555 171.913 108.416 172.696 106.478C173.832 103.672 162.699 97.1465 163.828 95.006C164.226 94.2556 165.929 94.4318 166.438 94.4905C181.571 96.2068 196.972 101.186 206.963 97.7077C216.908 94.2491 220.504 82.7443 223.401 84.2452C225 85.0739 225.111 89.0546 224.367 92.5002C222.448 101.447 221.091 106.061 222.344 107.072C224.236 108.586 232.178 99.9982 237.634 96.4025C261.714 80.5125 319.851 107.96 350.528 151.218C357.628 161.229 366.033 176.009 371.41 196.246C357.87 157.927 320.229 144.614 300.933 155.134C284.899 163.872 276.233 191.945 286.576 220.391C274.641 217.709 263.084 215.17 244.159 217.78C235.173 219.02 214.324 224.913 208.268 228.222C209.24 221.8 212.197 197.368 196.522 179.279C189.004 170.606 180.273 166.932 176.945 165.575C139.363 150.233 80.2796 179.011 45.7783 216.475Z" fill="#FCFDFF"/>
<path d="M374.673 212.56C371.841 184.767 356.701 162.116 334.866 153.829C331.427 152.524 312.725 145.548 297.67 154.481C279.711 165.138 272.455 196.35 286.576 228.222C294.623 233.658 302.675 239.1 310.721 244.536C317.345 247.988 330.377 255.917 340.896 271.291C352.055 287.599 354.45 306.23 355.096 313.708C361.4 302.399 369.414 282.254 373.368 259.545C376.67 240.575 376.044 224.274 374.673 212.56Z" fill="#FFEDD2"/>
<path d="M-2.51196 313.93C3.33506 325.944 11.6749 340.209 23.5908 354.82C44.4796 380.427 67.4239 396.134 83.6272 405.29C83.5163 405.166 83.3531 404.977 83.1508 404.742C83.1508 404.742 72.4356 392.199 69.2707 374.397C65.1334 351.113 100.862 314.158 103.857 311.098C119.597 295.012 147.403 271.076 191.301 253.019C191.601 247.166 193.187 242.728 194.466 240.62C196.084 237.938 198.59 235.426 198.59 235.426L198.603 235.413C201.99 232.104 205.873 229.612 208.66 228.045C210.121 220.319 213.932 194.96 198.479 176.238C198.479 176.238 191.667 167.983 181.513 163.186C141.967 144.503 49.9677 186.046 13.1497 261.503C3.13276 282.026 -0.78918 300.95 -2.51196 313.93Z" fill="#FFEDD2"/>
<path d="M173.871 245.077C184.299 242.787 192.828 233.246 194.336 222.283C195.419 214.753 193.174 207.398 191.7 200.024C190.531 194.484 189.148 188.767 186.055 183.893C171.333 160.341 135.461 172.133 137.262 200.951C137.517 205.799 138.757 210.465 139.735 215.209C140.832 220.208 141.745 225.115 143.886 229.749C148.884 241.234 161.884 247.89 173.767 245.097L173.871 245.071V245.077Z" fill="#FBFCFE"/>
<path d="M185.608 216.289L180.755 193.301C178.698 183.569 169.119 177.345 159.359 179.388C155.794 180.14 152.708 181.886 150.314 184.274C156.611 184.736 161.581 189.966 161.581 196.363C161.581 202.76 156.132 208.499 149.411 208.499C148.586 208.499 147.777 208.413 147 208.256L150.266 223.704C152.324 233.436 161.903 239.66 171.663 237.609C181.423 235.558 187.665 226.006 185.608 216.273V216.289Z" fill="black"/>
<path d="M321.052 230.329C329.914 228.887 337.614 220.58 339.526 210.485C340.883 203.548 339.441 196.565 338.638 189.609C337.992 184.382 337.177 178.972 334.873 174.234C323.956 151.362 293.246 159.956 293.043 186.875C292.965 191.397 293.729 195.821 294.264 200.298C294.884 205.016 295.36 209.643 296.867 214.093C300.365 225.109 310.846 232.15 320.954 230.342L321.045 230.329H321.052Z" fill="#FBFCFE"/>
<path d="M331.869 204.364L329.257 183.169C328.152 174.197 320.742 167.917 312.699 169.156C309.766 169.607 307.154 170.999 305.075 173.011C310.162 173.837 313.887 178.908 313.521 184.722C313.133 190.81 308.395 195.4 302.942 194.964C302.272 194.91 301.625 194.78 301 194.589L302.752 208.831C303.856 217.803 311.267 224.083 319.31 222.844C327.345 221.613 332.966 213.336 331.861 204.356L331.869 204.364Z" fill="black"/>
<path d="M308.672 236.972V237.031C308.744 238.767 308.516 240.431 308.046 242.023C307.341 244.425 306.082 246.67 304.431 248.745C304.418 248.758 304.411 248.771 304.404 248.777C297.892 256.908 285.278 262.527 276.037 265.516C275.574 265.666 275.117 265.81 274.673 265.947C273.538 266.292 272.468 266.599 271.469 266.867C258.203 270.358 244.225 271.963 230.494 270.873C230.012 270.841 229.535 270.795 229.052 270.756C224.765 270.364 220.497 269.699 216.295 268.753C209.273 267.017 201.331 264.269 196.052 259.029C194.877 257.868 193.833 256.589 192.972 255.166C192.926 255.081 192.867 254.99 192.822 254.905C188.567 246.885 192.789 239.433 199.354 233.677C221.137 215.823 260.356 211.431 286.433 218.446C299.21 222.309 307.53 227.699 308.685 236.992L308.672 236.972Z" fill="#2C2C2C"/>
<path d="M230.495 270.867C230.012 270.834 229.535 270.788 229.053 270.749C224.765 270.358 220.497 269.692 216.295 268.746C209.273 267.01 201.331 264.263 196.052 259.023C195.132 258.031 194.31 256.961 193.598 255.792C193.553 255.708 193.501 255.616 193.455 255.531C193.442 255.166 193.533 254.801 193.768 254.455C195.334 252.543 198.46 251.877 200.927 251.264C206.154 250.2 211.838 250.696 216.804 253.026C223.486 256.138 228.713 262.325 230.703 268.028C231.049 268.974 231.226 270.24 230.501 270.86L230.495 270.867Z" fill="#454545"/>
<path d="M307.243 242.421C307.1 242.265 306.93 242.115 306.734 241.984C306.721 241.978 306.715 241.971 306.702 241.958C305.814 241.377 304.489 241.038 303.55 240.855C299.112 239.948 293.533 240.398 288.449 242.656C280.834 245.978 274.204 254.037 273.532 263.199C273.388 264.791 273.871 265.607 274.66 265.947C275.111 265.809 275.561 265.666 276.024 265.516C285.265 262.527 297.879 256.908 304.392 248.777C304.405 248.771 304.411 248.758 304.418 248.745C304.489 248.647 304.555 248.549 304.626 248.451V248.464C306.056 247.048 307.687 243.087 307.687 243.087C307.687 243.087 307.707 242.891 307.23 242.421H307.243Z" fill="#454545"/>
<circle cx="166.5" cy="222.5" r="9.5" fill="#FCFDFF"/>
<circle cx="173.5" cy="207.5" r="3.5" fill="#FCFDFF"/>
<ellipse cx="317" cy="207.5" rx="9" ry="9.5" fill="#FCFDFF"/>
<circle cx="323.5" cy="192.5" r="3.5" fill="#FCFDFF"/>
</g>
<defs>
<clipPath id="clip0_37_217">
<rect width="495" height="439.714" fill="white" transform="translate(-112 0.579224)"/>
</clipPath>
</defs>
</svg>
