<svg width="13" height="11" viewBox="0 0 13 11" fill="none" xmlns="http://www.w3.org/2000/svg">
<path d="M12.3592 6.24688C12.7131 6.24688 13 5.9125 13 5.5C13 5.08751 12.7131 4.75312 12.3592 4.75312V6.24688ZM0.187695 4.97188C-0.0625648 5.26355 -0.0625648 5.73645 0.187695 6.02813L4.26597 10.7812C4.5163 11.0729 4.92204 11.0729 5.1723 10.7812C5.42256 10.4896 5.42256 10.0167 5.1723 9.725L1.54709 5.5L5.1723 1.27505C5.42256 0.983298 5.42256 0.510417 5.1723 0.21875C4.92204 -0.072917 4.5163 -0.072917 4.26597 0.21875L0.187695 4.97188ZM12.3592 4.75312L0.640827 4.75312V6.24688L12.3592 6.24688V4.75312Z" fill="#0D1218"/>
</svg>
