<svg width="48" height="48" viewBox="0 0 48 48" fill="none" xmlns="http://www.w3.org/2000/svg">
<g clip-path="url(#clip0_2756_1848)">
<rect width="48" height="48" rx="13.2647" fill="#265BD1"/>
<rect width="48" height="48" transform="translate(0.351562)" fill="#3B6DD7"/>
<g clip-path="url(#clip1_2756_1848)">
<rect x="33.6719" y="2.41797" width="33.5083" height="33.5083" rx="16.7542" transform="rotate(68.4555 33.6719 2.41797)" fill="#00ACFD"/>
<path d="M30.794 40.7482C26.1901 42.9714 19.1705 42.2916 17.87 40.8237L16.8764 40.41C14.2547 40.1767 8.90231 35.0836 7.77458 31.0253L7.48506 30.2881C5.93163 27.0149 5.84815 19.8412 7.78302 17.3046L8.0662 16.6595C8.68697 13.2707 14.3777 8.20259 17.4394 7.69398L17.4407 7.69346C17.4394 7.69398 18.1881 7.40297 18.1881 7.40297C21.9295 5.3386 29.4723 6.26948 31.448 7.87508L32.2771 8.26737C34.866 9.05219 40.2572 14.3173 40.8343 17.6851L40.8348 17.6864C40.9572 18.0002 41.0347 18.3316 41.1747 18.6355C42.8949 22.3698 42.2936 28.376 40.7871 30.7742L40.515 31.4241C40.1145 34.5013 34.2393 40.1335 31.8214 40.2999L30.794 40.7482Z" fill="#FC822B"/>
<path d="M17.8778 40.8192C17.5428 40.6924 17.2114 40.5552 16.8842 40.4055C20.6401 39.3696 23.9169 35.167 28.0856 26.0549C28.1454 25.9222 28.2078 25.7886 28.2682 25.6541C28.3044 25.5731 28.3412 25.4935 28.3761 25.4131C32.6659 15.8442 32.1637 10.3396 31.4558 7.87091C31.7347 7.99404 32.0118 8.12413 32.2849 8.2632C33.6187 14.0211 30.8992 21.5004 29.0241 25.6921C28.986 25.7798 28.9477 25.8632 28.9106 25.9459C28.8517 26.0768 28.7923 26.2063 28.7341 26.3353C24.702 35.1525 21.553 39.391 17.8778 40.8192Z" fill="#263238"/>
<path d="M40.52 31.4204L32.9105 28.1373L32.2607 27.8575L28.7313 26.3359L28.0828 26.0556L23.7719 24.1971L23.1229 23.9155L7.78794 17.301C7.87788 17.0836 7.97196 16.8693 8.07112 16.6559L23.4134 23.2736L24.062 23.5539L28.3733 25.4136L29.0213 25.6926L32.4817 27.1853L33.1303 27.4656L40.7923 30.7705C40.7073 30.989 40.6155 31.2054 40.52 31.4204Z" fill="#263238"/>
<path d="M16.5937 29.6595C13.6442 30.7194 10.2228 31.2097 7.77844 31.0203C7.67589 30.776 7.57857 30.5295 7.48891 30.2831C9.69585 30.5237 13.1346 30.1539 16.3559 28.9958C18.7069 28.1509 21.7428 26.5918 23.1217 23.9142C23.1771 23.809 23.2284 23.7009 23.2779 23.5919C23.3236 23.489 23.3683 23.3835 23.4123 23.2722C24.1537 21.3855 24.4539 18.2854 22.1476 13.81C20.7332 11.0641 18.7804 8.7428 17.4446 7.68849C17.691 7.58358 17.9399 7.48839 18.192 7.398C19.579 8.60481 21.4237 10.8673 22.7733 13.4873C25.2072 18.2093 24.8629 21.5239 24.0609 23.5525C24.0149 23.6661 23.9692 23.7766 23.9213 23.8819C23.8756 23.9848 23.8246 24.0897 23.771 24.1957C22.9152 25.8773 20.9759 28.0839 16.5937 29.6595Z" fill="#263238"/>
<path d="M30.7951 40.7452C31.0465 40.3536 31.368 39.7251 31.434 38.9825C31.5117 38.0973 31.3767 37.1067 31.2457 36.1495C31.1478 35.4412 31.0478 34.708 31.0308 34.0087C30.9915 32.3819 30.9804 31.8665 32.2568 27.8583C32.2876 27.7597 32.32 27.6575 32.3532 27.5536C32.3932 27.4287 32.4344 27.3064 32.4777 27.1862C33.7334 23.7316 36.5794 21.7534 38.1319 20.6739C38.4364 20.4627 38.6999 20.2784 38.8955 20.1254C39.9253 19.3143 40.4562 18.6638 40.8359 17.6836C40.9583 17.9974 41.0728 18.3143 41.1758 18.6327C40.7689 19.3827 40.2096 19.9883 39.3322 20.6787C39.1195 20.846 38.8486 21.0347 38.5333 21.2532C36.9352 22.3629 34.293 24.2014 33.1262 27.4664C33.0915 27.5665 33.0568 27.6665 33.0244 27.7688C32.9835 27.8955 32.9442 28.0185 32.9065 28.138C31.6866 31.971 31.6969 32.4229 31.735 33.9774C31.7516 34.6526 31.8491 35.3641 31.9423 36.053C32.0799 37.0502 32.2197 38.0797 32.1356 39.0447C32.0948 39.5093 31.9728 39.9332 31.8225 40.2971C31.4839 40.4597 31.1407 40.6073 30.7951 40.7452Z" fill="#263238"/>
<path opacity="0.2" d="M25.4148 8.10191C26.1652 6.2157 35.12 10.1111 36.6893 12.6959C38.1271 15.0639 33.4048 15.9404 30.791 15.2286C28.6776 14.653 24.5383 10.3054 25.4148 8.10191Z" fill="white"/>
</g>
</g>
<defs>
<clipPath id="clip0_2756_1848">
<rect width="48" height="48" rx="13.2647" fill="white"/>
</clipPath>
<clipPath id="clip1_2756_1848">
<rect x="33.6719" y="2.41797" width="33.5083" height="33.5083" rx="16.7542" transform="rotate(68.4555 33.6719 2.41797)" fill="white"/>
</clipPath>
</defs>
</svg>
