<svg width="44" height="44" viewBox="0 0 44 44" fill="none" xmlns="http://www.w3.org/2000/svg">
<path d="M28.2893 38.3302C23.6854 40.5535 16.6659 39.8737 15.3653 38.4057L14.3717 37.992C11.75 37.7588 6.39762 32.6657 5.2699 28.6074L4.98037 27.8702C3.42695 24.5969 3.34347 17.4232 5.27834 14.8866L5.56152 14.2415C6.18228 10.8528 11.8731 5.78462 14.9347 5.27601L14.936 5.27549C14.9347 5.27601 15.6834 4.985 15.6834 4.985C19.4248 2.92063 26.9676 3.85151 28.9433 5.45712L29.7724 5.8494C32.3613 6.63422 37.7526 11.8993 38.3296 15.2671L38.3302 15.2685C38.4525 15.5823 38.5301 15.9136 38.67 16.2175C40.3902 19.9519 39.7889 25.9581 38.2824 28.3562L38.0103 29.0061C37.6098 32.0833 31.7346 37.7156 29.3168 37.882L28.2893 38.3302Z" fill="#FC822B"/>
<path d="M15.3731 38.4013C15.0381 38.2744 14.7067 38.1372 14.3795 37.9876C18.1355 36.9516 21.4122 32.749 25.5809 23.637C25.6407 23.5042 25.7031 23.3706 25.7635 23.2361C25.7998 23.1552 25.8365 23.0755 25.8714 22.9951C30.1612 13.4262 29.6591 7.92168 28.9511 5.45295C29.23 5.57607 29.5071 5.70616 29.7802 5.84523C31.1141 11.6031 28.3946 19.0824 26.5194 23.2741C26.4813 23.3619 26.443 23.4452 26.406 23.528C26.347 23.6589 26.2876 23.7884 26.2294 23.9173C22.1973 32.7345 19.0483 36.973 15.3731 38.4013Z" fill="#263238"/>
<path d="M38.0153 29.0025L30.4058 25.7193L29.756 25.4395L26.2266 23.9179L25.5781 23.6376L21.2673 21.7792L20.6182 21.4975L5.28325 14.883C5.3732 14.6656 5.46728 14.4513 5.56643 14.2379L20.9087 20.8556L21.5573 21.1359L25.8686 22.9956L26.5166 23.2746L29.9771 24.7673L30.6256 25.0476L38.2876 28.3525C38.2026 28.571 38.1108 28.7875 38.0153 29.0025Z" fill="#263238"/>
<path d="M14.089 27.2415C11.1395 28.3015 7.71814 28.7917 5.27375 28.6023C5.1712 28.358 5.07389 28.1115 4.98422 27.8651C7.19117 28.1058 10.6299 27.736 13.8512 26.5779C16.2023 25.733 19.2381 24.1738 20.6171 21.4962C20.6725 21.391 20.7238 21.2829 20.7732 21.174C20.8189 21.0711 20.8636 20.9655 20.9076 20.8542C21.649 18.9676 21.9492 15.8674 19.6429 11.392C18.2285 8.64613 16.2757 6.32483 14.9399 5.27053C15.1863 5.16561 15.4352 5.07042 15.6873 4.98003C17.0743 6.18684 18.919 8.44932 20.2686 11.0693C22.7025 15.7913 22.3582 19.1059 21.5563 21.1346C21.5102 21.2482 21.4645 21.3587 21.4166 21.4639C21.3709 21.5668 21.3199 21.6718 21.2663 21.7777C20.4105 23.4594 18.4712 25.6659 14.089 27.2415Z" fill="#263238"/>
<path d="M28.2904 38.3272C28.5418 37.9356 28.8633 37.3072 28.9293 36.5645C29.007 35.6793 28.872 34.6888 28.7411 33.7315C28.6432 33.0232 28.5431 32.29 28.5261 31.5908C28.4868 29.9639 28.4758 29.4486 29.7521 25.4403C29.7829 25.3418 29.8153 25.2396 29.8485 25.1357C29.8886 25.0107 29.9297 24.8884 29.9731 24.7683C31.2287 21.3137 34.0748 19.3354 35.6272 18.2559C35.9317 18.0447 36.1952 17.8604 36.3909 17.7074C37.4206 16.8964 37.9516 16.2458 38.3313 15.2656C38.4536 15.5794 38.5682 15.8963 38.6711 16.2147C38.2643 16.9647 37.7049 17.5703 36.8276 18.2607C36.6148 18.428 36.3439 18.6167 36.0286 18.8352C34.4305 19.9449 31.7883 21.7835 30.6215 25.0485C30.5868 25.1485 30.5521 25.2486 30.5197 25.3508C30.4789 25.4776 30.4395 25.6006 30.4018 25.72C29.1819 29.553 29.1922 30.0049 29.2303 31.5595C29.2469 32.2346 29.3444 32.9461 29.4376 33.6351C29.5753 34.6322 29.715 35.6618 29.6309 36.6268C29.5901 37.0913 29.4681 37.5152 29.3178 37.8791C28.9792 38.0417 28.636 38.1893 28.2904 38.3272Z" fill="#263238"/>
<path opacity="0.2" d="M22.9101 5.68395C23.6605 3.79773 32.6153 7.69315 34.1846 10.2779C35.6225 12.646 30.9001 13.5224 28.2864 12.8106C26.1729 12.235 22.0336 7.88745 22.9101 5.68395Z" fill="white"/>
</svg>
