<svg width="57" height="57" viewBox="0 0 57 57" fill="none" xmlns="http://www.w3.org/2000/svg">
<rect width="57" height="57" rx="8" fill="#D1DFF9"/>
<g transform="translate(14.00 15.00)">
<path d="M27.5016 9.81818H21.4103V1.22727C21.4103 0.90178 21.282 0.589618 21.0535 0.35946C20.825 0.129302 20.5152 0 20.1921 0H1.21825C0.895149 0 0.585282 0.129302 0.356817 0.35946C0.128351 0.589618 0 0.90178 0 1.22727V20.8636C0 21.6695 0.157555 22.4674 0.463668 23.2119C0.769782 23.9564 1.21846 24.6329 1.78408 25.2027C2.92641 26.3535 4.47575 27 6.09124 27H23.8468C25.1392 27 26.3787 26.4828 27.2925 25.5622C28.2064 24.6415 28.7198 23.3929 28.7198 22.0909V11.0455C28.7198 10.72 28.5915 10.4078 28.363 10.1776C28.1345 9.94748 27.8247 9.81818 27.5016 9.81818ZM16.5373 15.9545C16.5373 16.6323 15.9879 17.1818 15.3101 17.1818H6.97123C6.29343 17.1818 5.74396 16.6323 5.74396 15.9545C5.74396 15.2767 6.29343 14.7273 6.97123 14.7273H15.3101C15.9879 14.7273 16.5373 15.2767 16.5373 15.9545ZM16.5373 11.0455C16.5373 11.7233 15.9879 12.2727 15.3101 12.2727H5.2293C4.55149 12.2727 4.00203 11.7233 4.00203 11.0455C4.00203 10.3677 4.5515 9.81818 5.2293 9.81818H15.3101C15.9879 9.81818 16.5373 10.3677 16.5373 11.0455ZM26.2833 22.0909C26.2833 22.7419 26.0266 23.3662 25.5697 23.8265C25.1127 24.2868 24.493 24.5455 23.8468 24.5455C23.2006 24.5455 22.5809 24.2868 22.124 23.8265C21.667 23.3662 21.4103 22.7419 21.4103 22.0909V12.2727H26.2833V22.0909Z" fill="white"/>
<path d="M27.043 9.73438V22.3975C27.0429 22.662 26.9463 22.9122 26.7783 23.1123L26.7773 23.1113L25.0449 25.2461C24.7768 25.5855 24.3504 25.7587 23.9307 25.7588C23.5127 25.7588 23.0878 25.5874 22.8193 25.251V25.252L21.0771 23.1055L21.0781 23.1045C20.9135 22.9055 20.8175 22.6591 20.8174 22.3975V9.73438H27.043ZM23.9307 4.72656C25.5527 4.72673 27.043 5.82458 27.043 7.37305V9.30371H20.8174V7.37305C20.8174 5.82447 22.3085 4.72656 23.9307 4.72656Z" fill="#3A60B0" stroke="#D1DFF9"/>
</g>
</svg>
