<svg width="14" height="16" viewBox="0 0 14 16" fill="none" xmlns="http://www.w3.org/2000/svg">
<path fill-rule="evenodd" clip-rule="evenodd" d="M6.62327 2.67777C10.2793 2.67777 13.2465 5.66195 13.2465 9.33888C13.2465 13.0158 10.2793 16 6.62327 16C2.96722 16 0 13.0158 0 9.33888C0 7.31391 0.847778 5.50208 2.2784 4.27644C2.06646 4.11657 1.9075 3.9567 1.74854 3.79684C0.847778 2.89092 0.264931 1.82515 0.370903 0.919234C0.423889 0.706078 0.529862 0.492923 0.68882 0.333056C0.900765 0.0666112 1.27167 -0.0399667 1.64257 0.0133222C1.96049 0.0133222 2.33139 0.173189 2.70229 0.386345C3.55007 0.812656 4.50382 1.66528 5.19264 2.78435C5.66952 2.73106 6.14639 2.67777 6.62327 2.67777ZM3.0732 3.69026C3.4441 3.4771 3.815 3.26395 4.23889 3.10408C3.60306 2.25146 2.86125 1.5587 2.22542 1.23897C1.96049 1.0791 1.74854 1.02581 1.5366 0.972523C1.48361 0.972523 1.43063 0.972523 1.37764 1.02581C1.37764 1.02581 1.37764 1.02581 1.37764 1.0791C1.27167 1.61199 1.74854 2.35804 2.43736 3.10408C2.64931 3.31724 2.86125 3.4771 3.0732 3.69026ZM5.51056 5.18235C5.77549 5.28893 5.93445 5.55537 5.82848 5.82182C5.7225 6.08826 5.45757 6.19484 5.19264 6.14155C4.76875 5.98168 4.34486 5.76853 3.92098 5.50208C3.86799 5.60866 3.86799 5.66195 3.86799 5.76853C3.86799 6.56786 4.50382 7.20733 5.29862 7.20733C6.04042 7.20733 6.67626 6.56786 6.67626 5.76853C6.67626 5.28893 6.41132 4.86261 6.04042 4.59617C6.25237 4.59617 6.41132 4.54288 6.62327 4.54288C7.89494 4.54288 9.11362 5.07577 9.9614 5.98168C10.8092 6.8343 11.339 8.00666 11.339 9.33888C11.339 10.6178 10.8092 11.8435 9.9614 12.6961C9.11362 13.5487 7.89494 14.0816 6.62327 14.0816C5.29862 14.0816 4.13292 13.5487 3.28514 12.6961C2.38438 11.8435 1.85452 10.6178 1.85452 9.33888C1.85452 8.00666 2.38438 6.8343 3.28514 5.98168C3.4441 5.76853 3.65604 5.60866 3.86799 5.44879C3.70903 5.3955 3.55007 5.28893 3.39111 5.18235C3.23216 5.28893 3.0732 5.44879 2.91424 5.60866C1.96049 6.56786 1.37764 7.84679 1.37764 9.33888C1.37764 10.7777 1.96049 12.0566 2.91424 13.0158C3.86799 13.975 5.13966 14.5612 6.62327 14.5612C8.05389 14.5612 9.37855 13.975 10.2793 13.0158C11.2331 12.0566 11.8159 10.7777 11.8159 9.33888C11.8159 7.84679 11.2331 6.56786 10.2793 5.60866C9.37855 4.64946 8.05389 4.06328 6.62327 4.06328C5.77549 4.06328 5.03368 4.27644 4.34486 4.59617C4.71577 4.86261 5.13966 5.02248 5.51056 5.18235Z" fill="#282C32"/>
</svg>
