<svg width="24" height="24" viewBox="0 0 24 24" fill="none" xmlns="http://www.w3.org/2000/svg">
<rect width="24" height="24" rx="3.768" fill="#EFEFEF"/>
<g clip-path="url(#clip0_3001_48)">
<path d="M20.7427 12.9042C20.7159 12.9042 20.689 12.922 20.6711 12.9667C20.4921 13.4849 20.2414 13.7976 20.0355 13.7976C19.9191 13.7976 19.8744 13.6636 19.8744 13.467C19.8744 12.9578 20.1787 11.8768 20.3309 11.3764C20.3488 11.3139 20.3578 11.2603 20.3578 11.2156C20.3578 11.0727 20.2772 11.0012 20.0803 11.0012C19.8744 11.0012 19.6416 11.0816 19.4268 11.4658C19.3552 11.1263 19.1224 10.9834 18.8001 10.9834C18.4331 10.9834 18.075 11.2246 17.7796 11.6087C17.4842 11.9929 17.1351 12.118 16.8755 12.0554C17.0635 11.5998 17.1351 11.2514 17.1351 11.0012C17.1351 10.5992 16.9381 10.358 16.6159 10.358C16.1325 10.358 15.855 10.8225 15.855 11.305C15.855 11.6802 16.025 12.0644 16.401 12.252C16.0877 12.9578 15.6312 13.601 15.4521 13.601C15.2283 13.601 15.1567 12.5021 15.1746 11.7159C15.1836 11.2692 15.2194 11.2424 15.2194 11.1084C15.2194 11.028 15.1657 10.9744 14.9598 10.9744C14.4853 10.9744 14.3331 11.3764 14.3152 11.841C14.3063 12.0197 14.2794 12.1894 14.2347 12.3592C14.0377 13.065 13.6259 13.61 13.3574 13.61C13.232 13.61 13.1962 13.4849 13.1962 13.3241C13.1962 12.8148 13.4827 12.1716 13.4827 11.6266C13.4827 11.2246 13.3037 10.9744 12.9724 10.9744C12.5786 10.9744 12.0683 11.439 11.5759 12.3056C11.7371 11.6445 11.7997 11.0012 11.3253 11.0012C11.2179 11.0012 11.1194 11.028 11.0299 11.0816C10.9672 11.1084 10.9314 11.171 10.9314 11.2424C10.9762 11.9482 10.3585 13.7618 9.77661 13.7618C9.66918 13.7618 9.61547 13.6457 9.61547 13.4581C9.61547 12.9488 9.91984 11.8678 10.072 11.3675C10.0899 11.305 10.0989 11.2514 10.0989 11.1978C10.0989 11.0638 10.0183 10.9923 9.82137 10.9923C9.61547 10.9923 9.38272 11.0727 9.16788 11.4569C9.08731 11.1174 8.86351 10.9744 8.54124 10.9744C8.01308 10.9744 7.4312 11.5283 7.1716 12.252C6.82247 13.2169 6.13317 14.1549 5.19322 14.1549C4.34279 14.1549 3.89519 13.4491 3.89519 12.3324C3.89519 10.7153 5.0858 9.40203 5.96309 9.40203C6.38383 9.40203 6.58077 9.67005 6.58077 10.081C6.58077 10.5813 6.30326 10.8047 6.30326 11.0012C6.30326 11.0548 6.34802 11.1174 6.44649 11.1174C6.83142 11.1174 7.27902 10.6707 7.27902 10.0542C7.27902 9.43777 6.79562 9 5.91833 9C4.45916 9 3 10.4562 3 12.3324C3 13.8244 3.73406 14.7178 5.00523 14.7178C5.87357 14.7178 6.63448 14.0477 7.03732 13.2615C7.08208 13.9137 7.37749 14.2532 7.83404 14.2532C8.23688 14.2532 8.55914 14.012 8.8098 13.5921C8.90827 14.0299 9.15892 14.2443 9.49014 14.2443C9.86613 14.2443 10.1884 14.0031 10.4838 13.5653C10.4838 13.9137 10.5554 14.2443 10.8598 14.2443C11.003 14.2443 11.1731 14.2085 11.2 14.0835C11.5222 12.7702 12.31 11.6891 12.5517 11.6891C12.6233 11.6891 12.6412 11.7606 12.6412 11.841C12.6412 12.1984 12.3906 12.931 12.3906 13.3955C12.3906 13.9048 12.6054 14.2353 13.053 14.2353C13.5454 14.2353 14.0467 13.6368 14.3779 12.7523C14.4853 13.5742 14.7091 14.2353 15.0582 14.2353C15.4879 14.2353 16.2667 13.3241 16.7322 12.3592C16.9113 12.386 17.1888 12.3771 17.4574 12.1894C17.341 12.4753 17.2783 12.788 17.2783 13.0918C17.2783 13.9852 17.708 14.2353 18.075 14.2353C18.4779 14.2353 18.8001 13.9941 19.0508 13.5742C19.1314 13.9494 19.3462 14.2264 19.7311 14.2264C20.3309 14.2264 20.8591 13.61 20.8591 13.1007C20.868 12.9935 20.8054 12.9042 20.7427 12.9042ZM8.21002 13.7529C7.96832 13.7529 7.86985 13.5117 7.86985 13.1454C7.86985 12.5111 8.30849 11.4479 8.76504 11.4479C8.96198 11.4479 9.04255 11.6802 9.04255 11.975C9.04255 12.6183 8.63076 13.7529 8.21002 13.7529ZM16.5622 11.8589C16.4189 11.6891 16.3652 11.4479 16.3652 11.2424C16.3652 10.9834 16.4637 10.7689 16.5711 10.7689C16.6785 10.7689 16.7233 10.8761 16.7233 11.037C16.7143 11.2871 16.6248 11.6713 16.5622 11.8589ZM18.451 13.7529C18.2093 13.7529 18.1108 13.467 18.1108 13.1454C18.1108 12.5289 18.5495 11.4479 19.006 11.4479C19.203 11.4479 19.2746 11.6802 19.2746 11.975C19.2835 12.6183 18.8807 13.7529 18.451 13.7529Z" fill="url(#paint0_linear_3001_48)"/>
<path d="M20.7427 12.9042C20.7159 12.9042 20.689 12.922 20.6711 12.9667C20.4921 13.4849 20.2414 13.7976 20.0355 13.7976C19.9191 13.7976 19.8744 13.6636 19.8744 13.467C19.8744 12.9578 20.1787 11.8768 20.3309 11.3764C20.3488 11.3139 20.3578 11.2603 20.3578 11.2156C20.3578 11.0727 20.2772 11.0012 20.0803 11.0012C19.8744 11.0012 19.6416 11.0816 19.4268 11.4658C19.3552 11.1263 19.1224 10.9834 18.8001 10.9834C18.4331 10.9834 18.075 11.2246 17.7796 11.6087C17.4842 11.9929 17.1351 12.118 16.8755 12.0554C17.0635 11.5998 17.1351 11.2514 17.1351 11.0012C17.1351 10.5992 16.9381 10.358 16.6159 10.358C16.1325 10.358 15.855 10.8225 15.855 11.305C15.855 11.6802 16.025 12.0644 16.401 12.252C16.0877 12.9578 15.6312 13.601 15.4521 13.601C15.2283 13.601 15.1567 12.5021 15.1746 11.7159C15.1836 11.2692 15.2194 11.2424 15.2194 11.1084C15.2194 11.028 15.1657 10.9744 14.9598 10.9744C14.4853 10.9744 14.3331 11.3764 14.3152 11.841C14.3063 12.0197 14.2794 12.1894 14.2347 12.3592C14.0377 13.065 13.6259 13.61 13.3574 13.61C13.232 13.61 13.1962 13.4849 13.1962 13.3241C13.1962 12.8148 13.4827 12.1716 13.4827 11.6266C13.4827 11.2246 13.3037 10.9744 12.9724 10.9744C12.5786 10.9744 12.0683 11.439 11.5759 12.3056C11.7371 11.6445 11.7997 11.0012 11.3253 11.0012C11.2179 11.0012 11.1194 11.028 11.0299 11.0816C10.9672 11.1084 10.9314 11.171 10.9314 11.2424C10.9762 11.9482 10.3585 13.7618 9.77661 13.7618C9.66918 13.7618 9.61547 13.6457 9.61547 13.4581C9.61547 12.9488 9.91984 11.8678 10.072 11.3675C10.0899 11.305 10.0989 11.2514 10.0989 11.1978C10.0989 11.0638 10.0183 10.9923 9.82137 10.9923C9.61547 10.9923 9.38272 11.0727 9.16788 11.4569C9.08731 11.1174 8.86351 10.9744 8.54124 10.9744C8.01308 10.9744 7.4312 11.5283 7.1716 12.252C6.82247 13.2169 6.13317 14.1549 5.19322 14.1549C4.34279 14.1549 3.89519 13.4491 3.89519 12.3324C3.89519 10.7153 5.0858 9.40203 5.96309 9.40203C6.38383 9.40203 6.58077 9.67005 6.58077 10.081C6.58077 10.5813 6.30326 10.8047 6.30326 11.0012C6.30326 11.0548 6.34802 11.1174 6.44649 11.1174C6.83142 11.1174 7.27902 10.6707 7.27902 10.0542C7.27902 9.43777 6.79562 9 5.91833 9C4.45916 9 3 10.4562 3 12.3324C3 13.8244 3.73406 14.7178 5.00523 14.7178C5.87357 14.7178 6.63448 14.0477 7.03732 13.2615C7.08208 13.9137 7.37749 14.2532 7.83404 14.2532C8.23688 14.2532 8.55914 14.012 8.8098 13.5921C8.90827 14.0299 9.15892 14.2443 9.49014 14.2443C9.86613 14.2443 10.1884 14.0031 10.4838 13.5653C10.4838 13.9137 10.5554 14.2443 10.8598 14.2443C11.003 14.2443 11.1731 14.2085 11.2 14.0835C11.5222 12.7702 12.31 11.6891 12.5517 11.6891C12.6233 11.6891 12.6412 11.7606 12.6412 11.841C12.6412 12.1984 12.3906 12.931 12.3906 13.3955C12.3906 13.9048 12.6054 14.2353 13.053 14.2353C13.5454 14.2353 14.0467 13.6368 14.3779 12.7523C14.4853 13.5742 14.7091 14.2353 15.0582 14.2353C15.4879 14.2353 16.2667 13.3241 16.7322 12.3592C16.9113 12.386 17.1888 12.3771 17.4574 12.1894C17.341 12.4753 17.2783 12.788 17.2783 13.0918C17.2783 13.9852 17.708 14.2353 18.075 14.2353C18.4779 14.2353 18.8001 13.9941 19.0508 13.5742C19.1314 13.9494 19.3462 14.2264 19.7311 14.2264C20.3309 14.2264 20.8591 13.61 20.8591 13.1007C20.868 12.9935 20.8054 12.9042 20.7427 12.9042ZM8.21002 13.7529C7.96832 13.7529 7.86985 13.5117 7.86985 13.1454C7.86985 12.5111 8.30849 11.4479 8.76504 11.4479C8.96198 11.4479 9.04255 11.6802 9.04255 11.975C9.04255 12.6183 8.63076 13.7529 8.21002 13.7529ZM16.5622 11.8589C16.4189 11.6891 16.3652 11.4479 16.3652 11.2424C16.3652 10.9834 16.4637 10.7689 16.5711 10.7689C16.6785 10.7689 16.7233 10.8761 16.7233 11.037C16.7143 11.2871 16.6248 11.6713 16.5622 11.8589ZM18.451 13.7529C18.2093 13.7529 18.1108 13.467 18.1108 13.1454C18.1108 12.5289 18.5495 11.4479 19.006 11.4479C19.203 11.4479 19.2746 11.6802 19.2746 11.975C19.2835 12.6183 18.8807 13.7529 18.451 13.7529Z" fill="url(#paint1_radial_3001_48)"/>
<path d="M20.7427 12.9042C20.7159 12.9042 20.689 12.922 20.6711 12.9667C20.4921 13.4849 20.2414 13.7976 20.0355 13.7976C19.9191 13.7976 19.8744 13.6636 19.8744 13.467C19.8744 12.9578 20.1787 11.8768 20.3309 11.3764C20.3488 11.3139 20.3578 11.2603 20.3578 11.2156C20.3578 11.0727 20.2772 11.0012 20.0803 11.0012C19.8744 11.0012 19.6416 11.0816 19.4268 11.4658C19.3552 11.1263 19.1224 10.9834 18.8001 10.9834C18.4331 10.9834 18.075 11.2246 17.7796 11.6087C17.4842 11.9929 17.1351 12.118 16.8755 12.0554C17.0635 11.5998 17.1351 11.2514 17.1351 11.0012C17.1351 10.5992 16.9381 10.358 16.6159 10.358C16.1325 10.358 15.855 10.8225 15.855 11.305C15.855 11.6802 16.025 12.0644 16.401 12.252C16.0877 12.9578 15.6312 13.601 15.4521 13.601C15.2283 13.601 15.1567 12.5021 15.1746 11.7159C15.1836 11.2692 15.2194 11.2424 15.2194 11.1084C15.2194 11.028 15.1657 10.9744 14.9598 10.9744C14.4853 10.9744 14.3331 11.3764 14.3152 11.841C14.3063 12.0197 14.2794 12.1894 14.2347 12.3592C14.0377 13.065 13.6259 13.61 13.3574 13.61C13.232 13.61 13.1962 13.4849 13.1962 13.3241C13.1962 12.8148 13.4827 12.1716 13.4827 11.6266C13.4827 11.2246 13.3037 10.9744 12.9724 10.9744C12.5786 10.9744 12.0683 11.439 11.5759 12.3056C11.7371 11.6445 11.7997 11.0012 11.3253 11.0012C11.2179 11.0012 11.1194 11.028 11.0299 11.0816C10.9672 11.1084 10.9314 11.171 10.9314 11.2424C10.9762 11.9482 10.3585 13.7618 9.77661 13.7618C9.66918 13.7618 9.61547 13.6457 9.61547 13.4581C9.61547 12.9488 9.91984 11.8678 10.072 11.3675C10.0899 11.305 10.0989 11.2514 10.0989 11.1978C10.0989 11.0638 10.0183 10.9923 9.82137 10.9923C9.61547 10.9923 9.38272 11.0727 9.16788 11.4569C9.08731 11.1174 8.86351 10.9744 8.54124 10.9744C8.01308 10.9744 7.4312 11.5283 7.1716 12.252C6.82247 13.2169 6.13317 14.1549 5.19322 14.1549C4.34279 14.1549 3.89519 13.4491 3.89519 12.3324C3.89519 10.7153 5.0858 9.40203 5.96309 9.40203C6.38383 9.40203 6.58077 9.67005 6.58077 10.081C6.58077 10.5813 6.30326 10.8047 6.30326 11.0012C6.30326 11.0548 6.34802 11.1174 6.44649 11.1174C6.83142 11.1174 7.27902 10.6707 7.27902 10.0542C7.27902 9.43777 6.79562 9 5.91833 9C4.45916 9 3 10.4562 3 12.3324C3 13.8244 3.73406 14.7178 5.00523 14.7178C5.87357 14.7178 6.63448 14.0477 7.03732 13.2615C7.08208 13.9137 7.37749 14.2532 7.83404 14.2532C8.23688 14.2532 8.55914 14.012 8.8098 13.5921C8.90827 14.0299 9.15892 14.2443 9.49014 14.2443C9.86613 14.2443 10.1884 14.0031 10.4838 13.5653C10.4838 13.9137 10.5554 14.2443 10.8598 14.2443C11.003 14.2443 11.1731 14.2085 11.2 14.0835C11.5222 12.7702 12.31 11.6891 12.5517 11.6891C12.6233 11.6891 12.6412 11.7606 12.6412 11.841C12.6412 12.1984 12.3906 12.931 12.3906 13.3955C12.3906 13.9048 12.6054 14.2353 13.053 14.2353C13.5454 14.2353 14.0467 13.6368 14.3779 12.7523C14.4853 13.5742 14.7091 14.2353 15.0582 14.2353C15.4879 14.2353 16.2667 13.3241 16.7322 12.3592C16.9113 12.386 17.1888 12.3771 17.4574 12.1894C17.341 12.4753 17.2783 12.788 17.2783 13.0918C17.2783 13.9852 17.708 14.2353 18.075 14.2353C18.4779 14.2353 18.8001 13.9941 19.0508 13.5742C19.1314 13.9494 19.3462 14.2264 19.7311 14.2264C20.3309 14.2264 20.8591 13.61 20.8591 13.1007C20.868 12.9935 20.8054 12.9042 20.7427 12.9042ZM8.21002 13.7529C7.96832 13.7529 7.86985 13.5117 7.86985 13.1454C7.86985 12.5111 8.30849 11.4479 8.76504 11.4479C8.96198 11.4479 9.04255 11.6802 9.04255 11.975C9.04255 12.6183 8.63076 13.7529 8.21002 13.7529ZM16.5622 11.8589C16.4189 11.6891 16.3652 11.4479 16.3652 11.2424C16.3652 10.9834 16.4637 10.7689 16.5711 10.7689C16.6785 10.7689 16.7233 10.8761 16.7233 11.037C16.7143 11.2871 16.6248 11.6713 16.5622 11.8589ZM18.451 13.7529C18.2093 13.7529 18.1108 13.467 18.1108 13.1454C18.1108 12.5289 18.5495 11.4479 19.006 11.4479C19.203 11.4479 19.2746 11.6802 19.2746 11.975C19.2835 12.6183 18.8807 13.7529 18.451 13.7529Z" fill="url(#paint2_radial_3001_48)"/>
<path d="M20.7427 12.9042C20.7159 12.9042 20.689 12.922 20.6711 12.9667C20.4921 13.4849 20.2414 13.7976 20.0355 13.7976C19.9191 13.7976 19.8744 13.6636 19.8744 13.467C19.8744 12.9578 20.1787 11.8768 20.3309 11.3764C20.3488 11.3139 20.3578 11.2603 20.3578 11.2156C20.3578 11.0727 20.2772 11.0012 20.0803 11.0012C19.8744 11.0012 19.6416 11.0816 19.4268 11.4658C19.3552 11.1263 19.1224 10.9834 18.8001 10.9834C18.4331 10.9834 18.075 11.2246 17.7796 11.6087C17.4842 11.9929 17.1351 12.118 16.8755 12.0554C17.0635 11.5998 17.1351 11.2514 17.1351 11.0012C17.1351 10.5992 16.9381 10.358 16.6159 10.358C16.1325 10.358 15.855 10.8225 15.855 11.305C15.855 11.6802 16.025 12.0644 16.401 12.252C16.0877 12.9578 15.6312 13.601 15.4521 13.601C15.2283 13.601 15.1567 12.5021 15.1746 11.7159C15.1836 11.2692 15.2194 11.2424 15.2194 11.1084C15.2194 11.028 15.1657 10.9744 14.9598 10.9744C14.4853 10.9744 14.3331 11.3764 14.3152 11.841C14.3063 12.0197 14.2794 12.1894 14.2347 12.3592C14.0377 13.065 13.6259 13.61 13.3574 13.61C13.232 13.61 13.1962 13.4849 13.1962 13.3241C13.1962 12.8148 13.4827 12.1716 13.4827 11.6266C13.4827 11.2246 13.3037 10.9744 12.9724 10.9744C12.5786 10.9744 12.0683 11.439 11.5759 12.3056C11.7371 11.6445 11.7997 11.0012 11.3253 11.0012C11.2179 11.0012 11.1194 11.028 11.0299 11.0816C10.9672 11.1084 10.9314 11.171 10.9314 11.2424C10.9762 11.9482 10.3585 13.7618 9.77661 13.7618C9.66918 13.7618 9.61547 13.6457 9.61547 13.4581C9.61547 12.9488 9.91984 11.8678 10.072 11.3675C10.0899 11.305 10.0989 11.2514 10.0989 11.1978C10.0989 11.0638 10.0183 10.9923 9.82137 10.9923C9.61547 10.9923 9.38272 11.0727 9.16788 11.4569C9.08731 11.1174 8.86351 10.9744 8.54124 10.9744C8.01308 10.9744 7.4312 11.5283 7.1716 12.252C6.82247 13.2169 6.13317 14.1549 5.19322 14.1549C4.34279 14.1549 3.89519 13.4491 3.89519 12.3324C3.89519 10.7153 5.0858 9.40203 5.96309 9.40203C6.38383 9.40203 6.58077 9.67005 6.58077 10.081C6.58077 10.5813 6.30326 10.8047 6.30326 11.0012C6.30326 11.0548 6.34802 11.1174 6.44649 11.1174C6.83142 11.1174 7.27902 10.6707 7.27902 10.0542C7.27902 9.43777 6.79562 9 5.91833 9C4.45916 9 3 10.4562 3 12.3324C3 13.8244 3.73406 14.7178 5.00523 14.7178C5.87357 14.7178 6.63448 14.0477 7.03732 13.2615C7.08208 13.9137 7.37749 14.2532 7.83404 14.2532C8.23688 14.2532 8.55914 14.012 8.8098 13.5921C8.90827 14.0299 9.15892 14.2443 9.49014 14.2443C9.86613 14.2443 10.1884 14.0031 10.4838 13.5653C10.4838 13.9137 10.5554 14.2443 10.8598 14.2443C11.003 14.2443 11.1731 14.2085 11.2 14.0835C11.5222 12.7702 12.31 11.6891 12.5517 11.6891C12.6233 11.6891 12.6412 11.7606 12.6412 11.841C12.6412 12.1984 12.3906 12.931 12.3906 13.3955C12.3906 13.9048 12.6054 14.2353 13.053 14.2353C13.5454 14.2353 14.0467 13.6368 14.3779 12.7523C14.4853 13.5742 14.7091 14.2353 15.0582 14.2353C15.4879 14.2353 16.2667 13.3241 16.7322 12.3592C16.9113 12.386 17.1888 12.3771 17.4574 12.1894C17.341 12.4753 17.2783 12.788 17.2783 13.0918C17.2783 13.9852 17.708 14.2353 18.075 14.2353C18.4779 14.2353 18.8001 13.9941 19.0508 13.5742C19.1314 13.9494 19.3462 14.2264 19.7311 14.2264C20.3309 14.2264 20.8591 13.61 20.8591 13.1007C20.868 12.9935 20.8054 12.9042 20.7427 12.9042ZM8.21002 13.7529C7.96832 13.7529 7.86985 13.5117 7.86985 13.1454C7.86985 12.5111 8.30849 11.4479 8.76504 11.4479C8.96198 11.4479 9.04255 11.6802 9.04255 11.975C9.04255 12.6183 8.63076 13.7529 8.21002 13.7529ZM16.5622 11.8589C16.4189 11.6891 16.3652 11.4479 16.3652 11.2424C16.3652 10.9834 16.4637 10.7689 16.5711 10.7689C16.6785 10.7689 16.7233 10.8761 16.7233 11.037C16.7143 11.2871 16.6248 11.6713 16.5622 11.8589ZM18.451 13.7529C18.2093 13.7529 18.1108 13.467 18.1108 13.1454C18.1108 12.5289 18.5495 11.4479 19.006 11.4479C19.203 11.4479 19.2746 11.6802 19.2746 11.975C19.2835 12.6183 18.8807 13.7529 18.451 13.7529Z" fill="url(#paint3_radial_3001_48)"/>
<path d="M20.7427 12.9042C20.7159 12.9042 20.689 12.922 20.6711 12.9667C20.4921 13.4849 20.2414 13.7976 20.0355 13.7976C19.9191 13.7976 19.8744 13.6636 19.8744 13.467C19.8744 12.9578 20.1787 11.8768 20.3309 11.3764C20.3488 11.3139 20.3578 11.2603 20.3578 11.2156C20.3578 11.0727 20.2772 11.0012 20.0803 11.0012C19.8744 11.0012 19.6416 11.0816 19.4268 11.4658C19.3552 11.1263 19.1224 10.9834 18.8001 10.9834C18.4331 10.9834 18.075 11.2246 17.7796 11.6087C17.4842 11.9929 17.1351 12.118 16.8755 12.0554C17.0635 11.5998 17.1351 11.2514 17.1351 11.0012C17.1351 10.5992 16.9381 10.358 16.6159 10.358C16.1325 10.358 15.855 10.8225 15.855 11.305C15.855 11.6802 16.025 12.0644 16.401 12.252C16.0877 12.9578 15.6312 13.601 15.4521 13.601C15.2283 13.601 15.1567 12.5021 15.1746 11.7159C15.1836 11.2692 15.2194 11.2424 15.2194 11.1084C15.2194 11.028 15.1657 10.9744 14.9598 10.9744C14.4853 10.9744 14.3331 11.3764 14.3152 11.841C14.3063 12.0197 14.2794 12.1894 14.2347 12.3592C14.0377 13.065 13.6259 13.61 13.3574 13.61C13.232 13.61 13.1962 13.4849 13.1962 13.3241C13.1962 12.8148 13.4827 12.1716 13.4827 11.6266C13.4827 11.2246 13.3037 10.9744 12.9724 10.9744C12.5786 10.9744 12.0683 11.439 11.5759 12.3056C11.7371 11.6445 11.7997 11.0012 11.3253 11.0012C11.2179 11.0012 11.1194 11.028 11.0299 11.0816C10.9672 11.1084 10.9314 11.171 10.9314 11.2424C10.9762 11.9482 10.3585 13.7618 9.77661 13.7618C9.66918 13.7618 9.61547 13.6457 9.61547 13.4581C9.61547 12.9488 9.91984 11.8678 10.072 11.3675C10.0899 11.305 10.0989 11.2514 10.0989 11.1978C10.0989 11.0638 10.0183 10.9923 9.82137 10.9923C9.61547 10.9923 9.38272 11.0727 9.16788 11.4569C9.08731 11.1174 8.86351 10.9744 8.54124 10.9744C8.01308 10.9744 7.4312 11.5283 7.1716 12.252C6.82247 13.2169 6.13317 14.1549 5.19322 14.1549C4.34279 14.1549 3.89519 13.4491 3.89519 12.3324C3.89519 10.7153 5.0858 9.40203 5.96309 9.40203C6.38383 9.40203 6.58077 9.67005 6.58077 10.081C6.58077 10.5813 6.30326 10.8047 6.30326 11.0012C6.30326 11.0548 6.34802 11.1174 6.44649 11.1174C6.83142 11.1174 7.27902 10.6707 7.27902 10.0542C7.27902 9.43777 6.79562 9 5.91833 9C4.45916 9 3 10.4562 3 12.3324C3 13.8244 3.73406 14.7178 5.00523 14.7178C5.87357 14.7178 6.63448 14.0477 7.03732 13.2615C7.08208 13.9137 7.37749 14.2532 7.83404 14.2532C8.23688 14.2532 8.55914 14.012 8.8098 13.5921C8.90827 14.0299 9.15892 14.2443 9.49014 14.2443C9.86613 14.2443 10.1884 14.0031 10.4838 13.5653C10.4838 13.9137 10.5554 14.2443 10.8598 14.2443C11.003 14.2443 11.1731 14.2085 11.2 14.0835C11.5222 12.7702 12.31 11.6891 12.5517 11.6891C12.6233 11.6891 12.6412 11.7606 12.6412 11.841C12.6412 12.1984 12.3906 12.931 12.3906 13.3955C12.3906 13.9048 12.6054 14.2353 13.053 14.2353C13.5454 14.2353 14.0467 13.6368 14.3779 12.7523C14.4853 13.5742 14.7091 14.2353 15.0582 14.2353C15.4879 14.2353 16.2667 13.3241 16.7322 12.3592C16.9113 12.386 17.1888 12.3771 17.4574 12.1894C17.341 12.4753 17.2783 12.788 17.2783 13.0918C17.2783 13.9852 17.708 14.2353 18.075 14.2353C18.4779 14.2353 18.8001 13.9941 19.0508 13.5742C19.1314 13.9494 19.3462 14.2264 19.7311 14.2264C20.3309 14.2264 20.8591 13.61 20.8591 13.1007C20.868 12.9935 20.8054 12.9042 20.7427 12.9042ZM8.21002 13.7529C7.96832 13.7529 7.86985 13.5117 7.86985 13.1454C7.86985 12.5111 8.30849 11.4479 8.76504 11.4479C8.96198 11.4479 9.04255 11.6802 9.04255 11.975C9.04255 12.6183 8.63076 13.7529 8.21002 13.7529ZM16.5622 11.8589C16.4189 11.6891 16.3652 11.4479 16.3652 11.2424C16.3652 10.9834 16.4637 10.7689 16.5711 10.7689C16.6785 10.7689 16.7233 10.8761 16.7233 11.037C16.7143 11.2871 16.6248 11.6713 16.5622 11.8589ZM18.451 13.7529C18.2093 13.7529 18.1108 13.467 18.1108 13.1454C18.1108 12.5289 18.5495 11.4479 19.006 11.4479C19.203 11.4479 19.2746 11.6802 19.2746 11.975C19.2835 12.6183 18.8807 13.7529 18.451 13.7529Z" fill="url(#paint4_radial_3001_48)"/>
<path d="M20.7427 12.9042C20.7159 12.9042 20.689 12.922 20.6711 12.9667C20.4921 13.4849 20.2414 13.7976 20.0355 13.7976C19.9191 13.7976 19.8744 13.6636 19.8744 13.467C19.8744 12.9578 20.1787 11.8768 20.3309 11.3764C20.3488 11.3139 20.3578 11.2603 20.3578 11.2156C20.3578 11.0727 20.2772 11.0012 20.0803 11.0012C19.8744 11.0012 19.6416 11.0816 19.4268 11.4658C19.3552 11.1263 19.1224 10.9834 18.8001 10.9834C18.4331 10.9834 18.075 11.2246 17.7796 11.6087C17.4842 11.9929 17.1351 12.118 16.8755 12.0554C17.0635 11.5998 17.1351 11.2514 17.1351 11.0012C17.1351 10.5992 16.9381 10.358 16.6159 10.358C16.1325 10.358 15.855 10.8225 15.855 11.305C15.855 11.6802 16.025 12.0644 16.401 12.252C16.0877 12.9578 15.6312 13.601 15.4521 13.601C15.2283 13.601 15.1567 12.5021 15.1746 11.7159C15.1836 11.2692 15.2194 11.2424 15.2194 11.1084C15.2194 11.028 15.1657 10.9744 14.9598 10.9744C14.4853 10.9744 14.3331 11.3764 14.3152 11.841C14.3063 12.0197 14.2794 12.1894 14.2347 12.3592C14.0377 13.065 13.6259 13.61 13.3574 13.61C13.232 13.61 13.1962 13.4849 13.1962 13.3241C13.1962 12.8148 13.4827 12.1716 13.4827 11.6266C13.4827 11.2246 13.3037 10.9744 12.9724 10.9744C12.5786 10.9744 12.0683 11.439 11.5759 12.3056C11.7371 11.6445 11.7997 11.0012 11.3253 11.0012C11.2179 11.0012 11.1194 11.028 11.0299 11.0816C10.9672 11.1084 10.9314 11.171 10.9314 11.2424C10.9762 11.9482 10.3585 13.7618 9.77661 13.7618C9.66918 13.7618 9.61547 13.6457 9.61547 13.4581C9.61547 12.9488 9.91984 11.8678 10.072 11.3675C10.0899 11.305 10.0989 11.2514 10.0989 11.1978C10.0989 11.0638 10.0183 10.9923 9.82137 10.9923C9.61547 10.9923 9.38272 11.0727 9.16788 11.4569C9.08731 11.1174 8.86351 10.9744 8.54124 10.9744C8.01308 10.9744 7.4312 11.5283 7.1716 12.252C6.82247 13.2169 6.13317 14.1549 5.19322 14.1549C4.34279 14.1549 3.89519 13.4491 3.89519 12.3324C3.89519 10.7153 5.0858 9.40203 5.96309 9.40203C6.38383 9.40203 6.58077 9.67005 6.58077 10.081C6.58077 10.5813 6.30326 10.8047 6.30326 11.0012C6.30326 11.0548 6.34802 11.1174 6.44649 11.1174C6.83142 11.1174 7.27902 10.6707 7.27902 10.0542C7.27902 9.43777 6.79562 9 5.91833 9C4.45916 9 3 10.4562 3 12.3324C3 13.8244 3.73406 14.7178 5.00523 14.7178C5.87357 14.7178 6.63448 14.0477 7.03732 13.2615C7.08208 13.9137 7.37749 14.2532 7.83404 14.2532C8.23688 14.2532 8.55914 14.012 8.8098 13.5921C8.90827 14.0299 9.15892 14.2443 9.49014 14.2443C9.86613 14.2443 10.1884 14.0031 10.4838 13.5653C10.4838 13.9137 10.5554 14.2443 10.8598 14.2443C11.003 14.2443 11.1731 14.2085 11.2 14.0835C11.5222 12.7702 12.31 11.6891 12.5517 11.6891C12.6233 11.6891 12.6412 11.7606 12.6412 11.841C12.6412 12.1984 12.3906 12.931 12.3906 13.3955C12.3906 13.9048 12.6054 14.2353 13.053 14.2353C13.5454 14.2353 14.0467 13.6368 14.3779 12.7523C14.4853 13.5742 14.7091 14.2353 15.0582 14.2353C15.4879 14.2353 16.2667 13.3241 16.7322 12.3592C16.9113 12.386 17.1888 12.3771 17.4574 12.1894C17.341 12.4753 17.2783 12.788 17.2783 13.0918C17.2783 13.9852 17.708 14.2353 18.075 14.2353C18.4779 14.2353 18.8001 13.9941 19.0508 13.5742C19.1314 13.9494 19.3462 14.2264 19.7311 14.2264C20.3309 14.2264 20.8591 13.61 20.8591 13.1007C20.868 12.9935 20.8054 12.9042 20.7427 12.9042ZM8.21002 13.7529C7.96832 13.7529 7.86985 13.5117 7.86985 13.1454C7.86985 12.5111 8.30849 11.4479 8.76504 11.4479C8.96198 11.4479 9.04255 11.6802 9.04255 11.975C9.04255 12.6183 8.63076 13.7529 8.21002 13.7529ZM16.5622 11.8589C16.4189 11.6891 16.3652 11.4479 16.3652 11.2424C16.3652 10.9834 16.4637 10.7689 16.5711 10.7689C16.6785 10.7689 16.7233 10.8761 16.7233 11.037C16.7143 11.2871 16.6248 11.6713 16.5622 11.8589ZM18.451 13.7529C18.2093 13.7529 18.1108 13.467 18.1108 13.1454C18.1108 12.5289 18.5495 11.4479 19.006 11.4479C19.203 11.4479 19.2746 11.6802 19.2746 11.975C19.2835 12.6183 18.8807 13.7529 18.451 13.7529Z" fill="url(#paint5_radial_3001_48)"/>
</g>
<defs>
<linearGradient id="paint0_linear_3001_48" x1="20.6703" y1="14.8165" x2="5.81002" y2="11.273" gradientUnits="userSpaceOnUse">
<stop stop-color="#7D2AE7"/>
<stop offset="0.7708" stop-color="#7D2AE7"/>
<stop offset="1" stop-color="#7D2AE7" stop-opacity="0"/>
</linearGradient>
<radialGradient id="paint1_radial_3001_48" cx="0" cy="0" r="1" gradientTransform="matrix(3.7516 -3.85107 -2.56449 -2.48827 12.1473 15.3379)" gradientUnits="userSpaceOnUse">
<stop stop-color="#6420FF"/>
<stop offset="1" stop-color="#6420FF" stop-opacity="0"/>
</radialGradient>
<radialGradient id="paint2_radial_3001_48" cx="0" cy="0" r="1" gradientTransform="matrix(10.433 0.927109 0.740407 -8.29871 3.4276 12.8081)" gradientUnits="userSpaceOnUse">
<stop offset="0.25" stop-color="#00C4CC"/>
<stop offset="1" stop-color="#00C4CC" stop-opacity="0"/>
</radialGradient>
<radialGradient id="paint3_radial_3001_48" cx="0" cy="0" r="1" gradientTransform="matrix(5.25671 -4.22549 -2.89505 -3.58719 10.6251 14.7135)" gradientUnits="userSpaceOnUse">
<stop stop-color="#6420FF"/>
<stop offset="1" stop-color="#6420FF" stop-opacity="0"/>
</radialGradient>
<radialGradient id="paint4_radial_3001_48" cx="0" cy="0" r="1" gradientTransform="matrix(6.50278 -4.4216 -3.02941 -4.43751 4.00092 15.7114)" gradientUnits="userSpaceOnUse">
<stop stop-color="#6420FF"/>
<stop offset="1" stop-color="#6420FF" stop-opacity="0"/>
</radialGradient>
<radialGradient id="paint5_radial_3001_48" cx="0" cy="0" r="1" gradientTransform="matrix(15.185 3.35185 4.11916 -18.5866 4.71918 9.52392)" gradientUnits="userSpaceOnUse">
<stop stop-color="#00C4CC"/>
<stop offset="1" stop-color="#00C4CC" stop-opacity="0"/>
</radialGradient>
<clipPath id="clip0_3001_48">
<rect width="17.868" height="5.71777" fill="white" transform="translate(3 9)"/>
</clipPath>
</defs>
</svg>
