<svg width="157" height="157" viewBox="0 0 157 157" fill="none" xmlns="http://www.w3.org/2000/svg">
<rect width="157" height="157" rx="78.5" fill="#E8EFFC"/>
<path d="M58.5013 63.0338L24.0478 115.721C23.6306 116.359 24.1995 117.181 24.944 117.015L86.4016 103.341L58.5013 63.0338Z" fill="#265BD1"/>
<path d="M64.1224 88.9599C56.4172 77.8296 54.2725 65.9684 59.3323 62.4671C64.392 58.9658 74.7401 65.1502 82.4453 76.2805C90.1506 87.4107 92.2953 99.272 87.2355 102.773C82.1758 106.275 71.8277 100.09 64.1224 88.9599Z" fill="#11398E"/>
<path d="M51.1068 74.3388C51.1068 74.3388 47.4325 88.1914 64.0654 108.31L54.2258 110.499C54.2258 110.499 44.0381 93.5428 46.4164 81.511L51.1068 74.3388Z" fill="#4E86FF"/>
<path d="M39.7305 91.7341C39.7305 91.7341 37.7969 99.9286 44.1759 112.734L36.8414 114.366C36.8414 114.366 33.1764 107.924 35.2188 98.6336L39.7305 91.7341Z" fill="#4E86FF"/>
<path opacity="0.57" d="M51.5752 76.2813C44.2864 86.4357 37.8409 97.1605 30.6736 107.398C29.1562 109.566 32.3362 112.204 33.8614 110.025C41.0284 99.7871 47.4738 89.0626 54.763 78.9081C56.3081 76.7556 53.1267 74.1201 51.5752 76.2813Z" fill="white"/>
<path d="M135.633 79.0399C135.633 79.0399 134.005 76.4142 131.257 76.9304L132.312 74.0011C132.312 74.0011 135.135 73.6603 136.798 76.0965L135.633 79.0399Z" fill="#00ACFD"/>
<path d="M75.5214 36.5926C68.8796 39.1392 69.1949 47.1421 68.5739 52.975C67.8559 59.7204 64.4325 65.9454 59.2616 70.284C57.9476 71.3865 59.7396 73.4016 61.05 72.3021C66.058 68.1004 69.6234 62.2002 70.8597 55.7592C71.8816 50.4351 70.3796 41.4287 76.7341 38.9922C78.3421 38.3754 77.1151 35.9816 75.5214 36.5926Z" fill="#FFCD00"/>
<path d="M95.6849 104.377C93.6944 101.688 90.9768 99.6196 87.7844 98.5488C84.4516 97.431 80.9577 97.606 77.4829 97.8698C75.7605 98.0007 75.911 100.671 77.6348 100.54C80.6213 100.313 83.6782 100.076 86.5699 100.963C89.3194 101.806 91.7349 103.569 93.4339 105.864C94.4486 107.235 96.7034 105.753 95.6849 104.377Z" fill="#E84C3D"/>
<path d="M89.7258 56.4227C89.7258 56.4227 87.7011 58.7265 85.0594 57.7535L85.6449 60.8102C85.6449 60.8102 88.3873 61.6235 90.4179 59.5117L89.7258 56.4227Z" fill="#00ACFD"/>
<path d="M79.5947 68.1209L75.8935 70.6813L74.3317 76.0445L77.983 73.6557L79.5947 68.1209Z" fill="#E84C3D"/>
<path d="M85.7272 88.5087C85.7272 88.5087 88.8104 88.3163 89.9796 90.8563L91.7577 88.3004C91.7577 88.3004 90.4025 85.8017 87.4531 85.8552L85.7272 88.5087Z" fill="#7531F9"/>
<path d="M116.92 89.8429C116.92 89.8429 120.507 89.9664 121.492 93.061L123.912 90.2804C123.912 90.2804 122.707 87.2128 119.294 86.9425L116.92 89.8429Z" fill="#E84C3D"/>
<path d="M96.2378 90.2675C96.2378 90.2675 97.0421 93.2767 100.656 93.0618C104.269 92.8468 104.46 96.1716 104.46 96.1716L106.874 93.7889C106.874 93.7889 106.184 90.4844 102.17 90.8925C98.7719 91.238 97.9554 88.21 97.9554 88.21L96.2378 90.2675Z" fill="#0F8D2A"/>
<path d="M142.89 53.3655C142.89 53.3655 140.281 55.9083 137.246 54.519L137.654 58.1879C137.654 58.1879 140.823 59.3973 143.422 57.0822L142.89 53.3655Z" fill="#FFCD00"/>
<path d="M92.4443 69.8613L88.5982 69.8016L84.8031 72.72L88.5277 72.8728L92.4443 69.8613Z" fill="#0F8D2A"/>
<path d="M102.545 61.0945C102.545 61.0945 100.306 63.6426 97.384 62.5664L98.0315 65.9476C98.0315 65.9476 101.065 66.8472 103.311 64.5114L102.545 61.0945Z" fill="#E84C3D"/>
<path d="M107.127 49.5917L103.426 52.152L101.864 57.5152L105.515 55.1264L107.127 49.5917Z" fill="#F97731"/>
<path d="M119.751 53.7871C119.751 53.7871 116.656 53.2803 115.297 56.6264C113.939 59.9726 110.819 58.7835 110.819 58.7835L111.957 61.9359C111.957 61.9359 115.274 62.6662 116.628 58.8801C117.774 55.6743 120.892 56.1776 120.892 56.1776L119.751 53.7871Z" fill="#00ACFD"/>
<path d="M113.242 80.1715C112.101 81.9377 110.006 82.9114 107.917 83.0381C107.25 83.0785 106.564 82.9938 105.9 82.8064C104.327 84.2724 101.906 84.8203 99.6647 84.1983C97.9718 83.7287 96.5043 82.7101 95.5168 81.2668C94.3386 79.5448 94.0935 77.8087 94.2575 75.7776C94.37 74.3826 96.5414 74.7709 96.4298 76.1532C96.2975 77.7936 96.5678 79.1426 97.6271 80.454C98.4967 81.5306 99.7874 82.11 101.142 82.2884C102.068 82.4102 102.986 82.2313 103.736 81.7541C102.119 80.5744 101.102 78.7008 101.702 76.6075C102.173 74.9632 103.878 73.5931 105.661 74.4218C107.402 75.2308 107.739 77.6749 107.581 79.3531C107.53 79.9017 107.403 80.4102 107.218 80.8788C107.281 80.8823 107.344 80.8856 107.406 80.8855C108.808 80.8834 110.348 80.3679 111.218 79.2418C112.101 78.1007 112.035 76.6566 111.446 75.3952C110.849 74.1167 112.914 73.3729 113.505 74.6395C114.333 76.4122 114.31 78.5175 113.242 80.1715ZM104.039 78.99C104.283 79.436 104.662 79.8229 105.107 80.1298C105.273 79.7634 105.384 79.3725 105.409 78.9775C105.448 78.3461 105.409 77.1785 105.009 76.646C104.495 75.9619 103.938 76.6983 103.801 77.247C103.668 77.7811 103.77 78.4989 104.039 78.99Z" fill="#F97731"/>
<path d="M110.135 37.5197C110.135 37.5197 108.713 34.2752 111.025 31.9865L107.537 31.1054C107.537 31.1054 105.343 33.5776 106.561 36.7343L110.135 37.5197Z" fill="#00ACFD"/>
<path d="M88.6821 46.1898C88.4021 45.2017 87.741 44.486 86.6959 44.5577C85.6646 44.6285 84.554 45.4395 83.7688 46.3946C83.7339 46.4369 83.7002 46.4815 83.6667 46.5261C83.9967 46.6175 84.3132 46.7676 84.6072 46.9873C85.5064 47.6593 86.4988 49.0254 85.9158 50.5889C85.3187 52.1903 83.7028 52.7168 82.6444 52.2741C81.297 51.7107 80.9609 50.146 81.2952 48.4951C80.6449 48.7851 80.0449 49.3282 79.5861 50.0161C78.9143 51.0235 78.4721 52.1733 78.5057 53.2667C78.5468 54.5988 79.0473 55.4101 79.9143 56.0821C80.6448 56.6484 79.6176 58.3102 78.8803 57.7387C77.8071 56.9068 77.1053 55.9327 76.9322 54.3287C76.7871 52.9843 77.1161 51.51 77.8363 50.1366C78.7898 48.3185 80.4092 46.9211 81.9978 46.5295C82.2785 45.9898 82.6211 45.4824 83.0146 45.0455C84.2446 43.6792 85.8869 42.7027 87.3788 42.7451C88.7759 42.7849 89.806 43.7474 90.1995 45.1358C90.4806 46.1282 88.9658 47.1913 88.6821 46.1898ZM82.8473 48.3146C82.7465 48.7608 82.7215 49.199 82.8005 49.5727C82.8876 49.9841 83.1774 50.3872 83.5097 50.5447C83.8514 50.7066 84.519 50.6684 84.476 50.0001C84.4426 49.4797 83.9001 48.9106 83.5729 48.6439C83.3685 48.4774 83.1173 48.3717 82.8473 48.3146Z" fill="#7531F9"/>
<path d="M115.294 47.8523C115.689 46.948 116.362 46.4006 117.338 46.1877C118.028 46.0373 118.397 45.2058 118.201 44.5799C117.978 43.8702 117.259 43.578 116.567 43.7291C114.99 44.073 113.621 45.1889 112.983 46.649C112.705 47.2865 112.87 48.0444 113.529 48.3875C114.115 48.6927 115.014 48.493 115.294 47.8523Z" fill="#FFCD00"/>
<path d="M128.886 61.3643C128.886 61.3643 126.277 63.9056 123.244 62.5171L123.653 66.1838C123.653 66.1838 126.82 67.3923 129.417 65.0787L128.886 61.3643Z" fill="#7531F9"/>
<path d="M92.349 33.9565C92.349 33.9565 92.061 38.0431 88.4257 39.0931L91.5591 41.9178C91.5591 41.9178 95.1718 40.6158 95.6235 36.7315L92.349 33.9565Z" fill="#E84C3D"/>
<path d="M127.015 44.7035C127.015 44.7035 127.624 41.2337 130.827 40.649L128.398 37.9637C128.398 37.9637 125.193 38.766 124.461 42.0487L127.015 44.7035Z" fill="#E84C3D"/>
</svg>
