<svg width="288" height="248" viewBox="0 0 288 248" fill="none" xmlns="http://www.w3.org/2000/svg">
<g opacity="0.5">
<path d="M96.1519 7.65342C111.054 -0.261442 130.065 -1.62579 146.612 1.67823C168.354 6.01922 179.147 5.60484 200.889 9.94583C213.704 12.5047 224.938 28.972 236.752 34.5616C250.946 41.2779 253.847 47.3517 261.925 60.8171C264.519 65.141 274.227 78.5201 274.81 83.5282C275.801 92.0375 273.742 96.7895 274.759 105.296C275.921 115.015 276.897 121 278.073 130.717C279.778 144.794 271.386 152.113 272.064 166.275C272.355 172.33 268.367 180.315 267.74 186.345C267.271 190.859 249.779 202.399 247.171 206.113C235.619 222.557 236.308 226.295 217.991 234.56C210.199 238.075 207.503 245.234 199.063 246.583C191.714 247.757 184.208 247.222 176.796 246.548C162.11 245.212 153.116 249.673 138.565 247.282C126.216 245.253 110.307 246.627 97.8094 247.275C91.9767 247.577 82.1331 245.453 76.4182 244.247C71.3704 243.182 57.7036 237.369 53.275 234.722C43.7615 229.038 34.046 218.986 29.8872 208.714C28.5181 205.331 28.1222 190.477 18.2204 176.445C9.15693 163.601 10.8576 163.76 7.60697 135.968C5.78099 120.354 9.39939 100.328 18.4581 87.4794C24.4901 78.9235 26.7647 70.9723 28.0023 60.5767C28.4646 56.6912 27.7058 52.7207 28.3235 48.8565C30.1338 37.541 42.33 31.4959 52.9852 27.2776C63.5781 23.0838 73.9087 18.1559 84.7632 14.6964C92.9451 12.0903 90.0041 10.9184 96.1519 7.65342ZM22.6278 56.8261C21.9237 52.4783 14.8828 52.6646 14.028 56.8261C13.7322 58.2672 12.426 59.8356 11.7267 61.1767C10.8131 62.9287 9.85006 64.6492 8.82817 66.3396C6.87411 69.5731 4.7817 72.6668 3.27831 76.1489C2.20779 78.6276 2.17697 81.346 4.21116 83.3809C5.91728 85.087 9.38021 85.9041 11.4432 84.3138C15.6472 81.0721 19.2902 77.2722 21.4963 72.3654C22.6401 69.8217 23.4346 67.4936 23.747 64.7184C24.0826 61.7301 23.0874 59.6637 22.6278 56.8261ZM56.9632 17.3792C56.9468 20.2305 54.9098 21.7106 52.4387 22.577C50.6504 23.2037 48.8175 23.1544 46.9785 22.838C45.1841 22.5291 44.4546 19.7716 45.8642 18.6182C47.1621 17.5559 48.145 16.682 49.3627 15.7964C49.4655 15.7217 49.9237 15.408 49.8333 15.4779C50.5401 14.9608 50.8935 14.6245 51.7921 14.3416C52.7681 14.0348 53.666 14.0861 54.6516 14.345C55.981 14.693 56.9714 16.0121 56.9632 17.3792ZM69.1684 13.3471C68.8745 13.7642 68.5903 14.2553 68.2376 14.6176C67.6328 15.2402 66.841 15.5005 66.0315 15.7183C64.5404 16.1196 63.1048 15.2217 62.6432 13.7944C62.4288 13.1327 62.5754 12.2622 62.9206 11.6718C63.2377 11.13 63.924 10.5184 64.5665 10.4061C65.437 10.2534 66.2342 10.1184 67.1095 10.3486C67.6259 10.4842 68.1177 10.8362 68.5787 11.1026C69.2971 11.5184 69.678 12.6245 69.1684 13.3471ZM5.4036 175.054C3.18037 174.063 1.79068 171.111 1.05097 168.905C0.35647 166.834 0.0626442 164.598 0.00168685 162.421C-0.127762 157.808 7.23368 156.728 8.11654 161.322C8.41105 162.853 8.85214 164.26 9.5528 165.645C10.5261 167.57 11.6308 169.16 11.8336 171.363C12.1623 174.932 8.0412 176.229 5.4036 175.054ZM17.667 182.612C17.6697 183.114 17.5601 183.586 17.33 184.024C16.9917 184.826 16.4793 185.465 15.7122 185.912C14.3335 186.715 12.5904 186.569 11.3377 185.601C10.5411 184.985 9.83157 184.175 9.59185 183.161C9.46308 182.615 9.39048 182.047 9.36993 181.485C9.32884 180.381 9.85416 179.355 10.5802 178.564C11.3247 177.752 12.4329 177.402 13.5013 177.354C14.5308 177.308 15.7061 177.847 16.4225 178.564C17.1273 179.269 17.5005 180.209 17.5964 181.186C17.6505 181.479 17.7005 181.774 17.7067 182.063C17.7115 182.24 17.6923 182.426 17.667 182.612ZM285.374 121.521C285.135 123.75 282.307 124.17 281.509 122.044C279.746 117.342 279.276 112.307 278.179 107.418C277.707 105.31 280.888 103.72 281.835 105.877C284.028 110.866 285.966 116.001 285.374 121.521ZM282.51 140.293C282.516 140.303 282.519 140.314 282.524 140.323C282.511 140.301 282.508 140.294 282.51 140.293ZM287.4 138.536C287.352 139.688 286.786 140.586 286 141.385C285.08 142.319 283.764 141.95 283.064 141.007C283.331 141.366 282.53 140.286 282.51 140.293C282.301 139.942 282.159 139.529 282.057 139.134C281.942 138.684 281.937 138.232 281.905 137.774C281.896 137.644 281.883 137.514 281.87 137.384C281.864 137.343 281.856 137.295 281.845 137.226C281.596 135.754 282.217 134.439 283.7 133.959C285.07 133.516 286.591 134.477 286.967 135.814C287.209 136.681 287.438 137.638 287.4 138.536ZM266.175 198.197C262.203 203.626 258.345 208.271 252.653 211.956C251.163 212.921 249.307 211.012 250.23 209.534C253.857 203.723 258.589 199.971 264.335 196.357C265.421 195.675 266.984 197.09 266.175 198.197ZM233.53 25.3043C229.481 25.618 226.36 22.6839 223.826 19.8956C221.158 16.96 218.87 13.6813 216.958 10.2109C214.913 6.49729 220.203 3.54531 222.564 6.93426C224.594 9.84788 226.955 12.4314 229.59 14.8073C232.095 17.0662 234.785 18.9333 235.807 22.316C236.28 23.8818 235.006 25.1899 233.53 25.3043ZM245.083 33.0973C244.342 32.3733 243.636 31.6247 242.899 30.8953C242.883 30.8795 242.605 30.6213 242.551 30.5617C242.278 30.3515 241.983 30.1652 241.74 29.9165C241.387 29.5563 241.124 29.1371 240.954 28.6816C240.951 28.6768 240.948 28.6727 240.946 28.6679C240.443 27.7967 240.696 26.4509 241.652 25.9762C241.295 26.2735 241.389 26.2057 241.936 25.7714C242.178 25.6228 242.437 25.529 242.713 25.4906C243.303 25.342 243.87 25.3427 244.462 25.4776C245.191 25.6427 245.915 25.9845 246.57 26.3475C248.166 27.231 249.24 28.6618 249.687 30.4172C250.365 33.0829 247.064 35.0328 245.083 33.0973ZM259.637 45.2593C258.651 46.0209 257.373 46.073 256.286 45.4949C254.687 44.6449 253.401 43.3251 252.2 41.995C250.836 40.4834 250.81 38.3622 252.2 36.8479C253.455 35.4808 256.111 35.3904 257.347 36.8479C258.033 37.6561 258.813 38.4554 259.373 39.354C259.913 40.2204 260.361 41.132 260.717 42.0881C261.135 43.2107 260.522 44.5751 259.637 45.2593Z" fill="#658FE3"/>
</g>
<path d="M230.794 175.203L70.5085 196.758C65.3078 197.457 60.5246 193.808 59.8252 188.607L238.944 164.52C239.644 169.721 235.994 174.504 230.794 175.203Z" fill="#002982"/>
<path d="M221.261 72.4709L232.405 155.335C233.405 162.771 228.187 169.612 220.75 170.612L78.9685 189.678C71.5354 190.678 64.6991 185.462 63.6995 178.029L52.5551 95.1583C51.5555 87.7252 56.7711 80.8888 64.2042 79.8893L205.993 60.8217C213.425 59.8222 220.262 65.0378 221.261 72.4709Z" fill="#002982"/>
<path d="M218.921 167.212L79.8434 185.915C74.6985 186.607 69.9668 182.997 69.2749 177.852L57.9793 93.8567C57.2875 88.7119 60.8974 83.9801 66.0423 83.2882L205.119 64.5853C210.264 63.8934 214.996 67.5034 215.688 72.6483L226.984 156.643C227.676 161.789 224.065 166.52 218.921 167.212Z" fill="#507EDD"/>
<path d="M215.31 69.8416L226.983 156.647C227.394 159.703 226.285 162.606 224.25 164.618C225.197 162.907 225.619 160.888 225.339 158.802L213.665 71.997C213.182 68.401 209.875 65.8783 206.279 66.3619L64.3977 85.442C62.3119 85.7225 60.477 86.6701 59.0768 88.0357C60.4785 85.5345 62.9857 83.6976 66.0421 83.2866L207.924 64.2065C211.52 63.7236 214.826 66.2462 215.31 69.8416Z" fill="#3B6DD7"/>
<g opacity="0.78">
<path d="M235.489 164.987C221.273 167.305 207.039 169.492 192.788 171.549C185.669 172.604 178.533 173.578 171.409 174.599L150.014 177.525L128.599 180.349C121.46 181.253 114.319 182.193 107.174 183.055C92.8856 184.836 78.5805 186.494 64.2568 188.014L235.489 164.987Z" fill="#7A9FE8"/>
</g>
<g opacity="0.2">
<path d="M190.722 76.885L80.9376 91.6486C77.9033 92.0567 75.7802 94.8476 76.1882 97.882L86.076 171.409C86.4841 174.443 89.2675 176.567 92.3025 176.159L202.087 161.396C205.114 160.989 207.245 158.204 206.837 155.169L196.949 81.6422C196.54 78.6072 193.749 76.4779 190.722 76.885Z" fill="#A5BFF1"/>
<path d="M84.0288 99.4982C84.8124 99.3929 85.3621 98.6723 85.2568 97.8887C85.1514 97.1052 84.4308 96.5554 83.6473 96.6608C82.8637 96.7661 82.3139 97.4868 82.4193 98.2703C82.5247 99.0538 83.2453 99.6036 84.0288 99.4982Z" fill="black"/>
<path d="M90.7281 98.5979C91.5116 98.4925 92.0614 97.7719 91.956 96.9883C91.8506 96.2048 91.13 95.655 90.3465 95.7604C89.5629 95.8658 89.0132 96.5864 89.1185 97.3699C89.2239 98.1535 89.9445 98.7032 90.7281 98.5979Z" fill="black"/>
<path d="M97.4282 97.6975C98.2118 97.5921 98.7616 96.8715 98.6562 96.0879C98.5508 95.3044 97.8302 94.7546 97.0467 94.86C96.2631 94.9654 95.7133 95.686 95.8187 96.4695C95.9241 97.2531 96.6447 97.8028 97.4282 97.6975Z" fill="black"/>
</g>
<path d="M198.887 79.0974L208.775 152.624C209.183 155.659 207.052 158.444 204.024 158.851L94.241 173.614C91.2059 174.023 88.4227 171.899 88.0145 168.864L78.1267 95.3371C77.7186 92.3027 79.841 89.5119 82.8761 89.1037L192.66 74.3401C195.688 73.9329 198.479 76.063 198.887 79.0974Z" fill="white"/>
<path d="M198.887 79.0974L199.95 87.0033L79.1899 103.243L78.1267 95.3371C77.7186 92.3027 79.841 89.5119 82.8761 89.1037L192.66 74.3401C195.688 73.9329 198.479 76.063 198.887 79.0974Z" fill="#265BD1"/>
<path d="M85.9644 96.9533C86.7479 96.8479 87.2977 96.1273 87.1923 95.3438C87.087 94.5602 86.3663 94.0105 85.5828 94.1159C84.7993 94.2212 84.2495 94.9418 84.3548 95.7254C84.4602 96.5089 85.1808 97.0587 85.9644 96.9533Z" fill="white"/>
<path d="M92.6636 96.0529C93.4471 95.9475 93.9969 95.2269 93.8915 94.4434C93.7862 93.6598 93.0656 93.1101 92.282 93.2155C91.4985 93.3208 90.9487 94.0414 91.0541 94.825C91.1594 95.6085 91.8801 96.1583 92.6636 96.0529Z" fill="white"/>
<path d="M99.3648 95.1525C100.148 95.0472 100.698 94.3265 100.593 93.543C100.487 92.7595 99.7667 92.2097 98.9832 92.3151C98.1996 92.4204 97.6499 93.141 97.7552 93.9246C97.8606 94.7081 98.5812 95.2579 99.3648 95.1525Z" fill="white"/>
<path d="M127.441 135.182L126.706 129.714L116.436 131.095L116.005 127.894L124.849 111.87L128.484 111.381L130.353 125.285L134.054 124.788L134.575 128.656L130.874 129.153L131.609 134.622L127.441 135.182ZM119.343 128.226L119.083 126.801L126.185 125.846L124.867 116.043L125.51 116.534L119.343 128.226ZM144.972 133.13C143.527 133.324 142.281 133.232 141.235 132.852C140.188 132.472 139.308 131.9 138.594 131.136C137.877 130.35 137.293 129.456 136.841 128.453C136.412 127.447 136.067 126.396 135.806 125.299C135.545 124.203 135.349 123.165 135.218 122.187C135.089 121.231 134.998 120.214 134.943 119.135C134.908 118.031 134.964 116.937 135.113 115.853C135.284 114.767 135.612 113.761 136.099 112.835C136.585 111.91 137.272 111.127 138.159 110.488C139.069 109.845 140.257 109.425 141.724 109.227C143.169 109.033 144.403 109.127 145.428 109.51C146.472 109.868 147.351 110.428 148.064 111.192C148.778 111.956 149.35 112.841 149.779 113.847C150.231 114.85 150.586 115.889 150.843 116.963C151.098 118.015 151.291 119.03 151.423 120.008C151.56 121.031 151.648 122.105 151.686 123.231C151.725 124.358 151.658 125.464 151.488 126.551C151.317 127.637 150.988 128.643 150.502 129.569C150.015 130.494 149.328 131.277 148.441 131.917C147.551 132.534 146.395 132.939 144.972 133.13ZM144.439 129.162C145.483 129.022 146.236 128.558 146.696 127.772C147.153 126.964 147.401 125.946 147.439 124.719C147.478 123.492 147.4 122.156 147.206 120.711C147.006 119.222 146.714 117.892 146.33 116.721C145.965 115.525 145.458 114.609 144.806 113.973C144.155 113.336 143.307 113.088 142.262 113.229C141.439 113.339 140.801 113.64 140.347 114.131C139.892 114.622 139.581 115.253 139.413 116.022C139.267 116.788 139.204 117.668 139.224 118.661C139.264 119.629 139.357 120.657 139.504 121.747C139.644 122.791 139.823 123.786 140.041 124.73C140.28 125.67 140.583 126.49 140.948 127.187C141.314 127.885 141.782 128.422 142.353 128.798C142.921 129.151 143.616 129.273 144.439 129.162ZM164.757 130.164L164.021 124.696L153.752 126.077L153.321 122.876L162.165 106.852L165.799 106.363L167.669 120.267L171.37 119.77L171.89 123.637L168.189 124.135L168.925 129.603L164.757 130.164ZM156.659 123.208L156.399 121.783L163.501 120.828L162.183 111.025L162.826 111.516L156.659 123.208Z" fill="#265BD1"/>
<path d="M116.255 158.654L114.248 143.729L124.076 142.407L124.304 144.099L116.359 145.167L117.002 149.943L124.218 148.972L124.445 150.664L117.229 151.634L117.912 156.709L125.856 155.641L126.083 157.333L116.255 158.654ZM128.781 156.97L126.774 142.045L131.228 141.446C132.37 141.292 133.328 141.338 134.102 141.582C134.874 141.813 135.481 142.218 135.922 142.798C136.364 143.378 136.643 144.104 136.76 144.975C136.927 146.217 136.703 147.25 136.087 148.074C135.469 148.883 134.491 149.444 133.152 149.755C132.939 149.798 132.683 149.839 132.384 149.88C132.084 149.92 131.791 149.959 131.506 149.998L129.793 150.228L130.665 156.716L128.781 156.97ZM137.132 155.847L132.352 149.644L134.247 149.149L139.295 155.556L137.132 155.847ZM129.568 148.558L131.945 148.238C132.602 148.15 133.161 147.988 133.623 147.751C134.086 147.514 134.428 147.192 134.649 146.785C134.884 146.375 134.961 145.863 134.878 145.249C134.794 144.621 134.585 144.148 134.251 143.83C133.93 143.495 133.509 143.283 132.989 143.193C132.48 143.087 131.905 143.077 131.262 143.163L128.885 143.483L129.568 148.558ZM141.453 155.266L139.446 140.34L143.9 139.742C145.042 139.588 146 139.633 146.774 139.878C147.547 140.109 148.153 140.514 148.595 141.094C149.036 141.674 149.315 142.4 149.432 143.27C149.599 144.512 149.375 145.545 148.759 146.37C148.141 147.179 147.163 147.74 145.824 148.05C145.612 148.094 145.356 148.135 145.056 148.176C144.756 148.216 144.464 148.255 144.178 148.294L142.465 148.524L143.338 155.012L141.453 155.266ZM149.804 154.143L145.024 147.94L146.92 147.445L151.967 153.852L149.804 154.143ZM142.24 146.854L144.617 146.534C145.274 146.446 145.834 146.283 146.296 146.047C146.758 145.81 147.1 145.488 147.321 145.08C147.557 144.671 147.633 144.159 147.551 143.545C147.466 142.917 147.257 142.444 146.924 142.125C146.603 141.791 146.182 141.578 145.661 141.489C145.153 141.383 144.577 141.373 143.935 141.459L141.558 141.779L142.24 146.854ZM160.225 153.003C158.855 153.187 157.605 153.028 156.477 152.526C155.363 152.022 154.435 151.231 153.694 150.153C152.968 149.074 152.501 147.763 152.293 146.221C152.084 144.665 152.187 143.271 152.603 142.037C153.033 140.802 153.718 139.795 154.66 139.014C155.615 138.231 156.779 137.748 158.149 137.564C159.548 137.376 160.812 137.533 161.94 138.035C163.069 138.537 163.996 139.328 164.723 140.408C165.464 141.485 165.939 142.802 166.148 144.358C166.355 145.9 166.244 147.288 165.814 148.523C165.384 149.758 164.692 150.767 163.736 151.55C162.78 152.332 161.61 152.817 160.225 153.003ZM159.983 151.204C161.025 151.064 161.885 150.701 162.562 150.116C163.253 149.529 163.747 148.765 164.042 147.824C164.337 146.884 164.403 145.814 164.242 144.614C164.079 143.401 163.731 142.38 163.198 141.55C162.665 140.721 161.987 140.114 161.165 139.731C160.358 139.345 159.433 139.222 158.391 139.362C157.377 139.499 156.525 139.86 155.834 140.448C155.14 141.02 154.646 141.777 154.351 142.718C154.07 143.657 154.013 144.74 154.178 145.968C154.341 147.181 154.682 148.204 155.201 149.035C155.734 149.864 156.411 150.471 157.233 150.855C158.053 151.224 158.97 151.34 159.983 151.204ZM169.935 151.436L167.928 136.51L172.382 135.911C173.524 135.758 174.482 135.803 175.256 136.048C176.028 136.278 176.635 136.684 177.076 137.264C177.518 137.844 177.797 138.569 177.914 139.44C178.081 140.682 177.857 141.715 177.241 142.539C176.623 143.349 175.645 143.909 174.306 144.22C174.094 144.263 173.838 144.305 173.538 144.345C173.238 144.386 172.945 144.425 172.66 144.463L170.947 144.694L171.819 151.182L169.935 151.436ZM178.286 150.312L173.506 144.11L175.402 143.615L180.449 150.022L178.286 150.312ZM170.722 143.024L173.099 142.704C173.756 142.616 174.315 142.453 174.777 142.217C175.24 141.98 175.582 141.658 175.803 141.25C176.039 140.841 176.115 140.329 176.033 139.715C175.948 139.087 175.739 138.614 175.406 138.295C175.084 137.96 174.663 137.748 174.143 137.658C173.634 137.552 173.059 137.543 172.416 137.629L170.04 137.949L170.722 143.024Z" fill="#265BD1"/>
</svg>
