<svg width="30" height="30" viewBox="0 0 30 30" fill="none" xmlns="http://www.w3.org/2000/svg">
<rect width="30" height="30" rx="5" fill="#212121"/>
<path d="M14.9984 15.0049C14.9984 13.3481 16.3415 12.0049 17.9984 12.0049C19.6552 12.0049 20.9984 13.3481 20.9984 15.0049C20.9984 16.6618 19.6552 18.0049 17.9984 18.0049C16.3415 18.0049 14.9984 16.6618 14.9984 15.0049Z" fill="#1ABCFE"/>
<path d="M9 21C9 19.3432 10.3431 18 12 18H15V21C15 22.6569 13.6569 24 12 24C10.3431 24 9 22.6569 9 21Z" fill="#0ACF83"/>
<path d="M14.9984 6.00488V12.0049H17.9984C19.6553 12.0049 20.9984 10.6617 20.9984 9.00488C20.9984 7.34803 19.6553 6.00488 17.9984 6.00488H14.9984Z" fill="#FF7262"/>
<path d="M9 9C9 10.6569 10.3431 12 12 12H15V6H12C10.3431 6 9 7.34314 9 9Z" fill="#F24E1E"/>
<path d="M9 15.0049C9 16.6618 10.3431 18.0049 12 18.0049H15V12.0049H12C10.3431 12.0049 9 13.3481 9 15.0049Z" fill="#A259FF"/>
</svg>
