<svg width="60" height="60" viewBox="0 0 60 60" fill="none" xmlns="http://www.w3.org/2000/svg">
<rect width="60" height="60" rx="12" fill="#0D1218"/>
<path d="M14.4283 42.5111C14.4283 45.104 16.5303 47.2061 19.1233 47.2061H29.6621C32.2551 47.2061 34.3571 45.104 34.3571 42.5111V24.6253C34.3571 22.8967 32.9558 21.4953 31.2271 21.4953H15.9355H12C13.4248 21.8404 14.4283 23.116 14.4283 24.582V42.5111Z" fill="#6087DC"/>
<path d="M20.8307 17.695C20.8307 15.102 22.9327 13 25.5257 13H42.7407C45.3336 13 47.4357 15.102 47.4357 17.695V44.0764C47.4357 45.8051 46.0343 47.2064 44.3057 47.2064H22.8428H17.5889C19.4907 46.7474 20.8307 45.0455 20.8307 43.089V17.695Z" fill="#FFFAFF"/>
<rect x="24" y="23" width="16" height="5" rx="1.565" fill="#87A5E5"/>
<rect x="24" y="17" width="11.4021" height="4.47143" rx="1.565" fill="#6087DC"/>
</svg>
