<svg width="57" height="57" viewBox="0 0 57 57" fill="none" xmlns="http://www.w3.org/2000/svg">
<rect y="9.94371" width="48" height="48" rx="6.14286" transform="rotate(-11.956 0 9.94371)" fill="#D1DFF9"/>
<rect x="12.8689" y="18.2074" width="25.935" height="26.7209" rx="2.35765" transform="rotate(-11.956 12.8689 18.2074)" fill="#6087DC"/>
<path d="M26.1372 42.1326L31.2209 36.0796L26.8112 15.2552" stroke="#577BC8" stroke-width="1.81153"/>
<path d="M17.8127 42.0107C18.089 43.3071 19.3635 44.1346 20.6603 43.8595L25.9082 42.7464C26.5181 42.617 27.0538 42.2555 27.402 41.7383L30.5209 37.1061C30.884 36.5668 31.0129 35.9033 30.8782 35.2672L26.6483 15.2914L15.097 17.7531C13.7997 18.0296 12.9722 19.3054 13.2488 20.6028L17.8127 42.0107Z" fill="white"/>
<path d="M26.931 42.8343C27.2199 42.7031 27.4468 42.511 27.6134 42.2588C28.7988 40.4637 29.966 38.6582 31.1162 36.8419C31.3338 36.4992 31.2963 36.2468 31.2046 35.7704L30.8545 34.1279C30.8538 34.1248 30.8501 34.1234 30.8468 34.1241C30.845 34.1156 30.8675 34.1197 30.8468 34.1241L31.1363 35.783C31.128 35.8531 31.0961 35.8953 31.069 35.9011L25.7937 37.0253C25.7633 37.0318 25.7435 37.0615 25.749 37.0924L26.931 42.8343Z" fill="#3A60B0"/>
<path d="M39.0641 16.8285L33.4149 18.0247C33.1091 18.0895 32.9136 18.3899 32.9784 18.6958C33.0431 19.0017 33.3436 19.1972 33.6495 19.1324L39.2986 17.9362L39.0641 16.8285Z" fill="#87A5E5"/>
<path d="M39.7678 20.1507L35.8909 20.9717C35.5851 21.0365 35.3896 21.3369 35.4544 21.6428C35.5192 21.9487 35.8196 22.1441 36.1255 22.0794L40.0024 21.2584L39.7678 20.1507Z" fill="#87A5E5"/>
<path d="M41.9255 30.3402L38.0487 31.1611C37.7428 31.2259 37.5473 31.5264 37.6121 31.8323C37.6769 32.1381 37.9773 32.3336 38.2832 32.2688L42.1601 31.4479L41.9255 30.3402Z" fill="#87A5E5"/>
<path d="M40.4714 23.475L36.5946 24.2959C36.2887 24.3607 36.0932 24.6611 36.158 24.967C36.2228 25.2729 36.5232 25.4683 36.8291 25.4036L40.706 24.5826L40.4714 23.475Z" fill="#87A5E5"/>
<path d="M41.1749 26.7953L35.5258 27.9915C35.2199 28.0563 35.0244 28.3567 35.0892 28.6626C35.154 28.9685 35.4544 29.164 35.7603 29.0992L41.4095 27.9029L41.1749 26.7953Z" fill="#87A5E5"/>
<path d="M42.6292 33.6644L38.7523 34.4854C38.4464 34.5501 38.2509 34.8506 38.3157 35.1565C38.3805 35.4623 38.681 35.6578 38.9868 35.593L42.8637 34.7721L42.6292 33.6644Z" fill="#87A5E5"/>
<path d="M17.628 29.7531L16.4766 28.2278C16.1885 27.867 16.2781 27.3772 16.6392 27.0891C17.0003 26.801 17.4903 26.8905 17.7784 27.2514L17.9338 27.4801C18.5857 26.166 19.8159 25.1451 21.3246 24.7931C23.4523 24.2966 25.6636 25.2075 26.7517 27.0737C26.9818 27.448 26.8535 27.9469 26.4743 28.1576C26.3867 28.2189 26.3286 28.2324 26.2319 28.255C25.8838 28.3362 25.544 28.1913 25.3513 27.8897C24.5906 26.6402 23.1123 25.9863 21.6617 26.3248C20.211 26.6633 19.1465 27.8698 19.0457 29.3611C19.0212 29.6929 18.7852 29.9926 18.437 30.0739C18.1901 30.1519 17.8207 30.0546 17.628 29.7531ZM28.443 31.0006L27.2917 29.4754C27.0841 29.1977 26.7296 29.0766 26.4291 29.1874C26.1287 29.2983 25.8791 29.54 25.8204 29.9003C25.6913 31.3573 24.6551 32.598 23.2045 32.9365C21.7538 33.275 20.2652 32.6643 19.5149 31.3716C19.2848 30.9972 18.8096 30.8839 18.4112 31.0992C18.032 31.3099 17.9037 31.8088 18.1338 32.1831C19.2606 34.0402 21.4332 34.9602 23.5609 34.4637C25.0695 34.1117 26.2998 33.0908 26.9666 31.7528L27.1219 31.9816C27.4101 32.3424 27.891 32.3933 28.2611 32.1439C28.6312 31.8944 28.7119 31.366 28.443 31.0006Z" fill="#3A60B0"/>
</svg>
