<svg width="59" height="59" viewBox="0 0 59 59" fill="none" xmlns="http://www.w3.org/2000/svg">
<rect x="12.3602" width="48" height="48" rx="6.14286" transform="rotate(14.922 12.3602 0)" fill="#D1DFF9"/>
<path d="M27.1098 14.6639L20.4926 13.3192C19.944 13.2079 19.408 13.5622 19.2955 14.1108L15.6304 31.988C15.4962 32.6429 15.6731 33.3222 16.1096 33.8275L18.5925 36.7024C18.8861 37.0422 19.4001 37.0793 19.7406 36.7853L23.3775 33.9402C23.7384 33.6285 23.9862 33.2063 24.0817 32.7395L27.8995 15.8592C28.0119 15.3107 27.6584 14.7755 27.1098 14.6639Z" fill="white"/>
<path d="M36.7747 19.936L31.4898 15.7331C31.0515 15.3847 30.4131 15.4571 30.0638 15.8948L18.6804 30.1582C18.2634 30.6806 18.1126 31.3662 18.2719 32.0146L19.1787 35.7035C19.2859 36.1396 19.727 36.4061 20.1639 36.2987L24.6962 35.4154C25.1592 35.3016 25.5717 35.0379 25.8688 34.6654L36.9355 21.3595C37.2848 20.9219 37.2129 20.2845 36.7747 19.936Z" fill="#6087DC"/>
<path d="M42.0877 30.1418L39.4007 23.947C39.1778 23.4334 38.5804 23.197 38.0662 23.4189L21.3117 30.6517C20.698 30.9166 20.2424 31.4507 20.0781 32.0979L19.1432 35.7797C19.0327 36.215 19.2966 36.6576 19.7326 36.7684L24.1477 38.1207C24.6099 38.2381 25.098 38.1994 25.5353 38.0104L41.56 31.4736C42.074 31.2517 42.3104 30.6554 42.0877 30.1418Z" fill="white"/>
<path d="M42.518 40.611L42.7716 33.8634C42.7926 33.304 42.356 32.8326 41.7964 32.8106L23.5614 32.0936C22.8935 32.0673 22.2519 32.3521 21.824 32.8647L19.39 35.7811C19.1022 36.1259 19.1489 36.6391 19.4944 36.9274L22.8916 40.0548C23.2577 40.3603 23.7146 40.5363 24.1907 40.5549L41.4667 41.5842C42.0261 41.6062 42.4969 41.1705 42.518 40.611Z" fill="#6087DC"/>
<path d="M41.7391 47.3295L43.3365 41.3354C43.4689 40.8384 43.1891 40.3324 42.7116 40.2051L16.6049 33.2479C14.5364 32.6967 12.3946 33.9946 11.821 36.1467C11.2475 38.2989 12.4595 40.4905 14.5279 41.0417L40.6346 47.9989C41.1121 48.1262 41.6067 47.8265 41.7391 47.3295ZM13.6242 36.6273C13.937 35.4537 15.1049 34.746 16.2328 35.0465C17.3607 35.3471 18.0216 36.5422 17.7088 37.7158C17.3961 38.8894 16.2281 39.5971 15.1002 39.2965C13.9723 38.9959 13.3115 37.8009 13.6242 36.6273Z" fill="#3A60B0"/>
</svg>
