<svg width="58" height="58" viewBox="0 0 58 58" fill="none" xmlns="http://www.w3.org/2000/svg">
<rect x="11.2915" width="48" height="48" rx="6.14286" transform="rotate(13.6057 11.2915 0)" fill="#D1DFF9"/>
<path d="M18.7679 34.6227C18.7074 34.0384 18.5172 33.4751 18.2112 32.9737C17.9053 32.4724 17.4912 32.0456 16.9994 31.7246L19.5832 21.049C20.1674 20.9885 20.7308 20.7983 21.2321 20.4923C21.7335 20.1863 22.1602 19.7723 22.4812 19.2804L27.819 20.5724L28.4379 18.0153L23.1001 16.7234C23.0332 16.0595 22.799 15.4234 22.4194 14.8746C22.0399 14.3259 21.5274 13.8823 20.9298 13.5853C20.3323 13.2884 19.6692 13.1478 19.0026 13.1768C18.336 13.2057 17.6876 13.4032 17.118 13.7508C16.5484 14.0984 16.0763 14.5847 15.7457 15.1643C15.4152 15.7439 15.237 16.3979 15.2278 17.0651C15.2186 17.7323 15.3788 18.3909 15.6933 18.9794C16.0078 19.5679 16.4664 20.067 17.0262 20.4301L14.4423 31.1058C13.7784 31.1727 13.1424 31.4069 12.5936 31.7864C12.0448 32.166 11.6012 32.6785 11.3043 33.276C11.0073 33.8736 10.8668 34.5366 10.8957 35.2033C10.9246 35.8699 11.1221 36.5183 11.4697 37.0879C11.8173 37.6574 12.3036 38.1296 12.8832 38.4601C13.4629 38.7907 14.1168 38.9689 14.784 38.9781C15.4512 38.9872 16.1098 38.8271 16.6983 38.5126C17.2868 38.1981 17.7859 37.7395 18.1491 37.1797L23.4869 38.4716L24.1057 35.9146L18.7679 34.6227ZM19.4883 15.8492C19.7412 15.9104 19.9702 16.0452 20.1464 16.2366C20.3227 16.428 20.4382 16.6673 20.4785 16.9244C20.5187 17.1814 20.4818 17.4446 20.3724 17.6807C20.2631 17.9167 20.0862 18.1151 19.8641 18.2506C19.642 18.3861 19.3847 18.4528 19.1248 18.4421C18.8648 18.4314 18.6139 18.3438 18.4037 18.1905C18.1935 18.0372 18.0335 17.825 17.9439 17.5808C17.8543 17.3365 17.8391 17.0712 17.9003 16.8183C17.9824 16.4792 18.1958 16.1866 18.4936 16.0049C18.7914 15.8232 19.1492 15.7672 19.4883 15.8492ZM14.5372 36.3055C14.2844 36.2443 14.0553 36.1095 13.8791 35.9181C13.7028 35.7268 13.5873 35.4874 13.5471 35.2304C13.5068 34.9734 13.5437 34.7102 13.6531 34.4741C13.7625 34.238 13.9394 34.0397 14.1614 33.9042C14.3835 33.7686 14.6408 33.702 14.9007 33.7127C15.1607 33.7234 15.4116 33.8109 15.6218 33.9642C15.832 34.1175 15.992 34.3297 16.0816 34.574C16.1712 34.8182 16.1864 35.0836 16.1252 35.3365C16.0431 35.6755 15.8297 35.9681 15.5319 36.1499C15.2341 36.3316 14.8763 36.3876 14.5372 36.3055Z" fill="#6087DC"/>
<path d="M26.5075 17.1578C26.8124 15.8981 28.0807 15.1241 29.3404 15.429L42.1701 18.5341C42.8025 18.6872 43.343 19.096 43.6625 19.663L46.4073 24.534C46.6989 25.0516 46.7834 25.6606 46.6436 26.2381L42.6371 42.7918C42.3322 44.0515 41.0639 44.8255 39.8042 44.5207L23.268 40.5184C22.0083 40.2135 21.2343 38.9452 21.5392 37.6855L26.5075 17.1578Z" fill="white"/>
<path d="M42.7198 18.668L41.2748 24.6384L46.499 25.9028" stroke="#D0D9EC" stroke-width="1.15179"/>
<path d="M43.2876 18.8965C43.5557 19.0291 43.7636 19.2194 43.9126 19.4664C44.9733 21.2242 46.0164 22.9918 47.0432 24.7694C47.2375 25.1048 47.1818 25.4371 47.0926 25.8058L46.7105 27.3845C46.7098 27.3875 46.7062 27.3888 46.7032 27.388L46.6686 27.3797C46.6605 27.3777 46.6559 27.3702 46.6579 27.362L47.0046 25.7339C47.0097 25.7082 46.9943 25.683 46.9689 25.6768L42.0316 24.4818C42.0031 24.4749 41.9854 24.4459 41.9915 24.4162L43.2876 18.8965Z" fill="#3A60B0"/>
<rect x="28.7378" y="20.4141" width="9.68018" height="2.93339" rx="0.791823" transform="rotate(13.6057 28.7378 20.4141)" fill="#87A5E5"/>
<rect x="27.8407" y="24.1211" width="7.04013" height="2.64005" rx="0.791823" transform="rotate(13.6057 27.8407 24.1211)" fill="#3A60B0"/>
</svg>
