<svg width="14" height="14" viewBox="0 0 14 14" fill="none" xmlns="http://www.w3.org/2000/svg">
<path d="M1.04009 8.253V12.25C1.04009 12.7141 1.22273 13.1592 1.54782 13.4874C1.87291 13.8156 2.31383 14 2.77358 14H11.0943C11.322 14 11.5474 13.9547 11.7577 13.8668C11.968 13.7788 12.1591 13.6499 12.3201 13.4874C12.4811 13.3249 12.6088 13.132 12.6959 12.9197C12.783 12.7074 12.8278 12.4798 12.8278 12.25V8.253C13.1363 8.11612 13.3988 7.8918 13.5834 7.60725C13.768 7.3227 13.8669 6.99016 13.8679 6.65V5.25C13.8679 4.78587 13.6853 4.34075 13.3602 4.01256C13.0351 3.68437 12.5942 3.5 12.1344 3.5H11.3717C11.642 3.12864 11.7878 2.67984 11.7877 2.219C11.7877 1.63048 11.5562 1.06607 11.1439 0.64993C10.7317 0.233787 10.1726 0 9.58967 0C9.0528 0.00251506 8.52578 0.145769 8.06024 0.415728C7.5947 0.685687 7.2066 1.07309 6.93396 1.54C6.66132 1.07309 6.27323 0.685687 5.80769 0.415728C5.34215 0.145769 4.81513 0.00251506 4.27825 0C3.69529 0 3.1362 0.233787 2.72399 0.64993C2.31177 1.06607 2.08019 1.63048 2.08019 2.219C2.08015 2.67984 2.22591 3.12864 2.49623 3.5H1.73349C1.27374 3.5 0.83282 3.68437 0.507728 4.01256C0.182635 4.34075 0 4.78587 0 5.25V6.65C0.00105118 6.99016 0.0998897 7.3227 0.284518 7.60725C0.469147 7.8918 0.731625 8.11612 1.04009 8.253ZM2.42689 12.25V8.4H6.24057V12.6H2.77358C2.68163 12.6 2.59345 12.5631 2.52843 12.4975C2.46341 12.4318 2.42689 12.3428 2.42689 12.25ZM7.91858 2.8C7.99391 2.40762 8.20158 2.0537 8.50624 1.79845C8.81091 1.54321 9.19376 1.40241 9.58967 1.4C9.78948 1.40715 9.97965 1.48854 10.1237 1.62855C10.2677 1.76856 10.3554 1.95733 10.37 2.15863C10.3846 2.35994 10.3251 2.5596 10.2028 2.71931C10.0806 2.87902 9.9042 2.98752 9.70755 3.024L7.78684 3.346L7.91858 2.8ZM4.27825 1.4C4.67416 1.40241 5.05701 1.54321 5.36168 1.79845C5.66635 2.0537 5.87401 2.40762 5.94934 2.8L6.06028 3.36L4.16038 3.024C3.96373 2.98752 3.78735 2.87902 3.66508 2.71931C3.54282 2.5596 3.48328 2.35994 3.49789 2.15863C3.5125 1.95733 3.60024 1.76856 3.74426 1.62855C3.88828 1.48854 4.07844 1.40715 4.27825 1.4ZM1.38679 5.25C1.38679 5.15717 1.42332 5.06815 1.48834 5.00251C1.55336 4.93687 1.64154 4.9 1.73349 4.9H12.1344C12.2264 4.9 12.3146 4.93687 12.3796 5.00251C12.4446 5.06815 12.4811 5.15717 12.4811 5.25V6.65C12.4811 6.74283 12.4446 6.83185 12.3796 6.89749C12.3146 6.96313 12.2264 7 12.1344 7C11.9505 7 11.7742 7.07375 11.6441 7.20503C11.5141 7.3363 11.441 7.51435 11.441 7.7V12.25C11.441 12.3428 11.4045 12.4318 11.3395 12.4975C11.2745 12.5631 11.1863 12.6 11.0943 12.6H7.62736V8.4H9.70755C9.89145 8.4 10.0678 8.32625 10.1979 8.19497C10.3279 8.0637 10.4009 7.88565 10.4009 7.7C10.4009 7.51435 10.3279 7.3363 10.1979 7.20503C10.0678 7.07375 9.89145 7 9.70755 7H1.73349C1.64154 7 1.55336 6.96313 1.48834 6.89749C1.42332 6.83185 1.38679 6.74283 1.38679 6.65V5.25Z" fill="#282C32"/>
</svg>
