<svg width="189" height="189" viewBox="0 0 189 189" fill="none" xmlns="http://www.w3.org/2000/svg">
<rect x="0.432129" width="188.219" height="188.219" rx="36" fill="#FF7920"/>
<path d="M137.564 87.536C136.456 85.3602 134.252 84.0039 131.811 84.0039H103.673L106.228 40.8387C106.397 37.9565 104.685 35.3625 101.966 34.3849C99.2481 33.4129 96.2811 34.3228 94.5744 36.6511L52.7663 93.9105C51.3252 95.8828 51.1218 98.4598 52.2294 100.636C53.3371 102.817 55.5412 104.168 57.9826 104.168H85.8209L83.2609 147.734C83.0913 150.61 84.8037 153.204 87.5163 154.182C88.2454 154.442 88.9913 154.572 89.7203 154.572C91.7321 154.572 93.6594 153.628 94.9025 151.921L137.01 94.2654C138.451 92.2987 138.66 89.7161 137.558 87.5404L137.564 87.536Z" fill="white"/>
</svg>
