<svg width="189" height="189" viewBox="0 0 189 189" fill="none" xmlns="http://www.w3.org/2000/svg">
<rect x="0.650879" y="0.0015564" width="188.216" height="188.216" rx="36" fill="#01A04E"/>
<path fill-rule="evenodd" clip-rule="evenodd" d="M125.895 55.0384C126.167 55.6834 126.888 56.0187 127.549 55.7881C130.178 54.8709 132.731 53.8387 135.196 52.6993C136.035 52.3112 136.203 51.2011 135.51 50.5886C131.209 46.7883 126.339 43.615 121.045 41.2135C119.794 40.6461 118.672 42.2179 119.47 43.3359C122.012 46.8986 124.143 50.8918 125.895 55.0384ZM66.6462 55.7881C67.3072 56.0187 68.0281 55.6835 68.3006 55.0387C70.0504 50.8973 72.1788 46.9027 74.7245 43.3326C75.5217 42.2148 74.4006 40.644 73.1502 41.2112C67.8559 43.6129 62.9873 46.7865 58.6862 50.5874C57.9928 51.2002 58.1609 52.3107 59.0009 52.6988C61.4678 53.8384 64.0175 54.8708 66.6462 55.7881ZM135.51 137.577C136.203 136.964 136.036 135.854 135.196 135.466C132.731 134.327 130.178 133.294 127.549 132.377C126.888 132.147 126.167 132.482 125.895 133.127C124.141 137.272 122.007 141.269 119.464 144.834C118.667 145.952 119.788 147.522 121.038 146.955C126.335 144.553 131.208 141.379 135.51 137.577ZM93.9193 59.4342C93.9193 60.1832 93.299 60.7843 92.5509 60.7492C86.6185 60.471 80.9357 59.6535 75.4379 58.3521C74.6521 58.166 74.2266 57.3191 74.5531 56.5805C78.3209 48.0577 84.3592 39.4353 92.3327 36.8342C93.1364 36.572 93.9193 37.2025 93.9193 38.048V59.4342ZM100.282 38.0415C100.282 37.1964 101.064 36.566 101.868 36.8277C109.643 39.36 115.719 47.674 119.649 56.5747C119.975 57.3133 119.55 58.1607 118.764 58.3467C113.266 59.6482 107.583 60.4657 101.651 60.7439C100.902 60.779 100.282 60.1779 100.282 59.4289V38.0415ZM101.868 151.333C101.065 151.595 100.282 150.965 100.282 150.12V128.732C100.282 127.983 100.902 127.382 101.65 127.417C107.597 127.695 113.253 128.509 118.763 129.814C119.549 130.001 119.974 130.848 119.648 131.587C115.713 140.491 109.638 148.801 101.868 151.333ZM133.095 89.6091C133.123 90.3267 133.709 90.8991 134.427 90.8991H153.637C154.397 90.8991 155.003 90.2606 154.944 89.5027C154 77.4183 149.359 66.373 142.143 57.4993C141.752 57.0184 141.077 56.8869 140.524 57.166C137.084 58.9004 133.482 60.4321 129.741 61.7434C129.059 61.9826 128.684 62.7177 128.892 63.4104C131.255 71.2899 132.738 80.1702 133.095 89.6091ZM100.282 89.5737C100.282 90.3057 100.876 90.8991 101.608 90.8991H125.41C126.157 90.8991 126.757 90.2819 126.727 89.5358C126.368 80.724 124.986 72.4704 122.801 65.1858C122.599 64.5094 121.894 64.1235 121.209 64.2937C114.908 65.8592 108.339 66.8224 101.566 67.1179C100.851 67.1491 100.282 67.7348 100.282 68.4508L100.282 89.5737ZM126.727 98.6253C126.757 97.8791 126.157 97.262 125.41 97.262H101.608C100.876 97.262 100.282 97.8554 100.282 98.5873V119.71C100.282 120.425 100.851 121.011 101.566 121.042C108.313 121.338 114.936 122.301 121.208 123.865C121.894 124.036 122.599 123.65 122.802 122.973C124.987 115.693 126.368 107.437 126.727 98.6253ZM154.944 98.6583C155.003 97.9004 154.397 97.262 153.637 97.262H134.427C133.709 97.262 133.123 97.8344 133.095 98.552C132.738 107.991 131.255 116.876 128.896 124.752C128.689 125.445 129.063 126.179 129.745 126.419C133.483 127.731 137.086 129.266 140.529 130.998C141.083 131.276 141.757 131.144 142.147 130.663C149.359 121.789 154 110.743 154.944 98.6583ZM60.9053 82.9143C61.3281 82.7172 61.6139 82.3109 61.6631 81.8471C62.357 75.2926 63.6006 69.0922 65.3034 63.416C65.5112 62.7234 65.1369 61.9879 64.4546 61.7484C60.7167 60.4363 57.1142 58.901 53.671 57.1695C53.1179 56.8914 52.4436 57.0233 52.0531 57.5037C45.0026 66.1774 40.4042 76.9253 39.322 88.6923C39.2423 89.5595 40.0275 90.2446 40.8773 90.0546C48.103 88.4398 54.2926 85.9969 60.9053 82.9143ZM91.5528 90.8817C91.6243 90.8936 91.697 90.8996 91.7694 90.8996H92.5925C93.3245 90.8996 93.9179 90.3062 93.9179 89.5742V68.4521C93.9179 67.7362 93.3491 67.1506 92.6339 67.1193C85.8682 66.8236 79.284 65.8607 72.9903 64.2955C72.3051 64.1251 71.6008 64.5111 71.3977 65.1872C69.8233 70.4285 68.6662 76.1748 68.0091 82.2746C67.9486 82.8355 68.2554 83.3714 68.7687 83.6054C76.1891 86.9884 83.1538 89.482 91.5528 90.8817ZM93.9179 115.31C93.9179 124.091 91.0756 131.36 86.1468 137.076C80.9635 143.081 73.448 147.465 64.4594 150.162C64.2161 150.235 63.9554 150.235 63.7122 150.162C54.7242 147.465 47.2083 143.081 42.0248 137.076C37.096 131.36 34.2537 124.091 34.2537 115.31L34.2489 98.8085C34.2487 98.141 34.7457 97.5784 35.4069 97.486C45.9336 96.0149 54.358 92.98 63.521 88.7147C63.8783 88.5484 64.2927 88.5484 64.65 88.7148C73.8083 92.98 82.2367 96.0149 92.7642 97.486C93.4253 97.5784 93.9224 98.1409 93.9222 98.8085L93.9179 115.31ZM86.191 145.901C85.5592 146.432 85.5236 147.405 86.1693 147.919C88.0509 149.415 90.1087 150.614 92.3292 151.339C93.1318 151.602 93.913 150.972 93.9133 150.127L93.9163 141.705C93.9168 140.391 92.1276 139.82 91.2829 140.826C89.7443 142.657 88.0408 144.348 86.191 145.901ZM73.887 108.415L59.8977 122.404C59.3801 122.921 58.5409 122.921 58.0234 122.404L54.2804 118.661C51.3189 115.699 46.8199 120.198 49.7813 123.16L56.7086 130.087C57.9511 131.33 59.965 131.33 61.2076 130.087L78.3806 112.914C81.342 109.953 76.8431 105.453 73.887 108.415Z" fill="#FCFDFF"/>
</svg>
