<svg width="31" height="15" viewBox="0 0 31 15" fill="none" xmlns="http://www.w3.org/2000/svg">
<path d="M7.08113 0C9.44334 0 11.5336 1.22621 12.8202 3.10915H28.4941L31 7.11085L28.5913 10.9574L26.127 8.34729L23.8045 10.8074L22.2635 9.39645L20.6278 11.1126L18.0171 8.34729L15.4064 11.1126H13.2868C12.082 13.4295 9.7549 15 7.08078 15C3.17007 15 0 11.6419 0 7.5C0.00034523 3.35775 3.17041 0 7.08113 0ZM5.12697 9.211C6.22192 9.211 7.10973 8.27063 7.10973 7.11085C7.10973 5.95108 6.22192 5.01071 5.12697 5.01071C4.03203 5.01071 3.14422 5.95108 3.14422 7.11085C3.14422 8.27063 4.03203 9.211 5.12697 9.211Z" fill="#282C32"/>
</svg>
