<svg width="57" height="57" viewBox="0 0 57 57" fill="none" xmlns="http://www.w3.org/2000/svg">
<rect width="57" height="57" rx="8" fill="#87A5E5" fill-opacity="0.2"/>
<path fill-rule="evenodd" clip-rule="evenodd" d="M28.633 24.2511C27.7819 24.2438 27.5476 23.7147 27.4861 23.0855H29.7799C29.7184 23.7147 29.4841 24.2428 28.633 24.2511ZM39.1978 27.2555C39.3239 27.2836 39.4426 27.3357 39.552 27.4086C39.7843 27.5659 39.9072 27.7805 39.9072 28.0294V40.2172C39.9072 40.5995 39.601 41.0141 39.1468 40.9996L32.1236 40.7693L38.1947 40.1922C38.7979 40.1349 39.2031 39.586 39.2031 39.0026L39.202 27.3636C39.202 27.3272 39.2009 27.2909 39.1978 27.2555ZM28.8549 40.6078L37.0031 38.887C37.3604 38.812 37.6083 38.5047 37.6083 38.1401L37.6094 26.5011C37.6094 26.2625 37.5114 26.0583 37.3271 25.9083C37.1416 25.7583 36.9218 25.7052 36.6885 25.7542L28.855 27.4073L28.8549 40.6078ZM28.4111 27.3136L20.5776 22.3396C20.3453 22.1917 20.1244 22.1511 19.939 22.2229C19.7536 22.2948 19.6567 22.4584 19.6567 22.6959V34.3356C19.6567 34.7002 19.9057 35.1128 20.2619 35.3388L28.4112 40.5139L28.4111 27.3136ZM21.8432 26.5375C21.7401 26.4719 21.7088 26.3344 21.7744 26.2313C21.8401 26.1282 21.9776 26.0969 22.0807 26.1625L26.4464 28.9354C26.5495 29.001 26.5808 29.1385 26.5152 29.2417C26.4495 29.3448 26.312 29.376 26.2089 29.3104L21.8432 26.5375ZM21.8432 33.4732C21.7401 33.4076 21.7088 33.2701 21.7744 33.1669C21.8401 33.0638 21.9776 33.0326 22.0807 33.0982L26.4464 35.8711C26.5495 35.9367 26.5808 36.0742 26.5152 36.1773C26.4495 36.2804 26.312 36.3117 26.2089 36.2461L21.8432 33.4732ZM21.8432 31.1606C21.7401 31.095 21.7088 30.9575 21.7744 30.8544C21.8401 30.7513 21.9776 30.72 22.0807 30.7856L26.4464 33.5585C26.5495 33.6241 26.5808 33.7616 26.5152 33.8647C26.4495 33.9679 26.312 33.9991 26.2089 33.9335L21.8432 31.1606ZM21.8432 28.8491C21.7401 28.7835 21.7088 28.646 21.7744 28.5428C21.8401 28.4397 21.9776 28.4085 22.0807 28.4741L26.4464 31.247C26.5495 31.3126 26.5808 31.4501 26.5152 31.5532C26.4495 31.6563 26.312 31.6876 26.2089 31.622L21.8432 28.8491ZM35.2593 28.9616L30.8925 29.8835C30.7727 29.9085 30.6956 30.0262 30.7206 30.146C30.7456 30.2658 30.8633 30.3429 30.9831 30.3179L35.3489 29.396C35.4686 29.371 35.5457 29.2533 35.5207 29.1335C35.4968 29.0137 35.3791 28.9366 35.2593 28.9616ZM35.2593 35.8962L30.8936 36.8181C30.7738 36.8431 30.6967 36.9608 30.7217 37.0806C30.7467 37.2004 30.8644 37.2775 30.9842 37.2525L35.3499 36.3306C35.4697 36.3056 35.5468 36.1879 35.5218 36.0681C35.4968 35.9483 35.3791 35.8722 35.2593 35.8962ZM35.2593 33.5847L30.8936 34.5065C30.7738 34.5315 30.6967 34.6493 30.7217 34.769C30.7467 34.8888 30.8644 34.9659 30.9842 34.9409L35.3499 34.019C35.4697 33.994 35.5468 33.8763 35.5218 33.7565C35.4968 33.6367 35.3791 33.5596 35.2593 33.5847ZM35.2593 31.2731L30.8936 32.195C30.7738 32.22 30.6967 32.3377 30.7217 32.4575C30.7467 32.5773 30.8644 32.6544 30.9842 32.6294L35.3499 31.7075C35.4697 31.6825 35.5468 31.5648 35.5218 31.445C35.4968 31.3252 35.3791 31.2481 35.2593 31.2731ZM38.0532 26.6002V38.14C38.0532 38.715 37.6574 39.2036 37.0949 39.3213L32.5457 40.2817L38.152 39.7484C38.5155 39.714 38.7572 39.3661 38.7572 39.0015V27.3635C38.7572 27.125 38.6593 26.9208 38.4749 26.7708C38.3488 26.6677 38.2061 26.6104 38.053 26.6L38.0532 26.6002ZM27.4092 40.4038L19.2695 38.736C18.8237 38.6443 18.5091 38.336 18.5091 37.9537V25.7659C18.5091 25.5169 18.632 25.3023 18.8643 25.1451C18.9716 25.0721 19.0893 25.0211 19.2132 24.993V34.3359C19.2132 34.8849 19.5695 35.4255 20.0247 35.7141L27.4092 40.4038ZM26.7248 40.7173L18.1203 40.9996C17.6651 41.0142 17.3599 40.5996 17.3599 40.2173V28.0306C17.3599 27.7816 17.4828 27.567 17.7151 27.4097C17.8224 27.3368 17.9401 27.2858 18.064 27.2576V37.9558C18.064 38.5985 18.5807 39.0506 19.1797 39.1735L26.7248 40.7173ZM28.8551 16.6063C28.8551 16.7292 28.7561 16.8281 28.6332 16.8281C28.5103 16.8281 28.4113 16.7292 28.4113 16.6063V16.2219C28.4113 16.099 28.5103 16 28.6332 16C28.7561 16 28.8551 16.099 28.8551 16.2219V16.6063ZM31.3124 17.8073C31.226 17.8938 31.0853 17.8938 30.9978 17.8073C30.9114 17.7209 30.9114 17.5802 30.9978 17.4927L31.2697 17.2219C31.3562 17.1354 31.4968 17.1354 31.5843 17.2219C31.6708 17.3084 31.6708 17.449 31.5843 17.5365L31.3124 17.8073ZM32.2 20.3949C32.077 20.3949 31.9781 20.2959 31.9781 20.173C31.9781 20.0501 32.077 19.9511 32.2 19.9511H32.5833C32.7062 19.9511 32.8052 20.0501 32.8052 20.173C32.8052 20.2959 32.7062 20.3949 32.5833 20.3949H32.2ZM25.0664 19.9511C25.1893 19.9511 25.2883 20.0501 25.2883 20.173C25.2883 20.2959 25.1893 20.3949 25.0664 20.3949H24.6831C24.5602 20.3949 24.4612 20.2959 24.4612 20.173C24.4612 20.0501 24.5602 19.9511 24.6831 19.9511H25.0664ZM26.2685 17.4938C26.355 17.5802 26.355 17.7209 26.2685 17.8084C26.1821 17.8948 26.0414 17.8948 25.9539 17.8084L25.6821 17.5365C25.5956 17.45 25.5956 17.3094 25.6821 17.2219C25.7685 17.1354 25.9092 17.1354 25.9967 17.2219L26.2685 17.4938ZM27.4592 22.6409C27.3644 21.7356 26.6019 21.5314 26.6019 20.4314C26.6019 19.3095 27.5113 18.4001 28.6332 18.4001C29.7551 18.4001 30.6645 19.3095 30.6645 20.4314C30.6645 21.5325 29.902 21.7356 29.8072 22.6409H28.8551V21.8054C28.8551 21.6825 28.7561 21.5835 28.6332 21.5835C28.5103 21.5835 28.4113 21.6825 28.4113 21.8054V22.6409H27.4592Z" fill="#265BD1"/>
<path fill-rule="evenodd" clip-rule="evenodd" d="M28.3664 24.2511C27.5153 24.2438 27.281 23.7147 27.2195 23.0855H29.5133C29.4518 23.7147 29.2175 24.2428 28.3664 24.2511ZM38.9312 27.2555C39.0573 27.2836 39.176 27.3357 39.2854 27.4086C39.5177 27.5659 39.6406 27.7805 39.6406 28.0294V40.2172C39.6406 40.5995 39.3344 41.0141 38.8802 40.9996L29.0034 41L37.9281 40.1922C38.5313 40.1349 38.9365 39.586 38.9365 39.0026L38.9354 27.3636C38.9354 27.3272 38.9343 27.2909 38.9312 27.2555ZM28.5883 40.6078L36.7365 38.887C37.0938 38.812 37.3417 38.5047 37.3417 38.1401L37.3428 26.5011C37.3428 26.2625 37.2448 26.0583 37.0605 25.9083C36.875 25.7583 36.6552 25.7052 36.4219 25.7542L28.5884 27.4073L28.5883 40.6078ZM28.1445 27.3136L20.311 22.3396C20.0787 22.1917 19.8578 22.1511 19.6724 22.2229C19.487 22.2948 19.3901 22.4584 19.3901 22.6959V34.3356C19.3901 34.7002 19.6391 35.1128 19.9953 35.3388L28.1446 40.5139L28.1445 27.3136ZM21.5766 26.5375C21.4735 26.4719 21.4422 26.3344 21.5078 26.2313C21.5735 26.1282 21.711 26.0969 21.8141 26.1625L26.1798 28.9354C26.2829 29.001 26.3142 29.1385 26.2486 29.2417C26.1829 29.3448 26.0454 29.376 25.9423 29.3104L21.5766 26.5375ZM21.5766 33.4732C21.4735 33.4076 21.4422 33.2701 21.5078 33.1669C21.5735 33.0638 21.711 33.0326 21.8141 33.0982L26.1798 35.8711C26.2829 35.9367 26.3142 36.0742 26.2486 36.1773C26.1829 36.2804 26.0454 36.3117 25.9423 36.2461L21.5766 33.4732ZM21.5766 31.1606C21.4735 31.095 21.4422 30.9575 21.5078 30.8544C21.5735 30.7512 21.711 30.72 21.8141 30.7856L26.1798 33.5585C26.2829 33.6241 26.3142 33.7616 26.2486 33.8647C26.1829 33.9679 26.0454 33.9991 25.9423 33.9335L21.5766 31.1606ZM21.5766 28.8491C21.4735 28.7835 21.4422 28.646 21.5078 28.5428C21.5735 28.4397 21.711 28.4085 21.8141 28.4741L26.1798 31.247C26.2829 31.3126 26.3142 31.4501 26.2486 31.5532C26.1829 31.6563 26.0454 31.6876 25.9423 31.622L21.5766 28.8491ZM34.9927 28.9616L30.6259 29.8835C30.5061 29.9085 30.429 30.0262 30.454 30.146C30.479 30.2658 30.5967 30.3429 30.7165 30.3179L35.0822 29.396C35.202 29.371 35.2791 29.2533 35.2541 29.1335C35.2302 29.0137 35.1125 28.9366 34.9927 28.9616ZM34.9927 35.8962L30.627 36.8181C30.5072 36.8431 30.4301 36.9608 30.4551 37.0806C30.4801 37.2004 30.5978 37.2775 30.7176 37.2525L35.0833 36.3306C35.2031 36.3056 35.2802 36.1879 35.2552 36.0681C35.2302 35.9483 35.1125 35.8722 34.9927 35.8962ZM34.9927 33.5847L30.627 34.5065C30.5072 34.5315 30.4301 34.6493 30.4551 34.769C30.4801 34.8888 30.5978 34.9659 30.7176 34.9409L35.0833 34.019C35.2031 33.994 35.2802 33.8763 35.2552 33.7565C35.2302 33.6367 35.1125 33.5596 34.9927 33.5847ZM34.9927 31.2731L30.627 32.195C30.5072 32.22 30.4301 32.3377 30.4551 32.4575C30.4801 32.5773 30.5978 32.6544 30.7176 32.6294L35.0833 31.7075C35.2031 31.6825 35.2802 31.5648 35.2552 31.445C35.2302 31.3252 35.1125 31.2481 34.9927 31.2731ZM37.7866 26.6002V38.14C37.7866 38.715 37.3908 39.2035 36.8283 39.3213L29.1583 40.7173L37.8854 39.7484C38.2489 39.714 38.4906 39.3661 38.4906 39.0015V27.3635C38.4906 27.125 38.3926 26.9208 38.2083 26.7708C38.0822 26.6677 37.9398 26.6106 37.7866 26.6002ZM27.1426 40.4038L19.0029 38.736C18.5571 38.6443 18.2425 38.336 18.2425 37.9537V25.7659C18.2425 25.5169 18.3654 25.3023 18.5977 25.1451C18.705 25.0721 18.8227 25.0211 18.9466 24.993V34.3359C18.9466 34.8849 19.3029 35.4255 19.7581 35.7141L27.1426 40.4038ZM27.5034 40.7173L17.8537 40.9996C17.3985 41.0142 17.0933 40.5996 17.0933 40.2173V28.0306C17.0933 27.7816 17.2162 27.567 17.4485 27.4097C17.5558 27.3368 17.6735 27.2858 17.7974 27.2576V37.9558C17.7974 38.5985 18.3141 39.0506 18.9131 39.1735L27.5034 40.7173ZM28.5885 16.6063C28.5885 16.7292 28.4895 16.8281 28.3666 16.8281C28.2437 16.8281 28.1447 16.7292 28.1447 16.6063V16.2219C28.1447 16.099 28.2437 16 28.3666 16C28.4895 16 28.5885 16.099 28.5885 16.2219V16.6063ZM31.0458 17.8073C30.9594 17.8938 30.8187 17.8938 30.7312 17.8073C30.6448 17.7209 30.6448 17.5802 30.7312 17.4927L31.0031 17.2219C31.0896 17.1354 31.2302 17.1354 31.3177 17.2219C31.4042 17.3084 31.4042 17.449 31.3177 17.5365L31.0458 17.8073ZM31.9333 20.3949C31.8104 20.3949 31.7115 20.2959 31.7115 20.173C31.7115 20.0501 31.8104 19.9511 31.9333 19.9511H32.3167C32.4396 19.9511 32.5386 20.0501 32.5386 20.173C32.5386 20.2959 32.4396 20.3949 32.3167 20.3949H31.9333ZM24.7998 19.9511C24.9227 19.9511 25.0217 20.0501 25.0217 20.173C25.0217 20.2959 24.9227 20.3949 24.7998 20.3949H24.4165C24.2936 20.3949 24.1946 20.2959 24.1946 20.173C24.1946 20.0501 24.2936 19.9511 24.4165 19.9511H24.7998ZM26.0019 17.4938C26.0884 17.5802 26.0884 17.7209 26.0019 17.8084C25.9155 17.8948 25.7748 17.8948 25.6873 17.8084L25.4155 17.5365C25.329 17.45 25.329 17.3094 25.4155 17.2219C25.5019 17.1354 25.6426 17.1354 25.7301 17.2219L26.0019 17.4938ZM27.1926 22.6409C27.0978 21.7356 26.3353 21.5314 26.3353 20.4314C26.3353 19.3095 27.2447 18.4001 28.3666 18.4001C29.4885 18.4001 30.3979 19.3095 30.3979 20.4314C30.3979 21.5325 29.6354 21.7356 29.5406 22.6409H28.5885V21.8054C28.5885 21.6825 28.4895 21.5835 28.3666 21.5835C28.2437 21.5835 28.1447 21.6825 28.1447 21.8054V22.6409H27.1926Z" fill="#87A5E5"/>
</svg>
