<svg width="8" height="12" viewBox="0 0 8 12" fill="none" xmlns="http://www.w3.org/2000/svg">
<path d="M7.93591 5.32822C7.83375 5.11167 7.63046 4.97668 7.40528 4.97668H4.81005L5.04565 0.680632C5.06129 0.393777 4.90335 0.135605 4.65264 0.0383121C4.40192 -0.0584311 4.12827 0.0321251 3.97085 0.263856L0.114769 5.96265C-0.0181466 6.15895 -0.0369092 6.41542 0.0652519 6.63196C0.167414 6.84907 0.370704 6.9835 0.59588 6.9835H3.16349L2.92737 11.3194C2.91173 11.6057 3.06967 11.8639 3.31986 11.9612C3.3871 11.9871 3.4559 12 3.52314 12C3.7087 12 3.88645 11.9061 4.00111 11.7362L7.88482 5.99797C8.01773 5.80223 8.03701 5.5452 7.93538 5.32865L7.93591 5.32822Z" fill="#265BD1"/>
</svg>
