<svg width="8" height="11" viewBox="0 0 8 11" fill="none" xmlns="http://www.w3.org/2000/svg">
<path d="M5.3786 0.5C5.28431 0.5 5.19521 0.533774 5.13042 0.591087C5.11423 0.60388 5.09977 0.619742 5.08646 0.636117L0.564483 6.28341C0.48928 6.37757 0.478868 6.5009 0.538451 6.60375C0.598613 6.7066 0.717775 6.77108 0.847933 6.77211L3.16764 6.78388L2.27851 10.1193C2.24033 10.2626 2.32132 10.4099 2.47231 10.4713C2.51974 10.4908 2.56949 10.5 2.61866 10.5C2.72742 10.5 2.83385 10.455 2.90155 10.3731L7.43226 4.90173C7.51036 4.80758 7.52193 4.68271 7.46176 4.57832C7.40218 4.47444 7.28186 4.40945 7.14996 4.40945H7.1488L4.89099 4.41456L5.7217 0.872431C5.76104 0.705104 5.63955 0.541353 5.4504 0.506547C5.4261 0.501941 5.40231 0.5 5.3786 0.5Z" stroke="#182DEE"/>
</svg>
