<svg width="59" height="59" viewBox="0 0 59 59" fill="none" xmlns="http://www.w3.org/2000/svg">
<g clip-path="url(#clip0_1555_20097)">
<rect width="59" height="59" rx="15" fill="#FEC34D"/>
<path d="M41.266 27.6965C44.0681 27.048 43.2368 62.9089 25.5955 67.8493C13.6037 55.5999 8.32951 34.2317 7.43496 24.3555C15.1596 25.14 31.09 16.3797 33.9096 15.9177C37.69 15.2983 33.2206 19.4474 38.9415 21.2436C40.5028 23.0379 37.1416 28.651 41.266 27.6965Z" fill="white"/>
<path d="M35.1779 20.1076C31.6294 24.1702 22.8895 33.0043 16.3184 35.8398" stroke="black" stroke-opacity="0.04" stroke-width="2.16974" stroke-linecap="round"/>
<path d="M37.5008 31.4988C34.3517 35.8783 26.485 45.4981 20.2109 48.9414" stroke="black" stroke-opacity="0.04" stroke-width="2.16974" stroke-linecap="round"/>
<path d="M9.40316 24.3683C12.2264 36.0698 8.06979 52.5794 29.5035 65.9817C21.4393 72.8137 15.4024 72.815 13.0961 73.1929C7.31024 74.141 -13.1758 61.6795 -7.99629 37.5687C-6.05789 28.5453 1.95637 23.9488 9.40316 24.3683Z" fill="#396EE2"/>
<path d="M5.60048 28.6825C5.38578 29.3735 7.8835 36.7796 9.1592 40.3962C5.87724 34.3756 -2.85739 41.2719 -6.81445 45.4727C-6.70841 31.1091 5.86885 27.8187 5.60048 28.6825Z" fill="#396EE2"/>
</g>
<defs>
<clipPath id="clip0_1555_20097">
<rect width="59" height="59" rx="15" fill="white"/>
</clipPath>
</defs>
</svg>
