<svg width="24" height="24" viewBox="0 0 24 24" fill="none" xmlns="http://www.w3.org/2000/svg">
<path d="M14.7039 4.88341C15.4043 5.47399 16.0902 6.10431 16.7575 6.77035C22.5678 12.5823 25.2422 19.4587 22.3505 22.3519C20.653 24.0482 17.5931 23.8562 14.0668 22.1334C13.6471 21.9282 13.4723 21.4197 13.6775 20.9999C13.8828 20.5788 14.3912 20.4054 14.811 20.6106C17.7597 22.0513 20.106 22.1983 21.152 21.1536C23.113 19.1911 20.78 13.1901 15.5591 7.96998C14.9262 7.33702 14.2747 6.73851 13.6113 6.17972C13.2538 5.87913 13.2088 5.34418 13.5094 4.98665C13.8113 4.6278 14.3464 4.58282 14.7039 4.88341ZM18.5423 13.5262C18.8998 13.8295 18.9435 14.3645 18.6403 14.7206C18.0643 15.3999 17.4354 16.0805 16.7575 16.7585C10.9459 22.5691 4.0699 25.2437 1.17816 22.3518C-0.517995 20.6556 -0.327327 17.5982 1.39399 14.0731C1.59923 13.6533 2.10637 13.4785 2.52608 13.6838C2.94714 13.889 3.12191 14.3962 2.91667 14.8173C1.47738 17.7636 1.33172 20.1085 2.37642 21.1533C4.33742 23.1144 10.3381 20.7812 15.5592 15.56C16.2054 14.9138 16.8025 14.2676 17.348 13.6241C17.6513 13.2679 18.1849 13.2243 18.5423 13.5262ZM9.45495 1.39285C9.8747 1.5981 10.0495 2.10659 9.84422 2.52636C9.63899 2.94745 9.13185 3.12223 8.71078 2.91697C5.76468 1.4776 3.42119 1.33194 2.37616 2.3767C0.41384 4.33781 2.74824 10.3388 7.96912 15.5603C8.5994 16.1919 9.2495 16.7878 9.91158 17.3452C10.2691 17.6471 10.3141 18.1821 10.0135 18.5396C9.71164 18.8972 9.17669 18.9435 8.81921 18.6416C8.12009 18.0536 7.43555 17.4233 6.76951 16.7586C0.959265 10.9467 -1.71519 4.07031 1.1779 1.1784C2.87274 -0.517859 5.93037 -0.327243 9.45495 1.39285ZM11.8092 8.82278C11.9826 8.8678 12.115 9.00287 12.1574 9.17635L12.5083 10.6409C12.5692 10.8938 12.7625 11.0951 13.0141 11.1653L14.3064 11.5281C14.5434 11.5943 14.6812 11.8393 14.6149 12.0763C14.5712 12.2312 14.4468 12.3517 14.2905 12.3888L13.0657 12.6828C12.797 12.7476 12.5904 12.9595 12.5308 13.2296L12.1667 14.8994C12.1124 15.1537 11.8608 15.3152 11.6066 15.2596C11.4266 15.2199 11.2862 15.0795 11.2478 14.8994L10.8837 13.2323C10.8254 12.9608 10.6149 12.749 10.3461 12.6854L9.07762 12.3861C8.83664 12.3305 8.68835 12.0895 8.74528 11.8485C8.78235 11.6896 8.90284 11.5638 9.05909 11.5201L10.3342 11.1626C10.5805 11.0938 10.7725 10.8991 10.836 10.6515L11.2226 9.16709C11.2889 8.91021 11.5523 8.75526 11.8092 8.82278ZM22.3504 1.17827C24.0479 2.87586 23.8572 5.9441 22.1332 9.47432C21.928 9.89541 21.4195 10.0689 20.9998 9.86361C20.5787 9.65837 20.404 9.1512 20.6105 8.7301C22.0525 5.77722 22.1994 3.42427 21.1521 2.3768C19.1898 0.414364 13.1891 2.7489 7.96932 7.97009C7.33375 8.60437 6.73263 9.25852 6.17252 9.92456C5.87063 10.2834 5.33703 10.3284 4.9782 10.0278C4.62069 9.72594 4.57435 9.19231 4.87624 8.83346C5.46679 8.13033 6.10103 7.44042 6.76968 6.77041C12.5813 0.959825 19.4573 -1.71499 22.3504 1.17827Z" fill="white"/>
</svg>
