<svg width="25" height="25" viewBox="0 0 25 25" fill="none" xmlns="http://www.w3.org/2000/svg">
<rect width="24.4091" height="24.4091" rx="5.16026" fill="#0D1218"/>
<path d="M16.7147 13.6116H14.7329L11.348 10.1747V8.16239C11.348 7.74947 11.1865 7.35346 10.8989 7.06148C10.6114 6.7695 10.2214 6.60547 9.81471 6.60547H8.28138C7.87472 6.60547 7.48471 6.7695 7.19715 7.06148C6.90959 7.35346 6.74805 7.74947 6.74805 8.16239V9.71931C6.74805 10.1322 6.90959 10.5282 7.19715 10.8202C7.48471 11.1122 7.87472 11.2762 8.28138 11.2762H10.2632L13.648 14.7131V16.7255C13.648 17.1384 13.8096 17.5344 14.0972 17.8264C14.3847 18.1184 14.7747 18.2824 15.1814 18.2824H16.7147C17.1214 18.2824 17.5114 18.1184 17.7989 17.8264C18.0865 17.5344 18.248 17.1384 18.248 16.7255V15.1685C18.248 14.7556 18.0865 14.3596 17.7989 14.0676C17.5114 13.7757 17.1214 13.6116 16.7147 13.6116ZM9.81471 9.71931H8.28138V8.16239H9.81471V9.71931ZM16.7147 16.7255H15.1814V15.1685H16.7147V16.7255Z" fill="white"/>
<path d="M17.098 12.4439C17.3014 12.4439 17.4964 12.3619 17.6402 12.2159C17.7839 12.0699 17.8647 11.8719 17.8647 11.6655V9.33008C17.8647 8.7107 17.6224 8.11669 17.1911 7.67872C16.7597 7.24075 16.1747 6.9947 15.5647 6.9947H13.2647C13.0614 6.9947 12.8664 7.07672 12.7226 7.22271C12.5788 7.3687 12.498 7.5667 12.498 7.77316C12.498 7.97962 12.5788 8.17763 12.7226 8.32362C12.8664 8.46961 13.0614 8.55162 13.2647 8.55162H15.5647C15.768 8.55162 15.9631 8.63364 16.1068 8.77963C16.2506 8.92562 16.3314 9.12362 16.3314 9.33008V11.6655C16.3314 11.8719 16.4122 12.0699 16.5559 12.2159C16.6997 12.3619 16.8947 12.4439 17.098 12.4439Z" fill="white"/>
<path d="M11.7314 16.3362H9.43138C9.22805 16.3362 9.03304 16.2542 8.88927 16.1082C8.74549 15.9622 8.66471 15.7642 8.66471 15.5578V13.2224C8.66471 13.0159 8.58394 12.8179 8.44016 12.6719C8.29638 12.5259 8.10138 12.4439 7.89805 12.4439C7.69471 12.4439 7.49971 12.5259 7.35593 12.6719C7.21215 12.8179 7.13138 13.0159 7.13138 13.2224V15.5578C7.13138 16.1772 7.3737 16.7712 7.80503 17.2091C8.23637 17.6471 8.82138 17.8932 9.43138 17.8932H11.7314C11.9347 17.8932 12.1297 17.8111 12.2735 17.6652C12.4173 17.5192 12.498 17.3212 12.498 17.1147C12.498 16.9082 12.4173 16.7102 12.2735 16.5642C12.1297 16.4183 11.9347 16.3362 11.7314 16.3362Z" fill="white"/>
</svg>
