<svg width="90" height="90" viewBox="0 0 90 90" fill="none" xmlns="http://www.w3.org/2000/svg">
<g opacity="0.6">
<g clip-path="url(#clip0_2268_5283)">
<rect width="89.2369" height="89.2369" rx="10.1985" fill="#0D1218"/>
<rect width="89.2369" height="89.2369" fill="#F4F4F4"/>
<rect x="18.2712" y="17.1602" width="52.4118" height="54" rx="4.76461" fill="#6087DC"/>
<path d="M34.4851 70.0161L47.0699 60.1771V17.1602" stroke="#577BC8" stroke-width="3.66094"/>
<path d="M18.0798 66.2902C18.0834 68.9691 20.2567 71.1387 22.9356 71.1378L33.7771 71.134C35.0371 71.1335 36.2475 70.6431 37.1525 69.7664L45.2579 61.914C46.2015 60.9997 46.7342 59.742 46.7342 58.428L46.7342 17.1639L22.8663 17.1949C20.1856 17.1984 18.0154 19.3744 18.0191 22.0551L18.0798 66.2902Z" fill="white"/>
<path d="M35.4383 71.1113C36.0591 70.974 36.5839 70.6915 37.0153 70.2661C40.085 67.2384 43.1235 64.1826 46.1331 61.0987C46.7021 60.5171 46.7334 60.0066 46.7513 59.0344L46.7467 55.6683C46.7467 55.6618 46.74 55.6575 46.7334 55.6575C46.7333 55.6401 46.7757 55.6575 46.7334 55.6575L46.6121 59.0307C46.5667 59.1648 46.4867 59.2342 46.4311 59.2343L35.6202 59.2484C35.5579 59.2485 35.5067 59.2984 35.5046 59.3613L35.4383 71.1113Z" fill="#3A60B0"/>
<path d="M70.6374 25.3965H58.9679C58.3361 25.3965 57.8238 25.9087 57.8238 26.5406C57.8238 27.1724 58.3361 27.6846 58.9679 27.6846H70.6374V25.3965Z" fill="#87A5E5"/>
<path d="M70.6374 32.2627H62.6289C61.9971 32.2627 61.4849 32.7749 61.4849 33.4068C61.4849 34.0386 61.9971 34.5508 62.6289 34.5508H70.6374V32.2627Z" fill="#87A5E5"/>
<path d="M70.6374 53.3115H62.6289C61.9971 53.3115 61.4849 53.8237 61.4849 54.4556C61.4849 55.0874 61.9971 55.5997 62.6289 55.5997H70.6374V53.3115Z" fill="#87A5E5"/>
<path d="M70.6374 39.126H62.6289C61.9971 39.126 61.4849 39.6382 61.4849 40.27C61.4849 40.9019 61.9971 41.4141 62.6289 41.4141H70.6374V39.126Z" fill="#87A5E5"/>
<path d="M70.6374 45.9902H58.9679C58.3361 45.9902 57.8238 46.5025 57.8238 47.1343C57.8238 47.7662 58.3361 48.2784 58.9679 48.2784H70.6374V45.9902Z" fill="#87A5E5"/>
<path d="M70.6374 60.1768H62.6289C61.9971 60.1768 61.4849 60.689 61.4849 61.3208C61.4849 61.9527 61.9971 62.4649 62.6289 62.4649H70.6374V60.1768Z" fill="#87A5E5"/>
<path d="M22.6295 41.5986L21.0052 38.1298C20.59 37.3026 20.9692 36.3794 21.7969 35.9644C22.6245 35.5494 23.5481 35.9284 23.9633 36.7556L24.173 37.2687C25.997 34.9626 28.8332 33.4715 31.9377 33.4076C36.3159 33.3176 40.2737 36.022 41.6325 40.1331C41.9283 40.9627 41.4695 41.8875 40.6386 42.1434C40.4412 42.2271 40.3218 42.2295 40.1228 42.2336C39.4064 42.2484 38.8004 41.8231 38.5477 41.1517C37.5749 38.3858 34.9477 36.4898 31.9626 36.5512C28.9775 36.6126 26.3891 38.5364 25.5724 41.4187C25.3865 42.0593 24.7993 42.5489 24.0828 42.5637C23.5662 42.6141 22.8823 42.27 22.6295 41.5986ZM43.3185 48.5356L41.6942 45.0668C41.4025 44.436 40.7575 44.0513 40.1223 44.144C39.4871 44.2366 38.8975 44.6069 38.6328 45.289C37.7746 48.0925 35.2277 50.095 32.2426 50.1564C29.2574 50.2179 26.5921 48.4022 25.6575 45.5559C25.3617 44.7263 24.4771 44.3067 23.6064 44.5634C22.7754 44.8193 22.3166 45.7441 22.6124 46.5738C24.0508 50.6832 27.9291 53.3893 32.3072 53.2992C35.4117 53.2353 38.248 51.7442 40.111 49.3976L40.3206 49.9106C40.7358 50.7378 41.6578 51.0373 42.4871 50.7018C43.3164 50.3664 43.6939 49.3636 43.3185 48.5356Z" fill="#3A60B0"/>
<rect x="65.0244" y="5.10547" width="19.1222" height="19.1222" rx="4.78055" fill="white"/>
<path d="M76.9922 10.3242C78.9417 10.3243 80.5117 11.8695 80.5117 13.748C80.5117 14.4926 80.2309 15.296 79.7559 16.1006C79.2827 16.9021 78.632 17.6775 77.9346 18.3574C77.2377 19.0368 76.5043 19.611 75.874 20.0117C75.5588 20.2121 75.2755 20.3645 75.041 20.4658C74.795 20.5722 74.6426 20.6045 74.5742 20.6045C74.5058 20.6045 74.3534 20.5721 74.1074 20.4658C73.873 20.3645 73.5897 20.2121 73.2744 20.0117C72.6442 19.611 71.9107 19.0369 71.2139 18.3574C70.5165 17.6775 69.8658 16.9021 69.3926 16.1006C68.9176 15.296 68.6377 14.4925 68.6377 13.748C68.6377 11.8696 70.2068 10.3244 72.1563 10.3242C72.781 10.3242 73.3232 10.4833 73.8174 10.8135L74.0264 10.9658L74.3037 11.1846L74.5742 11.3975L74.8447 11.1846L75.1221 10.9658C75.6723 10.5323 76.2757 10.3242 76.9922 10.3242Z" fill="#D9D9D9" stroke="white" stroke-width="0.874157"/>
</g>
</g>
<defs>
<clipPath id="clip0_2268_5283">
<rect width="89.2369" height="89.2369" rx="10.1985" fill="white"/>
</clipPath>
</defs>
</svg>
