<svg width="90" height="90" viewBox="0 0 90 90" fill="none" xmlns="http://www.w3.org/2000/svg">
<g opacity="0.6">
<g clip-path="url(#clip0_2268_5233)">
<rect width="89.2369" height="89.2369" rx="10.4567" fill="#D2D2D2"/>
<g clip-path="url(#clip1_2268_5233)">
<rect x="-0.000160217" width="89.2369" height="89.2369" rx="11.2372" fill="#E8EFFC"/>
<g clip-path="url(#clip2_2268_5233)">
<rect width="89.1706" height="89.1706" transform="translate(-0.0109024 -0.0117188)" fill="#F4F4F4"/>
<path d="M151.335 143.449C151.335 143.449 155.21 136.706 156.936 129.384V129.382C162.899 104.053 132.163 66.7692 106.273 68.5121C89.8419 71.2506 87.1506 84.7518 88.099 94.653C88.4938 98.7694 88.9133 100.761 90.0902 102.868C90.8739 104.227 93.8635 107.573 99.5519 110.088C102.756 111.505 122.639 116.38 130.795 125.151C135.06 129.737 136.6 135.072 137.292 137.118C140.604 146.898 139.273 155.433 138.39 159.383C139.01 158.79 139.874 157.941 140.88 156.893C143.42 154.242 147.764 149.661 151.335 143.449Z" fill="#E8E8E8"/>
<path d="M27.8885 59.4936C27.5125 58.433 26.9045 57.4698 26.1089 56.6742C25.3132 55.8786 24.35 55.2706 23.2895 54.8946V33.8525C24.35 33.4765 25.3132 32.8685 26.1089 32.0729C26.9045 31.2772 27.5125 30.314 27.8885 29.2535H38.4096V24.2135H27.8885C27.4647 23.0075 26.742 21.9287 25.788 21.0779C24.834 20.2271 23.6798 19.6321 22.4334 19.3486C21.187 19.065 19.889 19.102 18.6608 19.4563C17.4326 19.8106 16.3143 20.4706 15.4105 21.3744C14.5066 22.2783 13.8466 23.3966 13.4924 24.6248C13.1381 25.853 13.101 27.151 13.3846 28.3974C13.6682 29.6438 14.2632 30.798 15.114 31.752C15.9648 32.706 17.0436 33.4287 18.2495 33.8525V54.8946C17.0436 55.3184 15.9648 56.0411 15.114 56.9951C14.2632 57.9491 13.6682 59.1033 13.3846 60.3497C13.101 61.5961 13.1381 62.8941 13.4924 64.1223C13.8466 65.3505 14.5066 66.4688 15.4105 67.3726C16.3143 68.2765 17.4326 68.9364 18.6608 69.2907C19.889 69.645 21.187 69.6821 22.4334 69.3985C23.6798 69.1149 24.834 68.5199 25.788 67.6691C26.742 66.8183 27.4647 65.7395 27.8885 64.5336H38.4096V59.4936H27.8885ZM20.7695 24.2135C21.2679 24.2135 21.7552 24.3613 22.1696 24.6382C22.584 24.9151 22.907 25.3087 23.0977 25.7691C23.2884 26.2296 23.3383 26.7363 23.2411 27.2251C23.1439 27.714 22.9039 28.163 22.5514 28.5154C22.199 28.8678 21.75 29.1079 21.2612 29.2051C20.7723 29.3023 20.2656 29.2524 19.8052 29.0617C19.3447 28.871 18.9511 28.548 18.6742 28.1335C18.3973 27.7191 18.2495 27.2319 18.2495 26.7335C18.2495 26.0652 18.515 25.4242 18.9876 24.9516C19.4602 24.479 20.1012 24.2135 20.7695 24.2135ZM20.7695 64.5336C20.2711 64.5336 19.7839 64.3858 19.3695 64.1089C18.9551 63.832 18.6321 63.4384 18.4413 62.9779C18.2506 62.5175 18.2007 62.0108 18.2979 61.5219C18.3952 61.0331 18.6352 60.5841 18.9876 60.2316C19.34 59.8792 19.7891 59.6392 20.2779 59.542C20.7667 59.4447 21.2734 59.4946 21.7339 59.6854C22.1944 59.8761 22.5879 60.1991 22.8648 60.6135C23.1417 61.0279 23.2895 61.5152 23.2895 62.0136C23.2895 62.6819 23.024 63.3229 22.5514 63.7955C22.0788 64.2681 21.4379 64.5336 20.7695 64.5336Z" fill="#6087DC"/>
<path d="M34.7249 23.6929C34.7249 21.1895 36.7543 19.1602 39.2576 19.1602H64.7539C66.0108 19.1602 67.2113 19.6821 68.0686 20.6012L75.4347 28.4986C76.2174 29.3378 76.6527 30.4427 76.6527 31.5903V64.4876C76.6527 66.9909 74.6234 69.0203 72.12 69.0203H39.2576C36.7543 69.0203 34.7249 66.9909 34.7249 64.4876V23.6929Z" fill="white"/>
<path d="M65.8476 19.1602V31.0253H76.2296" stroke="#D0D9EC" stroke-width="2.22471"/>
<path d="M66.456 19.1602C67.015 19.2863 67.4878 19.5469 67.8766 19.9396C70.6436 22.7347 73.3825 25.5557 76.0954 28.4029C76.6083 28.9398 76.6544 29.5837 76.6544 30.3103V33.4219C76.6544 33.4279 76.6484 33.4319 76.6425 33.4319H76.5743C76.5583 33.4319 76.5463 33.4199 76.5463 33.4038L76.4581 30.216C76.4561 30.166 76.416 30.1259 76.3659 30.1259H66.6344C66.5783 30.1259 66.5322 30.0798 66.5302 30.0217L66.456 19.1602Z" fill="#3A60B0"/>
<rect x="40.3909" y="28.792" width="18.6976" height="5.66593" rx="1.52943" fill="#87A5E5"/>
<rect x="40.3909" y="36.1582" width="13.5982" height="5.09934" rx="1.52943" fill="#3A60B0"/>
</g>
</g>
<rect x="65.0244" y="5.10547" width="19.1222" height="19.1222" rx="4.78055" fill="white"/>
<path d="M76.9922 10.3242C78.9417 10.3243 80.5117 11.8695 80.5117 13.748C80.5117 14.4926 80.2309 15.296 79.7559 16.1006C79.2827 16.9021 78.632 17.6775 77.9346 18.3574C77.2377 19.0368 76.5043 19.611 75.874 20.0117C75.5588 20.2121 75.2755 20.3645 75.041 20.4658C74.795 20.5722 74.6426 20.6045 74.5742 20.6045C74.5058 20.6045 74.3534 20.5721 74.1074 20.4658C73.8729 20.3645 73.5897 20.2121 73.2744 20.0117C72.6442 19.611 71.9107 19.0369 71.2139 18.3574C70.5165 17.6775 69.8657 16.9021 69.3926 16.1006C68.9176 15.296 68.6377 14.4925 68.6377 13.748C68.6377 11.8696 70.2068 10.3244 72.1562 10.3242C72.781 10.3242 73.3232 10.4833 73.8174 10.8135L74.0264 10.9658L74.3037 11.1846L74.5742 11.3975L74.8447 11.1846L75.1221 10.9658C75.6722 10.5323 76.2757 10.3242 76.9922 10.3242Z" fill="#D9D9D9" stroke="white" stroke-width="0.874157"/>
</g>
</g>
<defs>
<clipPath id="clip0_2268_5233">
<rect width="89.2369" height="89.2369" rx="10.4567" fill="white"/>
</clipPath>
<clipPath id="clip1_2268_5233">
<rect x="-0.000160217" width="89.2369" height="89.2369" rx="11.2372" fill="white"/>
</clipPath>
<clipPath id="clip2_2268_5233">
<rect width="89.1706" height="89.1706" fill="white" transform="translate(-0.0109024 -0.0117188)"/>
</clipPath>
</defs>
</svg>
