<svg width="261" height="217" viewBox="0 0 261 217" fill="none" xmlns="http://www.w3.org/2000/svg">
<path d="M55.4714 184.3C84.0474 223.86 139.35 257.368 193.262 237.448C203.913 233.512 214.445 227.659 224.563 220.049C260.795 192.801 283.634 152.249 299.485 119.962C315.429 87.4857 330.54 55.4933 340.81 21.7459C340.816 21.7429 340.847 21.7281 340.847 21.7281C340.847 21.7281 343.422 16.9526 346.074 15.9798C346.074 15.9798 344.921 15.0819 341.673 16.7724C339.899 17.7619 339.095 13.9452 339.115 12.9225C339.134 11.8998 336.33 13.8928 336.33 13.8928C336.33 13.8928 334.819 15.9104 333.461 10.4752C332.976 12.9501 332.519 13.9645 331.801 13.2219C331.083 12.4762 328.2 10.3754 328.2 10.3754C328.2 10.3754 330.51 11.96 329.288 19.4138C319.273 51.9501 304.543 83.1288 288.991 114.807C273.716 145.923 251.789 184.941 217.539 210.699C208.329 217.625 198.8 222.933 189.212 226.473C141.029 244.284 91.0247 213.541 64.9561 177.447C61.8848 173.192 58.8897 168.636 56.0603 163.905L46.0221 169.905C49.0205 174.93 52.2032 179.772 55.4714 184.3Z" fill="#3B6DD7"/>
<path opacity="0.5" d="M46.024 169.902L56.0593 163.898C58.901 168.629 61.8716 173.186 64.9516 177.459C91.0264 213.553 141.028 244.293 189.202 226.469C198.804 222.951 208.315 217.63 217.544 210.711C251.781 184.962 273.703 145.922 288.996 114.8C304.529 83.1434 319.259 51.9616 329.283 19.4316C330.329 13.0495 328.801 10.9653 328.323 10.4692C328.703 10.7582 329.842 11.6038 330.729 12.3129C330.765 13.162 330.801 14.0356 330.757 14.8833C330.589 19.6861 329.32 24.2904 327.922 28.8647C326.639 32.902 325.276 36.8858 323.865 40.8686C321.015 48.8614 317.909 56.7695 314.652 64.5983C311.341 72.5027 307.875 80.3306 304.285 88.101C300.665 95.975 296.918 103.794 293.147 111.564C291.728 114.469 290.313 117.37 288.895 120.275C273.602 151.394 251.681 190.41 217.443 216.158C208.211 223.102 198.704 228.398 189.101 231.944C140.927 249.743 90.9261 219.003 64.8513 182.909C61.7707 178.66 58.797 174.107 55.9585 169.373L48.4455 173.856C47.6186 172.554 46.8198 171.228 46.024 169.902Z" fill="#265BD1"/>
<path d="M28.3839 104.094L29.1863 103.616C30.9399 102.568 33.2111 103.138 34.2622 104.891L44.063 121.266C44.5736 122.121 44.2953 123.227 43.4433 123.738L39.3876 126.167C38.5325 126.678 37.4259 126.399 36.9152 125.547L27.1144 109.173C26.0604 107.413 26.6303 105.142 28.3839 104.094Z" fill="#A5BFF1"/>
<path d="M6.75134 117.038L7.55376 116.56C9.30735 115.512 11.5786 116.082 12.6297 117.835L21.4566 132.58C22.5077 134.334 21.9347 136.605 20.181 137.656L19.3786 138.134C17.625 139.182 15.3539 138.612 14.3028 136.858L5.47576 122.114C4.42774 120.36 4.99769 118.089 6.75134 117.038Z" fill="#A5BFF1"/>
<path d="M4.52109 135.353L48.5661 108.991C51.1129 107.465 54.4176 108.296 55.9406 110.843L72.7602 138.944C81.5664 153.655 76.7786 172.721 62.065 181.524C47.3544 190.33 28.2886 185.542 19.4855 170.829L2.66591 142.728C1.14283 140.181 1.97121 136.879 4.52109 135.353Z" fill="#507EDD"/>
<path opacity="0.3" d="M57.8637 183.577C69.519 174.036 72.6764 157.111 64.6897 143.766L45.1208 111.073L48.7613 108.894C51.2058 107.43 54.3732 108.226 55.837 110.67L72.6744 138.802C81.4746 153.507 76.6942 172.827 61.9661 181.587C60.6216 182.385 59.273 183.074 57.8637 183.577Z" fill="#265BD1"/>
</svg>
