<svg width="117" height="152" viewBox="0 0 117 152" fill="none" xmlns="http://www.w3.org/2000/svg">
<path d="M-33.5889 151.723L-35.4721 141.5C32.3396 129.029 77.7385 101.588 89.0838 66.2222C95.7877 45.3227 89.5139 22.8641 71.8754 4.60429C30.4254 -38.2987 -41.7722 18.1539 -42.4982 18.7319L-48.9619 10.5925C-45.7016 8.00573 31.4306 -52.2305 79.3474 -2.61497C99.7326 18.4849 106.889 44.7335 98.9797 69.3963C91.6045 92.3909 64.5718 133.667 -33.5889 151.723Z" fill="#3B6DD7"/>
<g opacity="0.5">
<path d="M94.9268 79.297C83.3001 102.805 51.7234 136.037 -33.5869 151.729L-35.4726 141.507C-34.4482 141.331 -33.4282 141.13 -32.4338 140.933L-31.2497 147.374C48.8963 132.62 81.6236 102.407 94.9268 79.297Z" fill="#265BD1"/>
<path d="M-42.4875 18.7207L-48.9726 10.5797C-48.5979 10.3045 -47.3424 9.32454 -45.3245 7.87102L-40.1758 14.3695C-39.431 13.7935 32.7708 -42.6492 74.1948 0.255612C91.852 18.5017 98.1066 40.9715 91.41 61.8671C89.9999 66.2482 88.0723 70.5335 85.6443 74.6675C87.0152 71.9013 88.1425 69.0978 89.0728 66.2227C95.795 45.3227 89.5148 22.8573 71.8832 4.60683C30.4337 -38.2936 -41.7683 18.1491 -42.4875 18.7207Z" fill="#265BD1"/>
</g>
</svg>
