<svg width="91" height="248" viewBox="0 0 91 248" fill="none" xmlns="http://www.w3.org/2000/svg">
<path d="M28.3429 225.813C28.3429 225.813 23.2905 224.883 20.4854 226.521" stroke="#268E26" stroke-width="1.46275" stroke-miterlimit="10" stroke-linecap="round" stroke-linejoin="round"/>
<path d="M28.9003 227.274C28.9003 227.274 22.8299 228.068 22.1885 231.445" stroke="#A5BFF1" stroke-width="1.46275" stroke-miterlimit="10" stroke-linecap="round" stroke-linejoin="round"/>
<path d="M29.0667 229.057C29.0667 229.057 23.9445 230.738 24.3698 234.131" stroke="#0032D0" stroke-width="1.46275" stroke-miterlimit="10" stroke-linecap="round" stroke-linejoin="round"/>
<path d="M29.321 223.418C29.321 223.418 22.8764 223.966 20.9893 220.633" stroke="#D30000" stroke-width="1.46275" stroke-miterlimit="10" stroke-linecap="round" stroke-linejoin="round"/>
<path d="M26.1123 221.899L28.2807 230.939C29.7471 230.589 64.3428 222.01 81.2525 191.412C92.3428 171.335 93.0935 146.744 83.4743 118.321C54.7584 33.4703 78.2684 -70.8628 78.5078 -71.9087L69.451 -74.0003C68.4401 -69.6334 45.0904 33.9026 74.6685 121.301C83.4022 147.111 82.8956 169.159 73.1579 186.841C58.2863 213.839 26.433 221.822 26.1123 221.899Z" fill="#3B6DD7"/>
<path d="M28.2781 230.941C28.2781 230.941 27.216 230.934 26.3445 232.096C26.8279 229.723 27.3112 229.674 27.3112 229.674L24.4132 228.742L26.7023 227.773C26.7023 227.773 23.4185 225.807 22.8584 223.91C23.7299 224.152 25.7634 223.91 25.7634 223.91L23.1977 220.631C23.1977 220.631 23.8949 221.968 26.112 221.898C28.3292 221.828 29.4447 222.841 29.6376 223.448C29.8305 224.055 30.3162 227.733 30.2674 227.977C30.2186 228.222 28.2781 230.941 28.2781 230.941Z" fill="#3B6DD7"/>
<path opacity="0.5" d="M81.0494 115.913C90.671 144.336 89.9273 168.924 78.8184 189.004C65.2692 213.523 40.3322 223.911 30.2227 227.235C29.1536 227.583 28.2704 227.862 27.5732 228.048C26.6204 228.327 26.0161 228.466 25.8535 228.513C25.8535 228.513 25.3654 228.513 24.8076 228.861L27.3176 229.675C27.3176 229.675 27.1781 229.698 26.9922 230.047C26.8063 230.349 26.5739 230.953 26.3415 232.092C27.2014 230.976 28.2008 230.953 28.2705 230.953C29.7346 230.581 64.3396 222.005 81.2586 191.421C92.3443 171.341 93.088 146.753 83.4664 118.33C54.7645 33.4793 78.2606 -70.8702 78.5162 -71.916L75.7041 -72.5667C72.7526 -58.483 54.3694 37.1281 81.0494 115.913Z" fill="#265BD1"/>
<path d="M6.34668 246.67C6.34668 246.67 7.7016 240.86 14.4808 236.6" stroke="white" stroke-width="1.46275" stroke-miterlimit="10" stroke-linecap="round" stroke-linejoin="round"/>
<path d="M0.731445 234.566C0.731445 234.566 9.73708 234.566 13.6113 232.096" stroke="white" stroke-width="1.46275" stroke-miterlimit="10" stroke-linecap="round" stroke-linejoin="round"/>
<path d="M1.16699 221.71C1.16699 221.71 6.97708 227.388 13.2961 227.274" stroke="white" stroke-width="1.46275" stroke-miterlimit="10" stroke-linecap="round" stroke-linejoin="round"/>
</svg>
