<svg width="76" height="394" viewBox="0 0 76 394" fill="none" xmlns="http://www.w3.org/2000/svg">
<path d="M60.3959 199.041C60.3959 199.041 66.8448 196.989 69.0919 193.344" stroke="#268E26" stroke-width="1.92757" stroke-miterlimit="10" stroke-linecap="round" stroke-linejoin="round"/>
<path d="M58.8425 197.689C58.8425 197.689 65.4086 193.001 64.061 188.674" stroke="#A5BFF1" stroke-width="1.92757" stroke-miterlimit="10" stroke-linecap="round" stroke-linejoin="round"/>
<path d="M57.5458 195.715C57.5458 195.715 62.4586 190.587 59.8596 186.904" stroke="#507EDD" stroke-width="1.92757" stroke-miterlimit="10" stroke-linecap="round" stroke-linejoin="round"/>
<path d="M60.7427 202.434C60.7427 202.434 67.8965 197.798 72.1582 200.505" stroke="#D30000" stroke-width="1.92757" stroke-miterlimit="10" stroke-linecap="round" stroke-linejoin="round"/>
<path d="M-266.721 181.47C-264.986 230.24 -237.676 288.852 -181.796 302.294C-170.755 304.95 -158.747 305.945 -146.106 305.251C-100.839 302.768 -59.3003 281.779 -28.1651 263.769C3.15147 245.654 33.5067 227.477 60.8166 205.149C60.8234 205.15 60.8573 205.155 60.8573 205.155C60.8573 205.155 65.6537 202.619 68.3991 203.287C68.3991 203.287 67.9405 201.899 64.3008 201.497C62.2763 201.332 63.732 197.713 64.3171 196.874C64.9022 196.035 61.4636 196.131 61.4636 196.131C61.4636 196.131 59.085 196.967 60.9806 191.695C59.2006 193.482 58.2563 194.07 58.0729 193.054C57.8912 192.035 56.6649 188.685 56.6649 188.685C56.6649 188.685 57.703 191.287 52.54 196.801C26.1165 218.265 -3.47043 235.977 -34.0173 253.647C-64.0216 271.004 -103.95 291.227 -146.741 293.574C-158.247 294.205 -169.118 293.314 -179.054 290.921C-229.001 278.914 -253.447 225.548 -255.028 181.052C-255.212 175.808 -255.166 170.356 -254.885 164.85L-266.564 164.251C-266.869 170.095 -266.918 175.889 -266.721 181.47Z" fill="#3B6DD7"/>
<path opacity="0.5" d="M-266.561 164.249L-254.883 164.844C-255.154 170.357 -255.22 175.795 -255.038 181.06C-253.453 225.558 -229.008 278.92 -179.061 290.913C-169.125 293.332 -158.262 294.202 -146.744 293.587C-103.969 291.24 -64.0329 270.996 -34.0101 253.644C-3.49051 235.981 26.0981 218.267 52.5256 196.813C56.9456 192.092 56.8349 189.509 56.7141 188.831C56.8694 189.283 57.3452 190.62 57.6878 191.702C57.2453 192.428 56.7887 193.174 56.2808 193.854C53.4694 197.751 49.8527 200.871 46.1463 203.894C42.8337 206.535 39.4855 209.087 36.0971 211.612C29.2819 216.667 22.3012 221.511 15.2388 226.203C8.08984 230.929 0.854872 235.506 -6.45159 239.965C-13.8402 244.494 -21.3046 248.906 -28.761 253.265C-31.5554 254.889 -34.3455 256.513 -37.1399 258.137C-67.161 275.487 -107.083 295.71 -149.858 298.057C-161.392 298.691 -172.239 297.802 -182.191 295.406C-232.123 283.393 -256.569 230.032 -258.154 185.533C-258.35 180.288 -258.288 174.851 -258.013 169.337L-266.749 168.882C-266.712 167.34 -266.638 165.794 -266.561 164.249Z" fill="#265BD1"/>
</svg>
