<svg width="431" height="329" viewBox="0 0 431 329" fill="none" xmlns="http://www.w3.org/2000/svg">
<path d="M364.464 194.433L364.138 193.78C364.177 193.898 364.36 194.107 364.464 194.433Z" fill="#FEFCFD"/>
<path d="M193.178 431.1C202.399 428.967 211.515 426.408 220.462 423.439C220.501 423.433 220.533 423.42 220.56 423.407C220.612 423.394 220.657 423.374 220.71 423.354C220.729 423.348 220.755 423.341 220.775 423.335C220.794 423.335 220.814 423.322 220.834 423.315C222.915 422.624 224.99 421.906 227.053 421.162C227.144 421.129 227.242 421.097 227.333 421.057C227.359 421.051 227.385 421.044 227.411 421.031C227.411 421.031 227.416 421.029 227.425 421.025H227.438C246.512 414.153 264.732 405.337 281.49 394.537C329.917 363.318 367.962 314.271 375.558 255.846C378.012 236.981 377.64 211.406 372.086 193.187C354.062 134.031 318.68 93.0564 262.729 66.8427C237.396 54.9725 209.694 79.5854 181.582 78.848C179.989 74.9391 177.855 70.6582 174.984 66.273C165.45 51.7272 153.279 42.8981 145.312 38.8521C146.545 39.9093 147.028 41.893 147.765 42.9958C155.244 54.1613 145.664 71.35 144.45 73.4578C134.518 73.634 124.586 73.8036 114.654 73.9798C115.026 73.1511 115.483 72.3549 115.607 71.4935C117.434 58.651 107.345 39.0282 101.537 32.3459C101.583 36.568 101.603 40.764 101.211 44.9666C95.5729 105.342 33.8333 99.0992 -5.34043 135.904C-23.1947 152.675 -53.3239 188.443 -54.5246 213.586C-55.0467 224.595 -48.7167 238.044 -35.8089 235.578C-33.9817 235.225 -27.4364 234.168 -21.5633 230.253C-11.1548 223.316 14.3867 186.883 19.0722 180.409L19.268 180.148C20.5927 178.315 21.9174 176.566 23.203 174.934C40.6135 152.845 -13.2104 366.033 13.6754 359.031L69.7964 432.549" fill="#210E47"/>
<path d="M267.271 100.581C267.362 100.626 267.447 100.665 267.538 100.711C293.517 113.09 325.512 133.15 344.47 154.913C352.503 164.134 360.784 183.679 364.791 195.405C364.823 195.503 364.758 195.634 364.791 195.738C364.83 195.849 365.012 196.065 365.117 196.391C367.792 204.731 369.489 212.699 370.031 221.476C372.047 254.274 364.334 285.199 348.724 313.755C315.208 375.058 252.105 410.264 184.583 423.994C153.691 430.278 105.342 402.407 75.0171 400.143" fill="#210E47"/>
<path d="M161.809 426.023C203.586 425.736 277.313 406.675 327.561 345.105C332.991 338.449 341.043 327.753 349.096 313.129C349.031 305.716 347.882 287.829 336.201 269.407C324.729 251.318 309.426 242.671 302.764 239.389C279.924 253.745 273.268 259.951 253.821 260.923C240.77 261.576 214.014 262.228 185.301 250.482C139.824 268.467 110.921 292.834 94.594 309.213C60.4124 343.513 60.8497 363.416 61.313 369.25C62.5268 384.598 70.1292 400.123 75.0169 403.405C97.1782 418.29 121.134 422.878 144.033 425.142C153.208 426.049 160.145 426.036 161.809 426.023Z" fill="#FCFDFF"/>
<path d="M19.2681 182.148C19.0658 183.525 -1.22914 206.829 -10.4695 218.771C-27.9845 238.804 -45.5712 238.309 -51.5814 227.685C-61.0371 210.966 -29.6355 160.731 -5.34033 137.904C33.8334 101.099 95.573 109.342 101.211 48.9666C101.603 44.764 101.583 40.568 101.538 36.3459C100.944 36.2415 100.65 35.9086 99.769 36.0261C94.6855 36.7244 89.8239 47.0872 87.8205 51.3093C84.6294 58.0047 82.0779 64.8762 78.3191 71.3171C66.8926 90.9007 32.8937 82.3052 19.875 89.0136C19.875 89.0136 -25.1523 112.506 -60.3911 166.017C-71.1454 182.351 -92.9804 223.365 -80.9274 296.792C-80.6534 296.687 -74.1407 312.799 -61.3699 345.121C-61.3438 345.18 -61.3047 345.238 -61.2721 345.297C-61.259 345.317 -61.2525 345.336 -61.2394 345.356C-61.1937 345.428 4.50696 438.341 115.868 441.63C141.305 442.38 165.672 438.354 173.34 437.055C195.56 433.29 213.923 427.802 227.438 423.031C211.234 427.064 173.072 433.492 142.232 428.683C101.772 422.379 86.1238 411.677 75.0171 405.412C21.8849 375.453 -1.575 326.51 -10.1889 307.579C-10.1954 307.579 -9.81696 308.186 -9.81696 308.179C-13.0798 297.085 -15.8989 286.142 -15.6901 270.33" fill="#180B3A"/>
<path d="M39.7783 215.896C14.4259 243.421 2.86893 275.078 -0.681048 285.068C-4.68782 296.338 -7.06318 306.101 -8.51188 313.129C-12.8841 300.573 -18.3461 279.469 -15.6575 253.836C-10.3848 203.543 22.433 172.063 33.9051 161.08C80.7792 116.21 146.225 105.181 159.198 106.917C159.655 106.976 165.913 107.837 166.696 105.899C167.832 103.093 156.699 96.5672 157.828 94.4268C158.226 93.6764 159.929 93.8526 160.438 93.9113C175.571 95.6275 190.972 100.607 200.963 97.1284C210.908 93.6698 214.504 82.165 217.401 83.6659C219 84.4947 219.111 88.4754 218.367 91.9209C216.448 100.868 215.091 105.481 216.344 106.493C218.236 108.007 226.178 99.419 231.634 95.8233C255.714 79.9332 313.851 107.38 344.528 150.639C351.628 160.65 360.033 175.43 365.41 195.666C351.87 157.348 314.229 144.035 294.933 154.555C278.899 163.292 270.233 191.366 280.576 219.812C268.641 217.129 257.084 214.591 238.159 217.201C229.173 218.441 208.324 224.334 202.268 227.642C203.24 221.221 206.197 196.789 190.522 178.7C183.004 170.027 174.273 166.353 170.945 164.996C133.363 149.654 74.2796 178.432 39.7783 215.896Z" fill="#FCFDFF"/>
<path d="M368.673 211.981C365.841 184.188 350.701 161.537 328.866 153.249C325.427 151.944 306.725 144.968 291.67 153.902C273.711 164.558 266.455 195.771 280.576 227.642C288.623 233.078 296.675 238.521 304.721 243.957C311.345 247.409 324.377 255.337 334.896 270.712C346.055 287.02 348.45 305.651 349.096 313.129C355.4 301.82 363.414 281.675 367.368 258.966C370.67 239.996 370.044 223.694 368.673 211.981Z" fill="#C7BED9"/>
<path d="M-8.51196 313.351C-2.66494 325.365 5.6749 339.63 17.5908 354.241C38.4796 379.848 61.4239 395.555 77.6272 404.711C77.5163 404.587 77.3531 404.397 77.1508 404.162C77.1508 404.162 66.4356 391.62 63.2707 373.818C59.1334 350.534 94.8616 313.579 97.8568 310.519C113.597 294.433 141.403 270.497 185.301 252.44C185.601 246.586 187.187 242.149 188.466 240.041C190.084 237.359 192.59 234.847 192.59 234.847L192.603 234.834C195.99 231.525 199.873 229.032 202.66 227.466C204.121 219.74 207.932 194.381 192.479 175.659C192.479 175.659 185.667 167.404 175.513 162.607C135.967 143.924 43.9677 185.467 7.1497 260.923C-2.86724 281.447 -6.78918 300.371 -8.51196 313.351Z" fill="#C7BED9"/>
<path d="M167.871 244.498C178.299 242.208 186.828 232.667 188.336 221.704C189.419 214.173 187.174 206.819 185.7 199.445C184.531 193.904 183.148 188.188 180.055 183.313C165.333 159.762 129.461 171.554 131.262 200.371C131.517 205.22 132.757 209.886 133.735 214.63C134.832 219.629 135.745 224.536 137.886 229.169C142.884 240.655 155.884 247.311 167.767 244.518L167.871 244.492V244.498Z" fill="#FBFCFE"/>
<path d="M172.658 212.233L168.428 192.362C166.634 183.95 158.283 178.569 149.774 180.336C146.667 180.985 143.977 182.495 141.889 184.559C147.379 184.958 151.712 189.479 151.712 195.009C151.712 200.538 146.961 205.499 141.102 205.499C140.383 205.499 139.678 205.424 139 205.289L141.848 218.642C143.641 227.055 151.992 232.435 160.501 230.662C169.01 228.889 174.452 220.632 172.658 212.219V212.233Z" fill="black"/>
<path d="M171.447 175.295C175.82 178.246 178.966 182.731 180.979 187.782L132.621 197.081C132.655 196.548 132.692 195.985 132.729 195.476C132.834 194.019 132.958 192.722 133.088 192.149L133.109 192.057L133.118 191.964C133.723 185.786 136.803 181.255 140.553 178.068C144.327 174.861 148.739 173.056 151.819 172.387C160.217 170.56 166.647 172.056 171.447 175.295Z" fill="#9A8CB6" stroke="#806FA2" stroke-width="3"/>
<path d="M315.052 229.75C323.914 228.308 331.614 220.001 333.526 209.905C334.883 202.969 333.441 195.986 332.638 189.03C331.992 183.803 331.177 178.393 328.873 173.655C317.956 150.783 285.5 154.921 287.043 186.295C286.965 190.818 287.729 195.242 288.264 199.719C288.884 204.437 289.36 209.064 290.867 213.514C294.365 224.53 304.846 231.571 314.954 229.763L315.045 229.75H315.052Z" fill="#FBFCFE"/>
<path d="M302.673 236.393V236.452C302.744 238.188 302.516 239.852 302.046 241.444C301.341 243.846 300.082 246.09 298.431 248.166C298.418 248.179 298.411 248.192 298.405 248.198C291.892 256.329 279.278 261.948 270.037 264.937C269.574 265.087 269.117 265.23 268.674 265.367C267.538 265.713 266.468 266.02 265.47 266.287C252.203 269.779 238.225 271.384 224.495 270.294C224.012 270.262 223.535 270.216 223.053 270.177C218.765 269.785 214.497 269.12 210.295 268.173C203.273 266.438 195.331 263.69 190.052 258.45C188.877 257.289 187.833 256.009 186.972 254.587C186.926 254.502 186.868 254.411 186.822 254.326C182.567 246.306 186.789 238.853 193.354 233.098C215.137 215.243 254.356 210.852 280.433 217.867C293.21 221.73 301.53 227.12 302.686 236.413L302.673 236.393Z" fill="#181324"/>
<path d="M224.495 270.288C224.012 270.255 223.535 270.209 223.053 270.17C218.765 269.779 214.497 269.113 210.295 268.167C203.273 266.431 195.331 263.684 190.052 258.443C189.132 257.452 188.31 256.381 187.598 255.213C187.553 255.128 187.501 255.037 187.455 254.952C187.442 254.587 187.533 254.221 187.768 253.875C189.334 251.963 192.46 251.298 194.927 250.684C200.154 249.621 205.838 250.117 210.804 252.446C217.486 255.559 222.713 261.745 224.703 267.449C225.049 268.395 225.226 269.661 224.501 270.281L224.495 270.288Z" fill="#261F3A"/>
<path d="M301.243 241.842C301.1 241.686 300.93 241.535 300.734 241.405C300.721 241.398 300.715 241.392 300.702 241.379C299.814 240.798 298.489 240.459 297.55 240.276C293.112 239.369 287.533 239.819 282.449 242.077C274.834 245.399 268.204 253.458 267.532 262.62C267.388 264.212 267.871 265.028 268.66 265.367C269.111 265.23 269.561 265.087 270.024 264.937C279.265 261.948 291.879 256.329 298.392 248.198C298.405 248.192 298.411 248.179 298.418 248.166C298.489 248.068 298.555 247.97 298.626 247.872V247.885C300.056 246.469 301.687 242.508 301.687 242.508C301.687 242.508 301.707 242.312 301.23 241.842H301.243Z" fill="#261F3A"/>
<path d="M311.359 195.525L309.54 181.838C308.769 176.043 303.477 171.981 297.721 172.759C295.619 173.047 293.752 173.938 292.257 175.235C295.894 175.777 298.552 179.057 298.274 182.808C297.997 186.559 294.583 189.69 290.681 189.4C290.202 189.365 289.736 189.28 289.292 189.155L290.517 198.353C291.289 204.148 296.581 208.21 302.337 207.427C308.093 206.644 312.132 201.311 311.36 195.516L311.359 195.525Z" fill="black"/>
<path d="M328.545 175.552L288.48 182.636C288.472 182.448 288.464 182.257 288.456 182.068C288.446 181.828 288.437 181.59 288.428 181.363C288.406 180.761 288.39 180.184 288.396 179.696C288.402 179.17 288.433 178.876 288.458 178.772L288.482 178.672L288.493 178.569C289.001 173.466 290.774 169.351 293.574 166.316C296.364 163.292 300.262 161.242 305.201 160.408C313.078 159.6 318.382 161.523 322.002 164.644C325.271 167.461 327.312 171.379 328.545 175.552Z" fill="#9A8CB6" stroke="#806FA2" stroke-width="3"/>
<ellipse cx="229.666" cy="312.852" rx="12.9296" ry="6.95922" transform="rotate(28.8604 229.666 312.852)" fill="#C44A4A"/>
<path d="M422.515 287.48L375.368 312.182L371.416 304.641C369.29 300.582 370.856 295.569 374.915 293.441L407.364 276.44C411.423 274.313 416.437 275.88 418.563 279.938L422.515 287.48Z" fill="#181324"/>
<path d="M421.489 276.321C433.269 297.901 432.314 322.245 424.51 337.12C411.307 363.057 377.02 369.775 352.194 356.229C341.21 350.236 327.214 340.085 303.079 324.648C295.165 319.55 279.189 309.239 267.795 306.433C264.719 305.674 261.343 305.215 255.104 306.631C246.238 308.643 242.192 312.242 239.5 319C237.658 322.896 225.087 318.94 226.5 315C227.642 311.825 228.378 309.979 230.53 306.894C237.775 296.548 248.747 292.638 256.382 291.163C284.723 285.677 330.831 318.69 365.14 327.557C371.845 329.263 372.569 328.822 374.779 327.616C378.804 325.462 378.817 321.606 373.414 321.055C370.898 320.791 370.38 320.668 369.017 318.377C366.832 314.703 364.23 307.434 363.639 305.156C363.511 304.666 363.668 304.616 363.668 304.616L421.489 276.321Z" fill="#181324"/>
<path d="M226.258 315.485C227.4 312.31 228.377 309.98 230.53 306.895C237.775 296.549 248.747 292.639 256.382 291.164C256.404 291.16 256.427 291.156 256.45 291.151C256.358 291.844 256.222 293.31 256.446 294.862C257.133 299.902 260.265 304.038 266.129 306.068L266.13 306.07C263.442 305.572 260.245 305.465 255.104 306.632C246.238 308.644 242.692 312.242 240 319C238.159 322.896 224.845 319.426 226.258 315.485Z" fill="#776E89"/>
<path opacity="0.43" d="M417.833 282.869C420.99 293.898 424.997 314.81 420.49 325.374C420.193 325.989 419.073 329.485 415.831 333.689C411.446 339.37 404.734 343.189 402.928 343.643C399.995 344.382 398.212 347.361 398.951 350.298C399.438 352.23 400.894 353.661 402.67 354.204C406.172 355.275 408.246 352.91 409.838 351.1C412.541 348.021 416.852 342.229 419.78 336.33C423.422 328.985 424.082 323.16 424.16 322.833C425.955 312.182 421.085 293.16 417.833 282.869Z" fill="#FFFCFC" fill-opacity="0.38"/>
<path opacity="0.54" d="M226.258 315.485C227.4 312.31 228.377 309.98 230.53 306.895C237.775 296.549 248.747 292.639 256.382 291.164C256.404 291.16 256.427 291.156 256.45 291.151C256.358 291.844 256.222 293.31 256.446 294.862C257.133 299.902 260.265 304.038 266.129 306.068L266.13 306.07C263.442 305.572 260.245 305.465 255.104 306.632C246.238 308.644 242.692 312.242 240 319C238.159 322.896 224.845 319.426 226.258 315.485Z" fill="#DEDEFF"/>
<path opacity="0.38" d="M386.54 289.886C379.11 296.001 402.122 286.089 410.295 279.363C417.897 273.106 394.355 283.454 386.54 289.886Z" fill="#DEDEFF"/>
<path d="M353.154 47.2146C331.293 15.0422 206.217 76.8565 101.334 133.209C-7.3723 191.612 -58.6048 227.553 -85.9759 258.534C-92.2998 269.552 -93.8364 278.683 -89.7203 285.162C-72.2117 312.797 41.1287 281.939 163.43 216.227C285.728 150.513 371.587 74.3342 353.154 47.2146Z" fill="#181324"/>
<path opacity="0.5" d="M308.136 41.1306C308.279 41.1254 392.372 37.7776 281.389 124.535C170.309 211.365 -25.9074 254.831 -25.9074 254.831C101.048 216.049 194.028 143.701 194.028 143.701L97.7216 135.153C-8.50359 192.41 -58.9093 227.895 -85.976 258.533C-92.2999 269.551 -93.8365 278.682 -89.7204 285.161C-72.2118 312.795 41.1286 281.938 163.43 216.226C285.727 150.512 371.587 74.333 353.154 47.2122C346.52 37.4457 330.351 36.3528 308.136 41.1306Z" fill="#181324"/>
<path d="M288.952 71.8893C288.952 71.8893 176.845 182.215 -29.3356 247.301C-29.3356 247.301 -99 92 65.5518 30.6218C213.5 -17.5 288.952 71.8893 288.952 71.8893Z" fill="#181324"/>
<path d="M266.5 53.5C266.5 53.5 215.884 126.325 -47.4476 216.694L-47.4528 216.702C-38.599 235.546 -29.3354 247.301 -29.3354 247.301C176.845 182.215 285 74 285 74C285 74 278.861 67.6811 266.5 53.5Z" fill="#39187A"/>
<path opacity="0.3" d="M76.4999 30C63.8453 36.2758 62.8011 41.9267 53.5 48.7437C53.5 48.7437 152.899 4.39767 195.008 48.7437C237.114 93.0893 232.118 152.329 21.7374 229.252C190.439 175.998 287.5 77.0001 287.5 77.0001C287.5 77.0001 228.5 -9.50002 76.4999 30Z" fill="#181324"/>
<path d="M28.1806 77.1203C28.1806 77.1203 -45.843 126.656 8.03816 231.163L-11.747 238.793C-11.747 238.793 -72.7964 129.516 28.1806 77.1203Z" fill="white" fill-opacity="0.47"/>
</svg>
