<svg width="171" height="64" viewBox="0 0 171 64" fill="none" xmlns="http://www.w3.org/2000/svg">
<g clip-path="url(#clip0_8_250)">
<rect width="171" height="64" rx="32" fill="#FCFDFF"/>
<circle cx="86" cy="104" r="98" fill="#180B3A"/>
<path d="M50.1908 39.26C48.8708 39.26 47.7908 38.86 46.9508 38.06C46.1241 37.26 45.6641 36.16 45.5708 34.76L47.5708 34.54C47.6374 35.5267 47.8974 36.2467 48.3508 36.7C48.8041 37.1533 49.4174 37.38 50.1908 37.38C51.0841 37.38 51.7241 37.0867 52.1108 36.5C52.5108 35.9 52.7108 35.06 52.7108 33.98V26.88H47.2908V25.06H54.7508V34.1C54.7508 35.1667 54.5641 36.0867 54.1908 36.86C53.8308 37.6333 53.3108 38.2267 52.6308 38.64C51.9508 39.0533 51.1374 39.26 50.1908 39.26ZM61.8655 39.18C60.9321 39.18 60.0988 38.96 59.3655 38.52C58.6321 38.08 58.0521 37.4733 57.6255 36.7C57.2121 35.9267 57.0055 35.0467 57.0055 34.06C57.0055 33.0733 57.2121 32.2 57.6255 31.44C58.0388 30.6667 58.6121 30.06 59.3455 29.62C60.0921 29.18 60.9321 28.96 61.8655 28.96C62.8121 28.96 63.6455 29.18 64.3655 29.62C65.0855 30.06 65.6521 30.6667 66.0655 31.44C66.4921 32.2 66.7055 33.0733 66.7055 34.06C66.7055 35.0467 66.4921 35.9267 66.0655 36.7C65.6521 37.46 65.0788 38.0667 64.3455 38.52C63.6255 38.96 62.7988 39.18 61.8655 39.18ZM61.8655 37.44C62.4521 37.44 62.9588 37.3 63.3855 37.02C63.8255 36.74 64.1588 36.3467 64.3855 35.84C64.6255 35.3333 64.7455 34.74 64.7455 34.06C64.7455 33.3667 64.6255 32.7667 64.3855 32.26C64.1588 31.7533 63.8255 31.3667 63.3855 31.1C62.9588 30.82 62.4521 30.68 61.8655 30.68C61.2655 30.68 60.7455 30.82 60.3055 31.1C59.8788 31.38 59.5455 31.7733 59.3055 32.28C59.0788 32.7733 58.9655 33.3667 58.9655 34.06C58.9655 34.74 59.0788 35.3333 59.3055 35.84C59.5455 36.3467 59.8788 36.74 60.3055 37.02C60.7455 37.3 61.2655 37.44 61.8655 37.44ZM68.9494 39V29.14H70.9094V39H68.9494ZM68.8094 27.44V25.06H71.0294V27.44H68.8094ZM73.6178 39V29.14H75.5978V31.28L75.1978 31.4C75.3711 30.8533 75.6178 30.4067 75.9378 30.06C76.2711 29.7 76.6578 29.4267 77.0978 29.24C77.5511 29.0533 78.0378 28.96 78.5578 28.96C79.6511 28.96 80.5045 29.28 81.1178 29.92C81.7445 30.5467 82.0578 31.4667 82.0578 32.68V39H80.0978V33.4C80.0978 32.4533 79.9245 31.76 79.5778 31.32C79.2445 30.88 78.7245 30.66 78.0178 30.66C77.4845 30.66 77.0378 30.78 76.6778 31.02C76.3311 31.26 76.0645 31.64 75.8778 32.16C75.6911 32.68 75.5978 33.34 75.5978 34.14V39H73.6178ZM89.8678 39V29.14H91.8478V31.28L91.4478 31.4C91.6211 30.8533 91.8678 30.4067 92.1878 30.06C92.5211 29.7 92.9078 29.4267 93.3478 29.24C93.8011 29.0533 94.2878 28.96 94.8078 28.96C95.9011 28.96 96.7545 29.28 97.3678 29.92C97.9945 30.5467 98.3078 31.4667 98.3078 32.68V39H96.3478V33.4C96.3478 32.4533 96.1745 31.76 95.8278 31.32C95.4945 30.88 94.9745 30.66 94.2678 30.66C93.7345 30.66 93.2878 30.78 92.9278 31.02C92.5811 31.26 92.3145 31.64 92.1278 32.16C91.9411 32.68 91.8478 33.34 91.8478 34.14V39H89.8678ZM105.323 39.18C104.389 39.18 103.556 38.96 102.823 38.52C102.089 38.08 101.509 37.4733 101.083 36.7C100.669 35.9267 100.463 35.0467 100.463 34.06C100.463 33.0733 100.669 32.2 101.083 31.44C101.496 30.6667 102.069 30.06 102.803 29.62C103.549 29.18 104.389 28.96 105.323 28.96C106.269 28.96 107.103 29.18 107.823 29.62C108.543 30.06 109.109 30.6667 109.523 31.44C109.949 32.2 110.163 33.0733 110.163 34.06C110.163 35.0467 109.949 35.9267 109.523 36.7C109.109 37.46 108.536 38.0667 107.803 38.52C107.083 38.96 106.256 39.18 105.323 39.18ZM105.323 37.44C105.909 37.44 106.416 37.3 106.843 37.02C107.283 36.74 107.616 36.3467 107.843 35.84C108.083 35.3333 108.203 34.74 108.203 34.06C108.203 33.3667 108.083 32.7667 107.843 32.26C107.616 31.7533 107.283 31.3667 106.843 31.1C106.416 30.82 105.909 30.68 105.323 30.68C104.723 30.68 104.203 30.82 103.763 31.1C103.336 31.38 103.003 31.7733 102.763 32.28C102.536 32.7733 102.423 33.3667 102.423 34.06C102.423 34.74 102.536 35.3333 102.763 35.84C103.003 36.3467 103.336 36.74 103.763 37.02C104.203 37.3 104.723 37.44 105.323 37.44ZM114.409 39L111.449 29.14H113.529L115.409 36.02L117.589 29.14H119.289L121.469 35.98L123.369 29.14H125.449L122.469 39H120.689L118.449 31.88L116.209 39H114.409Z" fill="#FCFDFF"/>
</g>
<defs>
<clipPath id="clip0_8_250">
<rect width="171" height="64" rx="32" fill="white"/>
</clipPath>
</defs>
</svg>
