<svg width="123" height="123" viewBox="0 0 123 123" fill="none" xmlns="http://www.w3.org/2000/svg">
<g clip-path="url(#clip0_142_27)">
<path d="M50.3337 16.4559C48.5274 16.9126 47.0461 16.8003 45.8898 16.1265C44.7335 15.4527 43.9248 14.2098 43.4563 12.3906L41.1285 3.35405L43.7737 2.68772L46.0258 11.4248C46.2148 12.1585 46.4491 12.7499 46.7363 13.2066C47.0234 13.6633 47.4013 13.9628 47.885 14.105C48.3687 14.2473 48.9733 14.2323 49.7139 14.0451C50.4546 13.858 50.9987 13.5884 51.3464 13.2291C51.7016 12.8697 51.8905 12.428 51.9283 11.889C51.9661 11.3499 51.8905 10.7285 51.7092 10.0098L49.457 1.25775L52.1022 0.591431L54.4072 9.53062C54.8833 11.3724 54.77 12.8772 54.0822 14.0377C53.3945 15.1981 52.1475 16.0067 50.3412 16.4634L50.3337 16.4559Z" fill="white"/>
<path d="M57.5965 14.6067L57.8383 0L62.7054 0.0748676C64.3681 0.104815 65.6227 0.471666 66.454 1.1904C67.2853 1.90912 67.6935 2.97224 67.6708 4.38724C67.6481 5.80224 67.2022 6.86536 66.3255 7.59158C65.4564 8.31779 64.2018 8.66967 62.5618 8.63972L60.4004 8.60229L60.3021 14.6366L57.5965 14.5917V14.6067ZM60.4382 6.20653L62.32 6.23647C63.1362 6.25145 63.7711 6.11668 64.2321 5.83967C64.6855 5.56266 64.9198 5.06854 64.9349 4.37227C64.9425 3.69846 64.7384 3.22679 64.3152 2.94978C63.892 2.67277 63.242 2.52304 62.388 2.50807L60.5062 2.47812L60.4457 6.20653H60.4382Z" fill="white"/>
<path d="M73.6488 15.7521L79.0223 2.14868L81.6448 3.16688L83.9801 15.9543L83.3528 15.7072L87.4263 5.39794L89.9657 6.38619L84.5922 19.9896L81.9546 18.9639L79.6496 6.16159L80.2769 6.40865L76.1957 16.7329L73.6564 15.7446L73.6488 15.7521Z" fill="white"/>
<path d="M86.1945 21.0528L94.9689 9.30603L102.859 15.0933L101.4 17.0473L95.7019 12.8697L93.6085 15.6698L98.929 19.5704L97.478 21.5095L92.1574 17.6088L89.8372 20.7084L95.5357 24.886L94.0771 26.84L86.1869 21.0528H86.1945Z" fill="white"/>
<path d="M94.538 26.9749L103.358 26.2187L106.056 17.8485L108.104 20.3865L106.018 26.4957L112.495 25.8219L114.528 28.345L105.708 29.1311L103.04 37.5013L100.992 34.9632L102.972 28.884L96.5786 29.4904L94.5456 26.9674L94.538 26.9749Z" fill="white"/>
<path d="M104.582 41.3943L115.843 36.5055L114.006 32.3578L116.251 31.3845L121.027 42.1729L118.783 43.1462L116.954 39.021L105.693 43.9099L104.582 41.3943Z" fill="white"/>
<path d="M106.94 74.1489C107.454 72.3745 108.293 71.1616 109.464 70.5178C110.636 69.8664 112.132 69.799 113.946 70.3156L123 72.8836L122.244 75.4815L113.5 72.9959C112.767 72.7863 112.132 72.6889 111.596 72.7039C111.059 72.7189 110.598 72.8911 110.235 73.2355C109.865 73.5724 109.578 74.1039 109.366 74.8302C109.154 75.5564 109.117 76.1553 109.253 76.642C109.389 77.1211 109.676 77.5179 110.122 77.8174C110.568 78.1168 111.157 78.3714 111.875 78.5735L120.642 81.0591L119.894 83.657L110.946 81.119C109.102 80.595 107.847 79.7415 107.182 78.566C106.517 77.3906 106.441 75.9157 106.955 74.1414L106.94 74.1489Z" fill="white"/>
<path d="M104.839 81.2688L117.528 88.7107L115.049 92.8583C114.203 94.2808 113.258 95.1643 112.208 95.5311C111.157 95.898 110.031 95.7108 108.799 94.9921C107.575 94.2733 106.857 93.36 106.653 92.2444C106.449 91.1364 106.759 89.8786 107.598 88.4861L108.701 86.6443L103.456 83.5673L104.839 81.2614V81.2688ZM110.794 87.8796L109.835 89.4818C109.419 90.1781 109.223 90.792 109.238 91.3236C109.253 91.8551 109.57 92.2968 110.175 92.6562C110.757 93.0006 111.278 93.053 111.732 92.8284C112.185 92.6038 112.639 92.1172 113.069 91.3835L114.029 89.7813L110.787 87.8796H110.794Z" fill="white"/>
<path d="M95.7549 94.4156L104.9 105.878L102.693 107.607L90.3663 103.145L90.8954 102.726L97.8257 111.411L95.6869 113.088L86.5422 101.625L88.7641 99.881L101.083 104.373L100.554 104.792L93.6161 96.0927L95.7549 94.4156Z" fill="white"/>
<path d="M84.7963 102.479L90.6006 115.91L81.5768 119.736L80.6094 117.497L87.1241 114.735L85.741 111.538L79.6496 114.121L78.6898 111.905L84.7812 109.322L83.247 105.773L76.7324 108.536L75.765 106.297L84.7888 102.471L84.7963 102.479Z" fill="white"/>
<path d="M75.4475 106.619L71.6385 114.533L77.5485 121.083L74.2988 121.548L70.0438 116.666L67.3458 122.536L64.1187 123L67.905 115.072L61.9723 108.551L65.2221 108.086L69.5073 112.855L72.2204 107.091L75.4475 106.634V106.619Z" fill="white"/>
<path d="M57.793 107.899L56.3646 119.998L60.9068 120.522L60.6196 122.94L48.807 121.577L49.0942 119.159L53.6137 119.683L55.0421 107.585L57.793 107.907V107.899Z" fill="white"/>
<path d="M31.7646 96.7889C33.1854 97.9793 33.9563 99.2371 34.0697 100.562C34.183 101.887 33.6313 103.265 32.4145 104.695L26.3382 111.815L24.2523 110.07L30.1246 103.19C30.6158 102.614 30.9635 102.082 31.1751 101.588C31.3867 101.094 31.4094 100.615 31.2507 100.135C31.092 99.6638 30.7216 99.1846 30.1397 98.698C29.5578 98.2114 29.0212 97.9269 28.5224 97.852C28.0236 97.7771 27.5474 97.8745 27.0864 98.159C26.6254 98.4435 26.1493 98.8627 25.6732 99.4317L19.7858 106.334L17.6999 104.59L23.7157 97.545C24.9552 96.0926 26.2551 95.3065 27.6079 95.1942C28.9607 95.0744 30.3513 95.6135 31.7721 96.8039L31.7646 96.7889Z" fill="white"/>
<path d="M26.0813 91.9822L14.042 100.427L11.2306 96.4968C10.2708 95.1491 9.83244 93.9288 9.92313 92.8432C10.0138 91.7502 10.6411 90.7993 11.805 89.9833C12.9688 89.1672 14.1025 88.8902 15.2135 89.1597C16.3244 89.4293 17.3447 90.2229 18.297 91.548L19.544 93.2924L24.5169 89.8036L26.0813 91.9897V91.9822ZM17.5563 94.6775L16.468 93.1577C15.9919 92.4988 15.5082 92.0646 15.0094 91.8699C14.5106 91.6678 13.974 91.7726 13.3996 92.1769C12.8479 92.5662 12.5834 93.0154 12.6061 93.517C12.6288 94.0186 12.8933 94.6251 13.3921 95.3213L14.4804 96.8412L17.5563 94.685V94.6775Z" fill="white"/>
<path d="M17.6621 78.4014L3.35558 81.9577L2.66784 79.2549L11.8352 69.9564L12.0015 70.6077L1.16388 73.2955L0.49881 70.6751L14.8054 67.1189L15.4931 69.8441L6.30305 79.1277L6.13678 78.4763L16.9971 75.7811L17.6621 78.4014Z" fill="white"/>
<path d="M14.7449 65.1947L0 64.9401L0.173825 55.2148L2.63005 55.2598L2.50912 62.2823L6.02341 62.3422L6.13677 55.7838L8.57032 55.8288L8.45696 62.3872L12.3491 62.4545L12.47 55.432L14.9263 55.4769L14.7524 65.2022L14.7449 65.1947Z" fill="white"/>
<path d="M14.76 55.0277L9.02377 48.3495L0.574371 51.0223L1.47373 47.9003L7.70875 46.0436L3.40091 41.2071L4.29271 38.1001L10.0592 44.7633L18.4934 42.0681L17.5941 45.1901L11.4498 47.1216L15.6593 51.9281L14.7676 55.0352L14.76 55.0277Z" fill="white"/>
<path d="M20.791 38.5719L10.2481 32.313L7.89771 36.1986L5.78914 34.9483L11.9032 24.8412L14.0118 26.0915L11.6765 29.9546L22.2194 36.2136L20.791 38.5719Z" fill="white"/>
</g>
<defs>
<clipPath id="clip0_142_27">
<rect width="123" height="123" fill="white"/>
</clipPath>
</defs>
</svg>
