<svg width="157" height="149" viewBox="0 0 157 149" fill="none" xmlns="http://www.w3.org/2000/svg">
<g clip-path="url(#clip0_309_92)">
<path d="M16.74 61.39L3.73 58.34L2.6 63.18L0 62.57L2.95 49.99L5.55 50.6L4.42 55.41L17.43 58.46L16.74 61.39Z" fill="#39187A"/>
<path d="M18.9701 52.85L4.39014 46.18L5.59014 43.57L12.2001 46.59L12.0601 47.06C11.5201 46.59 11.1301 46.09 10.9101 45.56C10.6901 45.03 10.6001 44.49 10.6401 43.94C10.6801 43.39 10.8101 42.88 11.0201 42.41C11.5601 41.24 12.3101 40.47 13.2701 40.11C14.2401 39.75 15.3201 39.85 16.5201 40.39L23.2501 43.47L22.0501 46.08L16.2801 43.44C15.4201 43.05 14.7101 42.91 14.1801 43.04C13.6501 43.17 13.2201 43.55 12.9201 44.21C12.5801 44.95 12.5901 45.63 12.9501 46.25C13.3101 46.87 14.0701 47.44 15.2201 47.97L20.1601 50.23L18.9601 52.84L18.9701 52.85Z" fill="#39187A"/>
<path d="M28.4898 35.92L26.9698 35.12L22.5398 31.95C21.9898 31.56 21.4598 31.44 20.9498 31.59C20.4398 31.74 19.9698 32.11 19.5498 32.7C19.1998 33.19 18.9398 33.75 18.7798 34.39C18.6098 35.03 18.5698 35.67 18.6398 36.31L16.2098 36.35C16.1498 35.33 16.2498 34.39 16.4998 33.55C16.7498 32.71 17.1598 31.89 17.7298 31.1C18.6398 29.83 19.6698 29.06 20.8098 28.81C21.9498 28.55 23.0898 28.83 24.2098 29.63L30.0298 33.79L28.4998 35.92H28.4898ZM26.6798 38.84C26.1998 39.51 25.6398 40.03 25.0098 40.38C24.3798 40.73 23.7298 40.9 23.0498 40.87C22.3698 40.85 21.7298 40.62 21.1298 40.19C20.5898 39.81 20.2098 39.37 19.9898 38.88C19.7698 38.39 19.6798 37.89 19.7398 37.39C19.7798 36.94 19.8898 36.51 20.0898 36.07C20.2898 35.64 20.5398 35.2 20.8498 34.76L22.8998 31.9L24.6198 33.13L22.8098 35.66C22.6698 35.86 22.5398 36.07 22.4298 36.28C22.3198 36.49 22.2798 36.71 22.2898 36.93C22.2898 37.12 22.3298 37.29 22.4198 37.44C22.5098 37.6 22.6298 37.73 22.7898 37.85C23.1398 38.1 23.5198 38.16 23.9298 38.04C24.3398 37.92 24.7098 37.63 25.0398 37.16C25.3298 36.75 25.5098 36.31 25.5798 35.83C25.6398 35.36 25.5898 34.91 25.4198 34.47C25.2498 34.04 24.9598 33.67 24.5498 33.38L26.2298 33.65C26.7598 34.28 27.1098 34.9 27.2798 35.52C27.4498 36.14 27.4698 36.73 27.3598 37.29C27.2398 37.85 27.0198 38.36 26.6798 38.84Z" fill="#39187A"/>
<path d="M34.6701 29.39C34.2401 29.83 33.7601 30.15 33.2301 30.36C32.7001 30.57 32.1401 30.6 31.5501 30.46C30.9601 30.32 30.3501 29.94 29.7301 29.33L22.1401 21.86L23.0701 18.71L31.2001 26.71C31.6701 27.17 32.0901 27.46 32.4501 27.57C32.8101 27.68 33.1801 27.55 33.5401 27.18C33.6501 27.07 33.7601 26.94 33.8701 26.78C33.9801 26.62 34.1001 26.44 34.2101 26.23L35.7701 27.76C35.6301 28.07 35.4701 28.37 35.2801 28.63C35.0901 28.9 34.8901 29.15 34.6601 29.38L34.6701 29.39ZM24.1601 26.76L22.5701 25.2L27.7801 19.91L29.3701 21.47L24.1601 26.76Z" fill="#39187A"/>
<path d="M30.6402 19.68L27.7402 13.8L30.3102 11.71L32.1102 18.5L30.6502 19.69L30.6402 19.68Z" fill="#39187A"/>
<path d="M45.0901 21.2599C44.3701 21.7099 43.6801 21.9899 43.0201 22.1199C42.3601 22.2399 41.7401 22.2699 41.1801 22.1799C40.6101 22.0999 40.1301 21.9799 39.7301 21.8399L40.4901 19.3599C40.9401 19.5899 41.4601 19.7299 42.0601 19.7799C42.6601 19.8299 43.2701 19.6599 43.8801 19.2799C44.3601 18.9799 44.6801 18.6499 44.8301 18.2999C44.9801 17.9499 44.9601 17.6199 44.7901 17.3399C44.6401 17.1099 44.4401 16.9699 44.1801 16.9199C43.9201 16.8799 43.6101 16.8899 43.2701 16.9699C42.9201 17.0499 42.5501 17.1599 42.1401 17.2799C41.7101 17.3999 41.2601 17.5199 40.7901 17.6299C40.3201 17.7399 39.8501 17.7899 39.3901 17.7799C38.9301 17.7699 38.4901 17.6599 38.0801 17.4399C37.6701 17.2299 37.3001 16.8699 36.9901 16.3599C36.4601 15.5099 36.3701 14.6199 36.7001 13.6799C37.0301 12.7399 37.7501 11.9299 38.8401 11.2499C39.6101 10.7699 40.4001 10.4899 41.2201 10.4099C42.0401 10.3299 42.8001 10.4599 43.5201 10.7999L42.7601 12.9299C42.2901 12.6999 41.8001 12.6099 41.3001 12.6599C40.8001 12.7099 40.3301 12.8699 39.9001 13.1399C39.5201 13.3699 39.2601 13.6399 39.1101 13.9299C38.9601 14.2199 38.9601 14.4899 39.1101 14.7399C39.2201 14.9099 39.3601 15.0199 39.5401 15.0699C39.7201 15.1199 39.9701 15.1099 40.2701 15.0299C40.5801 14.9599 40.9701 14.8399 41.4501 14.6899C41.9001 14.5399 42.3701 14.3999 42.8701 14.2699C43.3701 14.1399 43.8701 14.0699 44.3701 14.0699C44.8701 14.0699 45.3501 14.1699 45.8001 14.3999C46.2501 14.6299 46.6501 15.0199 47.0001 15.5799C47.4001 16.2199 47.5901 16.8799 47.5601 17.5699C47.5401 18.2599 47.3201 18.9199 46.9101 19.5599C46.4901 20.1999 45.8901 20.7699 45.1001 21.2599H45.0901Z" fill="#39187A"/>
<path d="M57.73 14.77L51.48 4.68001L54.42 3.91001L58.03 10.17L58.25 2.91001L60.63 2.29001L64.36 8.47001L64.48 1.28001L67.44 0.51001L66.9 12.37L64.43 13.02L60.47 6.52001L60.24 14.12L57.72 14.78L57.73 14.77Z" fill="#39187A"/>
<path d="M75.21 11.8299C74.38 11.8599 73.64 11.7199 72.98 11.4399C72.32 11.1499 71.79 10.7299 71.4 10.1799C71.01 9.61994 70.8 8.97994 70.78 8.23994C70.76 7.57994 70.88 7.00994 71.13 6.53994C71.38 6.05994 71.73 5.69994 72.17 5.43994C72.55 5.19994 72.97 5.01994 73.43 4.91994C73.89 4.81994 74.39 4.74994 74.93 4.73994L78.45 4.62994L78.52 6.74994L75.42 6.83994C75.17 6.83994 74.93 6.86994 74.7 6.91994C74.46 6.96994 74.26 7.05994 74.1 7.19994C73.95 7.30994 73.84 7.44994 73.77 7.60994C73.7 7.76994 73.67 7.94994 73.67 8.14994C73.68 8.57994 73.86 8.91994 74.21 9.16994C74.55 9.41994 75.01 9.53994 75.58 9.51994C76.08 9.49994 76.55 9.37994 76.96 9.13994C77.37 8.90994 77.7 8.58994 77.94 8.18994C78.18 7.78994 78.29 7.33994 78.28 6.82994L79.08 8.31994C78.91 9.11994 78.62 9.77994 78.23 10.2899C77.84 10.7999 77.39 11.1799 76.87 11.4199C76.36 11.6699 75.81 11.7999 75.23 11.8199L75.21 11.8299ZM78.63 11.4999L78.35 9.80994L78.18 4.35994C78.16 3.68994 77.93 3.18994 77.5 2.86994C77.07 2.54994 76.49 2.40994 75.77 2.42994C75.17 2.44994 74.57 2.58994 73.95 2.83994C73.34 3.09994 72.8 3.44994 72.34 3.88994L70.83 1.97994C71.61 1.30994 72.41 0.819939 73.24 0.509939C74.07 0.199939 74.96 0.029939 75.93 -6.0956e-05C77.49 -0.050061 78.72 0.309939 79.62 1.05994C80.52 1.80994 80.99 2.87994 81.03 4.25994L81.25 11.4099L78.63 11.4899V11.4999Z" fill="#39187A"/>
<path d="M83.1001 16.31L86.2001 11.14L83.5001 0.160034L86.5901 0.620034L88.1101 8.54003L91.9201 1.41003L94.9701 1.86003L86.1701 16.76L83.1001 16.3V16.31Z" fill="#39187A"/>
<path d="M100.57 15.6001L104.04 7.18006L102.15 6.40006L103 4.34006L104.91 5.13006L105.37 4.02006C105.74 3.11006 106.18 2.47006 106.68 2.10006C107.18 1.73006 107.73 1.54006 108.31 1.55006C108.9 1.55006 109.48 1.68006 110.06 1.92006C110.5 2.10006 110.86 2.30006 111.15 2.50006C111.44 2.71006 111.7 2.95006 111.94 3.21006L110.26 4.88006C110.15 4.75006 110.02 4.63006 109.89 4.52006C109.75 4.41006 109.61 4.32006 109.45 4.25006C109.11 4.11006 108.82 4.12006 108.59 4.29006C108.35 4.46006 108.16 4.73006 108 5.12006L107.55 6.20006L109.78 7.12006L108.93 9.18006L106.7 8.26006L103.23 16.6801L100.57 15.5901V15.6001Z" fill="#39187A"/>
<path d="M110.66 20.81C109.72 20.24 109.01 19.51 108.54 18.63C108.07 17.75 107.85 16.8 107.89 15.78C107.93 14.75 108.24 13.76 108.83 12.79C109.43 11.81 110.16 11.07 111.04 10.57C111.92 10.07 112.86 9.83002 113.86 9.84002C114.86 9.86002 115.84 10.15 116.78 10.72C117.71 11.28 118.41 12 118.88 12.88C119.35 13.76 119.57 14.7 119.53 15.71C119.49 16.72 119.17 17.71 118.58 18.7C117.99 19.67 117.26 20.41 116.38 20.91C115.5 21.42 114.56 21.67 113.56 21.66C112.56 21.66 111.59 21.37 110.66 20.81ZM111.96 18.67C112.46 18.97 112.96 19.12 113.46 19.1C113.96 19.08 114.44 18.91 114.89 18.6C115.34 18.28 115.75 17.82 116.12 17.22C116.49 16.6 116.72 16.03 116.78 15.48C116.85 14.94 116.78 14.44 116.55 14C116.33 13.55 115.97 13.18 115.47 12.88C114.96 12.57 114.45 12.42 113.94 12.42C113.43 12.42 112.95 12.58 112.5 12.89C112.04 13.2 111.63 13.66 111.26 14.27C110.89 14.87 110.68 15.45 110.61 16C110.54 16.55 110.62 17.06 110.85 17.52C111.07 17.98 111.44 18.36 111.95 18.67H111.96Z" fill="#39187A"/>
<path d="M116.81 24.66L124.25 16.11L126.42 18L124.4 20.32L124.04 20.07C124.51 19.6 125.04 19.29 125.64 19.14C126.24 18.99 126.82 18.98 127.4 19.1C127.98 19.22 128.46 19.46 128.87 19.81C129.16 20.06 129.4 20.34 129.6 20.64C129.79 20.94 129.95 21.3 130.08 21.72L127.35 22.76C127.28 22.58 127.18 22.38 127.03 22.15C126.88 21.92 126.71 21.72 126.52 21.55C126.29 21.35 126.03 21.2 125.75 21.09C125.47 20.98 125.16 20.95 124.85 20.97C124.53 21 124.19 21.11 123.84 21.31C123.65 21.43 123.44 21.6 123.19 21.83C122.94 22.05 122.62 22.4 122.2 22.88L119 26.56L116.83 24.67L116.81 24.66Z" fill="#39187A"/>
<path d="M124.04 38.3801L129.93 37.1301L136.14 27.6801L137.91 30.2601L133.14 36.7601L140.95 34.6901L142.69 37.2301L125.79 40.9201L124.04 38.3601V38.3801Z" fill="#39187A"/>
<path d="M135.5 49.08C135.05 48.07 134.89 47.07 135 46.08C135.12 45.09 135.48 44.19 136.1 43.37C136.72 42.55 137.55 41.91 138.58 41.45C139.63 40.98 140.66 40.8 141.66 40.89C142.66 40.98 143.58 41.32 144.39 41.91C145.2 42.5 145.83 43.3 146.28 44.31C146.72 45.31 146.88 46.3 146.77 47.29C146.65 48.28 146.29 49.18 145.69 49.98C145.08 50.79 144.25 51.42 143.2 51.89C142.16 52.35 141.14 52.53 140.13 52.45C139.12 52.37 138.2 52.03 137.39 51.45C136.57 50.87 135.94 50.09 135.5 49.09V49.08ZM137.79 48.06C138.03 48.59 138.36 49 138.78 49.27C139.2 49.54 139.69 49.68 140.24 49.68C140.79 49.68 141.39 49.54 142.04 49.25C142.7 48.96 143.21 48.61 143.58 48.2C143.95 47.79 144.17 47.35 144.24 46.85C144.31 46.35 144.24 45.84 144 45.31C143.76 44.76 143.43 44.35 143.01 44.06C142.59 43.78 142.11 43.63 141.56 43.62C141.01 43.62 140.41 43.75 139.75 44.04C139.1 44.33 138.6 44.68 138.23 45.09C137.86 45.51 137.64 45.97 137.56 46.47C137.48 46.97 137.56 47.5 137.81 48.05L137.79 48.06Z" fill="#39187A"/>
<path d="M139.08 59.6101C138.88 58.7101 138.89 57.92 139.11 57.23C139.33 56.54 139.74 55.9801 140.34 55.5401C140.93 55.1001 141.67 54.78 142.55 54.59L149.46 53.05L150.08 55.8301L143.86 57.2201C143.35 57.3301 142.91 57.4901 142.54 57.7001C142.17 57.9101 141.9 58.19 141.74 58.55C141.58 58.91 141.56 59.3601 141.68 59.9001C141.83 60.5601 142.13 61.01 142.57 61.2701C143.02 61.5201 143.59 61.64 144.28 61.62C144.97 61.6 145.77 61.4901 146.67 61.2901L151.07 60.3101L151.69 63.09L140.62 65.56L140 62.78L142.4 62.2401L142.26 62.67C141.33 62.53 140.61 62.18 140.09 61.62C139.57 61.06 139.23 60.39 139.05 59.6101H139.08Z" fill="#39187A"/>
<path d="M139.54 88.19L152.51 91.43L153.71 86.61L156.3 87.26L153.17 99.8L150.58 99.15L151.78 94.35L138.82 91.11L139.55 88.19H139.54Z" fill="#39187A"/>
<path d="M137.18 96.72L151.66 103.6L150.43 106.2L143.87 103.08L144.01 102.61C144.55 103.09 144.92 103.59 145.14 104.13C145.35 104.66 145.44 105.2 145.39 105.75C145.34 106.29 145.21 106.8 144.98 107.28C144.43 108.44 143.66 109.2 142.69 109.54C141.72 109.88 140.64 109.77 139.45 109.21L132.76 106.03L133.99 103.43L139.72 106.16C140.58 106.57 141.28 106.71 141.82 106.6C142.36 106.48 142.78 106.1 143.09 105.45C143.44 104.72 143.44 104.04 143.09 103.41C142.74 102.79 141.99 102.2 140.84 101.65L135.94 99.32L137.17 96.72H137.18Z" fill="#39187A"/>
<path d="M127.42 113.51L128.93 114.33L133.32 117.56C133.86 117.96 134.39 118.09 134.91 117.94C135.43 117.8 135.9 117.43 136.32 116.85C136.68 116.37 136.94 115.81 137.12 115.17C137.3 114.53 137.35 113.89 137.29 113.25H139.72C139.77 114.27 139.65 115.2 139.39 116.04C139.12 116.88 138.7 117.69 138.13 118.47C137.2 119.73 136.16 120.48 135.02 120.72C133.87 120.96 132.74 120.67 131.63 119.85L125.87 115.61L127.43 113.5L127.42 113.51ZM129.27 110.61C129.76 109.94 130.32 109.44 130.96 109.1C131.59 108.76 132.25 108.6 132.93 108.64C133.61 108.67 134.24 108.91 134.84 109.35C135.37 109.74 135.74 110.18 135.96 110.68C136.18 111.17 136.25 111.67 136.19 112.18C136.15 112.62 136.02 113.06 135.82 113.49C135.62 113.92 135.35 114.35 135.04 114.78L132.95 117.61L131.25 116.35L133.09 113.85C133.24 113.65 133.36 113.45 133.47 113.23C133.58 113.02 133.63 112.8 133.62 112.58C133.62 112.39 133.59 112.22 133.5 112.06C133.42 111.9 133.29 111.77 133.13 111.65C132.78 111.4 132.41 111.33 132 111.44C131.59 111.56 131.22 111.84 130.88 112.3C130.58 112.71 130.4 113.15 130.32 113.62C130.25 114.09 130.3 114.54 130.46 114.98C130.63 115.42 130.91 115.78 131.32 116.08L129.65 115.79C129.13 115.16 128.78 114.53 128.62 113.91C128.46 113.29 128.44 112.7 128.57 112.14C128.69 111.58 128.93 111.07 129.28 110.6L129.27 110.61Z" fill="#39187A"/>
<path d="M121.15 119.94C121.59 119.51 122.07 119.19 122.6 118.99C123.13 118.79 123.69 118.76 124.28 118.91C124.87 119.06 125.47 119.45 126.09 120.07L133.57 127.65L132.59 130.78L124.57 122.66C124.11 122.19 123.69 121.9 123.33 121.78C122.97 121.66 122.6 121.78 122.23 122.16C122.12 122.27 122.01 122.4 121.9 122.56C121.79 122.72 121.67 122.9 121.55 123.1L120.01 121.55C120.15 121.24 120.32 120.95 120.51 120.68C120.7 120.41 120.91 120.17 121.14 119.94H121.15ZM131.62 122.72L133.19 124.31L127.9 129.53L126.33 127.94L131.62 122.72Z" fill="#39187A"/>
<path d="M125.04 129.71L127.86 135.63L125.26 137.69L123.56 130.88L125.04 129.71Z" fill="#39187A"/>
<path d="M110.61 127.93C111.33 127.49 112.03 127.22 112.69 127.1C113.35 126.98 113.97 126.97 114.53 127.06C115.09 127.15 115.58 127.27 115.97 127.42L115.18 129.89C114.74 129.66 114.21 129.51 113.61 129.45C113.01 129.39 112.4 129.55 111.78 129.92C111.3 130.21 110.97 130.54 110.82 130.89C110.67 131.24 110.68 131.56 110.85 131.85C110.99 132.09 111.19 132.23 111.46 132.28C111.72 132.33 112.03 132.31 112.38 132.24C112.73 132.16 113.11 132.07 113.52 131.94C113.95 131.82 114.4 131.71 114.87 131.61C115.34 131.5 115.81 131.46 116.27 131.48C116.73 131.5 117.16 131.62 117.57 131.84C117.98 132.06 118.34 132.42 118.65 132.94C119.17 133.79 119.25 134.69 118.9 135.62C118.55 136.56 117.83 137.36 116.72 138.02C115.94 138.49 115.15 138.76 114.33 138.83C113.51 138.9 112.75 138.76 112.03 138.4L112.82 136.28C113.29 136.52 113.77 136.61 114.27 136.57C114.77 136.53 115.24 136.37 115.67 136.11C116.05 135.88 116.32 135.62 116.47 135.33C116.63 135.04 116.63 134.77 116.47 134.52C116.37 134.35 116.22 134.24 116.04 134.19C115.86 134.14 115.61 134.15 115.31 134.22C115 134.29 114.61 134.4 114.12 134.55C113.67 134.7 113.2 134.83 112.7 134.95C112.2 135.07 111.7 135.13 111.2 135.13C110.7 135.13 110.22 135.01 109.78 134.78C109.33 134.55 108.94 134.15 108.6 133.58C108.21 132.94 108.03 132.27 108.06 131.58C108.09 130.89 108.32 130.23 108.74 129.6C109.16 128.97 109.78 128.41 110.58 127.93H110.61Z" fill="#39187A"/>
<path d="M97.8802 134.23L103.98 144.41L101.03 145.13L97.5102 138.82L97.1902 146.08L94.8002 146.67L91.1602 140.44L90.9402 147.62L87.9702 148.35L88.6802 136.5L91.1602 135.89L95.0202 142.45L95.3502 134.86L97.8702 134.24L97.8802 134.23Z" fill="#39187A"/>
<path d="M76.9598 137.21L77.2198 138.91L77.3098 144.36C77.3198 145.03 77.5398 145.53 77.9698 145.86C78.3998 146.19 78.9698 146.34 79.6898 146.33C80.2898 146.32 80.8998 146.19 81.5098 145.94C82.1298 145.69 82.6698 145.35 83.1398 144.91L84.6198 146.84C83.8298 147.5 83.0198 147.97 82.1898 148.27C81.3598 148.57 80.4598 148.73 79.4898 148.74C77.9298 148.77 76.6998 148.4 75.8098 147.63C74.9198 146.86 74.4698 145.79 74.4398 144.41L74.3198 137.26L76.9398 137.22L76.9598 137.21ZM80.3798 136.92C81.2098 136.91 81.9498 137.05 82.6098 137.34C83.2698 137.63 83.7898 138.06 84.1698 138.62C84.5498 139.18 84.7498 139.83 84.7698 140.57C84.7798 141.23 84.6598 141.79 84.3898 142.27C84.1298 142.74 83.7798 143.1 83.3398 143.36C82.9598 143.6 82.5398 143.76 82.0698 143.86C81.5998 143.96 81.0998 144.01 80.5698 144.02L77.0498 144.08L77.0098 141.96L80.1098 141.91C80.3598 141.91 80.5998 141.88 80.8298 141.84C81.0698 141.8 81.2698 141.71 81.4398 141.56C81.5898 141.45 81.6998 141.31 81.7798 141.15C81.8498 140.99 81.8898 140.81 81.8898 140.61C81.8898 140.18 81.7098 139.84 81.3698 139.58C81.0298 139.32 80.5698 139.2 80.0098 139.21C79.4998 139.21 79.0398 139.34 78.6198 139.57C78.1998 139.8 77.8698 140.11 77.6198 140.51C77.3698 140.9 77.2498 141.35 77.2598 141.86L76.4698 140.36C76.6598 139.56 76.9498 138.91 77.3498 138.4C77.7498 137.9 78.2098 137.52 78.7198 137.28C79.2298 137.04 79.7898 136.92 80.3698 136.91L80.3798 136.92Z" fill="#39187A"/>
<path d="M72.5502 132.33L69.3802 137.45L71.9102 148.47L68.8202 147.96L67.4202 140.02L63.5102 147.09L60.4702 146.59L69.4802 131.82L72.5402 132.32L72.5502 132.33Z" fill="#39187A"/>
<path d="M55.0698 132.79L51.4798 141.16L53.3598 141.97L52.4798 144.02L50.5798 143.2L50.1098 144.3C49.7198 145.2 49.2798 145.84 48.7698 146.2C48.2598 146.56 47.7198 146.74 47.1298 146.72C46.5498 146.7 45.9598 146.57 45.3898 146.32C44.9498 146.13 44.5898 145.93 44.3098 145.72C44.0298 145.51 43.7698 145.26 43.5298 145L45.2398 143.35C45.3498 143.48 45.4698 143.6 45.6098 143.72C45.7398 143.84 45.8898 143.93 46.0398 143.99C46.3798 144.13 46.6698 144.12 46.8998 143.96C47.1398 143.79 47.3398 143.52 47.4998 143.14L47.9598 142.06L45.7398 141.11L46.6198 139.06L48.8398 140.01L52.4298 131.64L55.0698 132.77V132.79Z" fill="#39187A"/>
<path d="M45.07 127.45C46.01 128.03 46.7 128.77 47.16 129.66C47.62 130.54 47.82 131.5 47.77 132.52C47.72 133.55 47.39 134.54 46.79 135.5C46.18 136.48 45.43 137.21 44.55 137.69C43.67 138.18 42.72 138.4 41.72 138.37C40.72 138.34 39.75 138.03 38.81 137.45C37.89 136.87 37.2 136.14 36.74 135.26C36.28 134.38 36.08 133.43 36.13 132.42C36.18 131.41 36.51 130.42 37.12 129.45C37.72 128.49 38.47 127.76 39.35 127.27C40.24 126.78 41.18 126.54 42.18 126.56C43.18 126.58 44.14 126.88 45.06 127.46L45.07 127.45ZM43.74 129.57C43.25 129.26 42.75 129.11 42.24 129.12C41.74 129.12 41.26 129.29 40.8 129.6C40.34 129.91 39.93 130.37 39.55 130.96C39.17 131.57 38.94 132.15 38.86 132.69C38.78 133.23 38.86 133.73 39.07 134.18C39.29 134.63 39.64 135.01 40.13 135.32C40.64 135.64 41.14 135.8 41.65 135.8C42.16 135.8 42.64 135.65 43.1 135.35C43.56 135.05 43.98 134.59 44.36 133.98C44.73 133.38 44.96 132.81 45.03 132.26C45.1 131.71 45.03 131.2 44.81 130.74C44.59 130.28 44.23 129.89 43.72 129.57H43.74Z" fill="#39187A"/>
<path d="M38.9499 123.5L31.3799 131.95L29.2399 130.03L31.2999 127.74L31.6599 128C31.1899 128.46 30.6499 128.76 30.0499 128.9C29.4499 129.04 28.8599 129.05 28.2899 128.92C27.7199 128.79 27.2299 128.54 26.8299 128.19C26.5399 127.93 26.3099 127.65 26.1199 127.35C25.9299 127.05 25.7699 126.69 25.6499 126.27L28.3999 125.27C28.4599 125.45 28.5699 125.66 28.7099 125.89C28.8499 126.12 29.0199 126.32 29.2099 126.5C29.4399 126.71 29.6899 126.86 29.9799 126.97C30.2599 127.08 30.5599 127.12 30.8799 127.1C31.1999 127.08 31.5399 126.97 31.8999 126.78C32.0899 126.66 32.3099 126.49 32.5599 126.27C32.8099 126.05 33.1399 125.71 33.5599 125.24L36.8099 121.61L38.9499 123.53V123.5Z" fill="#39187A"/>
<path d="M31.92 109.7L26.01 110.87L19.67 120.23L17.94 117.62L22.8 111.18L14.96 113.14L13.25 110.57L30.2 107.11L31.92 109.69V109.7Z" fill="#39187A"/>
<path d="M20.6102 98.81C21.0402 99.83 21.1902 100.83 21.0602 101.82C20.9302 102.81 20.5502 103.71 19.9202 104.52C19.2902 105.33 18.4502 105.96 17.4102 106.4C16.3502 106.85 15.3202 107.02 14.3202 106.92C13.3202 106.81 12.4102 106.46 11.6102 105.86C10.8102 105.26 10.1902 104.45 9.75015 103.44C9.32015 102.44 9.17015 101.44 9.30015 100.46C9.43015 99.47 9.80015 98.58 10.4202 97.78C11.0402 96.98 11.8802 96.36 12.9402 95.91C13.9802 95.47 15.0102 95.3 16.0202 95.4C17.0302 95.5 17.9402 95.85 18.7502 96.44C19.5602 97.03 20.1802 97.82 20.6002 98.83L20.6102 98.81ZM18.3001 99.8C18.0702 99.26 17.7502 98.86 17.3302 98.58C16.9102 98.3 16.4302 98.16 15.8702 98.15C15.3202 98.15 14.7202 98.28 14.0702 98.55C13.4102 98.83 12.8902 99.17 12.5202 99.57C12.1502 99.97 11.9202 100.42 11.8402 100.91C11.7602 101.4 11.8402 101.92 12.0602 102.45C12.2902 103 12.6202 103.42 13.0302 103.71C13.4502 104 13.9302 104.15 14.4802 104.17C15.0302 104.19 15.6301 104.05 16.3001 103.77C16.9502 103.49 17.4602 103.15 17.8402 102.74C18.2202 102.33 18.4502 101.87 18.5302 101.37C18.6102 100.87 18.5401 100.34 18.3102 99.79L18.3001 99.8Z" fill="#39187A"/>
<path d="M17.1801 88.26C17.3701 89.16 17.3501 89.95 17.1101 90.63C16.8801 91.31 16.4601 91.87 15.8601 92.3C15.2601 92.73 14.5201 93.04 13.6301 93.22L6.7001 94.67L6.1201 91.88L12.3601 90.58C12.8701 90.47 13.3101 90.32 13.6801 90.12C14.0501 89.92 14.3201 89.64 14.4901 89.28C14.6601 88.92 14.6901 88.48 14.5701 87.94C14.4301 87.28 14.1401 86.82 13.6901 86.56C13.2401 86.3 12.6701 86.18 11.9801 86.19C11.2901 86.2 10.4901 86.3 9.5901 86.49L5.1801 87.41L4.6001 84.62L15.7001 82.3L16.2801 85.09L13.8701 85.59L14.0201 85.16C14.9401 85.31 15.6601 85.67 16.1701 86.24C16.6801 86.81 17.0201 87.48 17.1801 88.26Z" fill="#39187A"/>
</g>
<defs>
<clipPath id="clip0_309_92">
<rect width="156.29" height="148.74" fill="white"/>
</clipPath>
</defs>
</svg>
