<svg width="171" height="64" viewBox="0 0 171 64" fill="none" xmlns="http://www.w3.org/2000/svg">
<g clip-path="url(#clip0_8_319)">
<rect width="171" height="64" rx="32" fill="#FCFDFF"/>
<circle cx="86" cy="104" r="98" fill="#5C1909"/>
<path d="M49.14 39.26C47.82 39.26 46.74 38.86 45.9 38.06C45.0733 37.26 44.6133 36.16 44.52 34.76L46.52 34.54C46.5867 35.5267 46.8467 36.2467 47.3 36.7C47.7533 37.1533 48.3667 37.38 49.14 37.38C50.0333 37.38 50.6733 37.0867 51.06 36.5C51.46 35.9 51.66 35.06 51.66 33.98V26.88H46.24V25.06H53.7V34.1C53.7 35.1667 53.5133 36.0867 53.14 36.86C52.78 37.6333 52.26 38.2267 51.58 38.64C50.9 39.0533 50.0867 39.26 49.14 39.26ZM60.8147 39.18C59.8814 39.18 59.048 38.96 58.3147 38.52C57.5814 38.08 57.0014 37.4733 56.5747 36.7C56.1614 35.9267 55.9547 35.0467 55.9547 34.06C55.9547 33.0733 56.1614 32.2 56.5747 31.44C56.988 30.6667 57.5614 30.06 58.2947 29.62C59.0414 29.18 59.8814 28.96 60.8147 28.96C61.7614 28.96 62.5947 29.18 63.3147 29.62C64.0347 30.06 64.6014 30.6667 65.0147 31.44C65.4414 32.2 65.6547 33.0733 65.6547 34.06C65.6547 35.0467 65.4414 35.9267 65.0147 36.7C64.6014 37.46 64.028 38.0667 63.2947 38.52C62.5747 38.96 61.748 39.18 60.8147 39.18ZM60.8147 37.44C61.4014 37.44 61.908 37.3 62.3347 37.02C62.7747 36.74 63.108 36.3467 63.3347 35.84C63.5747 35.3333 63.6947 34.74 63.6947 34.06C63.6947 33.3667 63.5747 32.7667 63.3347 32.26C63.108 31.7533 62.7747 31.3667 62.3347 31.1C61.908 30.82 61.4014 30.68 60.8147 30.68C60.2147 30.68 59.6947 30.82 59.2547 31.1C58.828 31.38 58.4947 31.7733 58.2547 32.28C58.028 32.7733 57.9147 33.3667 57.9147 34.06C57.9147 34.74 58.028 35.3333 58.2547 35.84C58.4947 36.3467 58.828 36.74 59.2547 37.02C59.6947 37.3 60.2147 37.44 60.8147 37.44ZM67.8986 39V29.14H69.8586V39H67.8986ZM67.7586 27.44V25.06H69.9786V27.44H67.7586ZM72.567 39V29.14H74.547V31.28L74.147 31.4C74.3204 30.8533 74.567 30.4067 74.887 30.06C75.2204 29.7 75.607 29.4267 76.047 29.24C76.5004 29.0533 76.987 28.96 77.507 28.96C78.6004 28.96 79.4537 29.28 80.067 29.92C80.6937 30.5467 81.007 31.4667 81.007 32.68V39H79.047V33.4C79.047 32.4533 78.8737 31.76 78.527 31.32C78.1937 30.88 77.6737 30.66 76.967 30.66C76.4337 30.66 75.987 30.78 75.627 31.02C75.2804 31.26 75.0137 31.64 74.827 32.16C74.6404 32.68 74.547 33.34 74.547 34.14V39H72.567ZM91.977 39L87.857 25.06H89.977L93.097 35.9L96.097 25.84H98.117L101.117 35.9L104.217 25.06H106.357L102.237 39H100.237L96.937 28.26H97.277L93.977 39H91.977ZM113.597 39L113.437 37.18V32.8C113.437 32.1067 113.237 31.5733 112.837 31.2C112.437 30.8267 111.857 30.64 111.097 30.64C110.564 30.64 110.05 30.7467 109.557 30.96C109.077 31.1733 108.617 31.52 108.177 32L106.957 30.74C107.544 30.1267 108.19 29.68 108.897 29.4C109.617 29.1067 110.397 28.96 111.237 28.96C112.557 28.96 113.577 29.3 114.297 29.98C115.03 30.6467 115.397 31.5867 115.397 32.8V39H113.597ZM110.417 39.18C109.684 39.18 109.037 39.0467 108.477 38.78C107.917 38.5133 107.484 38.1467 107.177 37.68C106.87 37.2 106.717 36.6467 106.717 36.02C106.717 35.4733 106.83 35.0067 107.057 34.62C107.284 34.22 107.577 33.9133 107.937 33.7C108.27 33.4867 108.65 33.34 109.077 33.26C109.517 33.1667 109.984 33.12 110.477 33.12H113.617V34.6H110.757C110.49 34.6 110.21 34.6267 109.917 34.68C109.637 34.72 109.397 34.8133 109.197 34.96C109.037 35.08 108.91 35.2333 108.817 35.42C108.724 35.5933 108.677 35.8 108.677 36.04C108.677 36.5067 108.857 36.88 109.217 37.16C109.577 37.44 110.057 37.58 110.657 37.58C111.164 37.58 111.624 37.4667 112.037 37.24C112.464 37 112.804 36.68 113.057 36.28C113.31 35.8667 113.437 35.4 113.437 34.88L114.137 35.8C114.017 36.4933 113.784 37.1 113.437 37.62C113.09 38.1267 112.657 38.5133 112.137 38.78C111.63 39.0467 111.057 39.18 110.417 39.18ZM118.663 43.06L120.583 38.42L116.783 29.14H118.943L121.623 36.46L124.343 29.14H126.463L120.803 43.06H118.663Z" fill="white"/>
</g>
<defs>
<clipPath id="clip0_8_319">
<rect width="171" height="64" rx="32" fill="white"/>
</clipPath>
</defs>
</svg>
