<svg width="253" height="269" viewBox="0 0 253 269" fill="none" xmlns="http://www.w3.org/2000/svg">
<path d="M85.7109 259.541L55.6 246.345C51.686 244.631 50.1797 239.846 52.4021 236.2L105.018 150.003C107.801 151.704 110.714 153.218 113.756 154.545C116.789 155.875 119.885 156.989 123.017 157.884L95.3372 254.998C94.1618 259.115 89.6337 261.252 85.7085 259.532L85.7109 259.541Z" fill="#5C1909"/>
<path d="M105.018 150.003C107.802 151.704 110.714 153.218 113.756 154.545L70.6566 252.947L55.6024 246.354C51.6884 244.64 50.1821 239.855 52.4045 236.209L105.02 150.012L105.018 150.003Z" fill="#A83417"/>
<path d="M116.196 181.804L123.011 157.895C119.879 157 116.783 155.886 113.75 154.557C110.717 153.227 107.793 151.707 105.012 150.015L92.0572 171.237L116.199 181.813L116.196 181.804Z" fill="white"/>
<path d="M104.13 176.515L113.747 154.548C110.715 153.218 107.791 151.698 105.009 150.006L92.0547 171.228L104.121 176.518L104.13 176.515Z" fill="#CFDEFF"/>
<path d="M209.799 62.3054C202.788 44.3701 189.224 30.2413 171.589 22.5167C153.954 14.7921 134.364 14.3982 116.438 21.4071C98.5115 28.4159 84.3739 41.9816 76.6581 59.6145C68.9335 77.2497 68.5396 96.839 75.5485 114.766C81.345 129.606 91.6461 141.843 105.026 150.001C107.81 151.702 110.723 153.216 113.765 154.543C116.797 155.873 119.894 156.986 123.026 157.882C138.088 162.182 154.067 161.451 168.916 155.653C186.842 148.644 200.98 135.078 208.704 117.443C216.429 99.8075 216.825 80.227 209.814 62.2917L209.799 62.3054ZM125.519 149.126C122.788 148.348 120.082 147.383 117.405 146.212C114.737 145.038 112.187 143.709 109.764 142.222C83.3592 126.064 72.2313 92.4036 84.9939 63.2723C98.9213 31.4752 136.128 16.9363 167.934 30.8613C199.731 44.7888 214.278 81.9926 200.345 113.801C187.582 142.932 155.289 157.577 125.519 149.126Z" fill="white"/>
<path d="M167.933 30.8614C136.127 16.9363 98.9212 31.4752 84.9938 63.2724C72.2312 92.4037 83.3615 126.073 109.764 142.222C112.184 143.7 114.736 145.038 117.405 146.212C120.073 147.386 122.779 148.35 125.518 149.126C155.3 157.583 187.591 142.93 200.344 113.801C214.272 82.0038 199.733 44.7976 167.933 30.8614ZM126.24 146.572C123.624 145.829 121.031 144.899 118.473 143.781C115.914 142.662 113.472 141.38 111.153 139.959C85.8612 124.481 75.2049 92.2349 87.4314 64.3293C100.776 33.8651 136.408 19.9364 166.872 33.2814C197.336 46.6264 211.258 82.2687 197.92 112.722C185.693 140.627 154.765 154.653 126.247 146.56L126.24 146.572Z" fill="white"/>
<path d="M209.799 62.3054C202.788 44.3701 189.224 30.2413 171.589 22.5167C153.954 14.7921 134.364 14.3982 116.438 21.4071C98.5115 28.4159 84.3739 41.9816 76.6581 59.6145C68.9335 77.2497 68.5396 96.839 75.5485 114.766C81.345 129.606 91.6461 141.843 105.026 150.001C107.81 151.702 110.723 153.216 113.765 154.543C116.797 155.873 119.894 156.986 123.026 157.882C138.088 162.182 154.067 161.451 168.916 155.653C186.842 148.644 200.98 135.078 208.704 117.443C216.429 99.8075 216.825 80.227 209.814 62.2917L209.799 62.3054ZM125.519 149.126C122.788 148.348 120.082 147.383 117.405 146.212C114.737 145.038 112.187 143.709 109.764 142.222C83.3592 126.064 72.2313 92.4036 84.9939 63.2723C98.9213 31.4752 136.128 16.9363 167.934 30.8613C199.731 44.7888 214.278 81.9926 200.345 113.801C187.582 142.932 155.289 157.577 125.519 149.126Z" fill="#BED2FF"/>
<path d="M167.933 30.8614C136.127 16.9363 98.9212 31.4752 84.9938 63.2724C72.2312 92.4037 83.3615 126.073 109.764 142.222C112.184 143.7 114.736 145.038 117.405 146.212C120.073 147.386 122.779 148.35 125.518 149.126C155.3 157.583 187.591 142.93 200.344 113.801C214.272 82.0038 199.733 44.7976 167.933 30.8614ZM126.24 146.572C123.624 145.829 121.031 144.899 118.473 143.781C115.914 142.662 113.472 141.38 111.153 139.959C85.8612 124.481 75.2049 92.2349 87.4314 64.3293C100.776 33.8651 136.408 19.9364 166.872 33.2814C197.336 46.6264 211.258 82.2687 197.92 112.722C185.693 140.627 154.765 154.653 126.247 146.56L126.24 146.572Z" fill="#CDDDFF"/>
<path opacity="0.61" d="M189.345 108.987C188.528 110.848 187.617 112.64 186.615 114.343C194.036 89.9844 182.176 63.3111 158.294 52.8535C134.413 42.396 106.766 51.7671 93.9007 73.732C94.4797 71.832 95.17 69.9584 95.9869 68.0975C107.261 42.3547 137.377 30.5862 163.111 41.863C188.854 53.1375 200.622 83.253 189.345 108.987Z" fill="white" fill-opacity="0.35"/>
</svg>
