<svg width="261" height="290" viewBox="0 0 261 290" fill="none" xmlns="http://www.w3.org/2000/svg">
<path d="M214.322 263.169L183.253 276.26C179.216 277.963 174.592 275.706 173.448 271.48L146.448 171.497C149.678 170.625 152.86 169.527 155.994 168.2C159.124 166.882 162.138 165.364 165.015 163.666L217.737 252.801C219.97 256.581 218.364 261.458 214.314 263.165L214.322 263.169Z" fill="#5C1909"/>
<path d="M146.448 171.497C149.678 170.625 152.86 169.527 155.994 168.2L198.792 269.717L183.261 276.265C179.224 277.967 174.6 275.711 173.456 271.484L146.456 171.501L146.448 171.497Z" fill="#A83417"/>
<path d="M177.998 185.623L165.018 163.678C162.142 165.376 159.128 166.895 155.998 168.213C152.868 169.531 149.673 170.633 146.451 171.509L153.099 196.126L178.006 185.628L177.998 185.623Z" fill="white"/>
<path d="M165.547 190.868L155.99 168.209C152.86 169.527 149.665 170.629 146.443 171.505L153.091 196.121L165.543 190.877L165.547 190.868Z" fill="#CFDEFF"/>
<path d="M155.148 31.64C136.855 24.1985 116.77 24.3185 98.576 31.9882C80.3822 39.6578 66.2636 53.9551 58.8266 72.2398C51.3896 90.5245 51.5051 110.618 59.1792 128.803C66.8489 146.997 81.1462 161.116 99.4309 168.553C114.564 174.714 130.939 175.686 146.452 171.488C149.682 170.617 152.865 169.518 155.999 168.192C159.129 166.874 162.143 165.356 165.019 163.657C178.849 155.486 189.583 143.081 195.748 127.94C203.185 109.656 203.07 89.5623 195.4 71.3685C187.73 53.1746 173.441 39.0605 155.148 31.619L155.148 31.64ZM160.264 155.623C157.758 157.106 155.13 158.438 152.369 159.604C149.613 160.761 146.824 161.72 144.008 162.473C113.35 170.716 80.4515 155.239 67.784 125.183C53.955 92.3787 69.3964 54.4346 102.205 40.5973C135.009 26.7684 172.958 42.2015 186.79 75.0183C199.458 105.074 187.563 139.437 160.264 155.623Z" fill="white"/>
<path d="M102.205 40.5976C69.3961 54.4348 53.9547 92.379 67.7837 125.183C80.4512 155.239 113.358 170.72 144.008 162.473C146.816 161.716 149.613 160.761 152.369 159.604C155.126 158.447 157.753 157.114 160.264 155.624C187.575 139.433 199.462 105.066 186.79 75.0185C172.961 42.2145 135.017 26.7731 102.205 40.5976ZM158.873 153.284C156.473 154.706 153.952 155.979 151.314 157.093C148.676 158.208 145.998 159.12 143.304 159.843C113.938 167.737 82.4244 152.907 70.2904 124.115C57.0422 92.6853 71.826 56.3437 103.256 43.0955C134.686 29.8473 171.031 44.6437 184.276 76.061C196.41 104.853 185.017 137.764 158.869 153.271L158.873 153.284Z" fill="white"/>
<path d="M155.148 31.64C136.855 24.1985 116.77 24.3185 98.576 31.9882C80.3822 39.6578 66.2636 53.9551 58.8266 72.2398C51.3896 90.5245 51.5051 110.618 59.1792 128.803C66.8489 146.997 81.1462 161.116 99.4309 168.553C114.564 174.714 130.939 175.686 146.452 171.488C149.682 170.617 152.865 169.518 155.999 168.192C159.129 166.874 162.143 165.356 165.019 163.657C178.849 155.486 189.583 143.081 195.748 127.94C203.185 109.656 203.07 89.5623 195.4 71.3685C187.73 53.1746 173.441 39.0605 155.148 31.619L155.148 31.64ZM160.264 155.623C157.758 157.106 155.13 158.438 152.369 159.604C149.613 160.761 146.824 161.72 144.008 162.473C113.35 170.716 80.4515 155.239 67.784 125.183C53.955 92.3787 69.3964 54.4346 102.205 40.5973C135.009 26.7684 172.958 42.2015 186.79 75.0183C199.458 105.074 187.563 139.437 160.264 155.623Z" fill="#BED2FF"/>
<path d="M102.205 40.5976C69.3961 54.4348 53.9547 92.379 67.7837 125.183C80.4512 155.239 113.358 170.72 144.008 162.473C146.816 161.716 149.613 160.761 152.369 159.604C155.126 158.447 157.753 157.114 160.264 155.624C187.575 139.433 199.462 105.066 186.79 75.0185C172.961 42.2145 135.017 26.7731 102.205 40.5976ZM158.873 153.284C156.473 154.706 153.952 155.979 151.314 157.093C148.676 158.208 145.998 159.12 143.304 159.843C113.938 167.737 82.4244 152.907 70.2904 124.115C57.0422 92.6853 71.826 56.3437 103.256 43.0955C134.686 29.8473 171.031 44.6437 184.276 76.061C196.41 104.853 185.017 137.764 158.869 153.271L158.873 153.284Z" fill="#CDDDFF"/>
<path opacity="0.61" d="M175.445 79.8046C176.253 81.7257 176.943 83.6686 177.504 85.6161C164.617 62.9029 136.401 52.902 111.765 63.2906C87.1289 73.6792 74.5893 100.863 81.8523 125.938C80.8473 124.166 79.9404 122.33 79.1324 120.409C67.9357 93.8518 80.434 63.1386 106.987 51.9503C133.544 40.7537 164.257 53.2519 175.445 79.8046Z" fill="white" fill-opacity="0.35"/>
</svg>
