<svg width="383" height="282" viewBox="0 0 383 282" fill="none" xmlns="http://www.w3.org/2000/svg">
<g clip-path="url(#clip0_37_185)">
<path d="M370.464 195.012L370.138 194.36C370.177 194.477 370.36 194.686 370.464 195.012Z" fill="#FEFCFD"/>
<path d="M199.178 431.68C208.399 429.546 217.515 426.988 226.462 424.019C226.501 424.012 226.534 423.999 226.56 423.986C226.612 423.973 226.658 423.953 226.71 423.934C226.729 423.927 226.755 423.921 226.775 423.914C226.795 423.914 226.814 423.901 226.834 423.895C228.915 423.203 230.991 422.485 233.053 421.741C233.144 421.708 233.242 421.676 233.333 421.637C233.359 421.63 233.386 421.624 233.412 421.611C233.412 421.611 233.416 421.608 233.425 421.604H233.438C252.512 414.732 270.732 405.916 287.49 395.116C335.917 363.897 373.962 314.85 381.558 256.426C384.012 237.56 383.64 211.986 378.086 193.766C360.062 134.611 324.68 93.6357 268.729 67.4219C243.396 55.5517 215.694 48.1646 187.582 47.4272C185.989 43.5183 183.856 39.2375 180.984 34.8522C171.45 20.3064 159.28 11.4773 151.312 7.43137C152.545 8.48853 153.028 10.4722 153.766 11.575C161.244 22.7405 151.664 39.9292 150.45 42.037C140.518 42.2132 130.586 42.3829 120.654 42.559C121.026 41.7303 121.483 40.9341 121.607 40.0728C123.434 27.2302 113.345 7.60742 107.538 0.92511C107.583 5.14723 107.603 9.34326 107.211 13.5458C101.573 73.9215 39.8334 99.6784 0.659695 136.483C-17.1946 153.254 -47.3237 189.022 -48.5245 214.165C-49.0465 225.174 -42.7166 238.624 -29.8088 236.157C-27.9816 235.804 -21.4363 234.747 -15.5632 230.832C-5.1547 223.895 20.3869 187.462 25.0723 180.989L25.2681 180.728C26.5928 178.894 27.9175 177.145 29.2031 175.514C46.6136 153.424 -7.2103 366.612 19.6756 359.61L75.7965 433.128" fill="#A83417"/>
<path d="M273.271 101.16C273.362 101.205 273.447 101.245 273.538 101.29C299.517 113.67 331.512 133.73 350.47 155.493C358.503 164.714 366.784 184.258 370.791 195.985C370.823 196.083 370.758 196.213 370.791 196.317C370.83 196.428 371.012 196.644 371.117 196.97C373.792 205.31 375.489 213.278 376.031 222.055C378.047 254.853 370.334 285.778 354.724 314.335C321.208 375.637 258.105 410.843 190.583 424.573C159.691 430.857 111.342 402.986 81.0171 400.722" fill="#A83417"/>
<path d="M167.809 426.603C209.586 426.316 283.313 407.254 333.561 345.684C338.991 339.028 347.043 328.332 355.096 313.708C355.031 306.295 353.882 288.408 342.201 269.986C330.729 251.897 315.426 243.25 308.764 239.968C285.924 254.324 279.268 260.53 259.821 261.503C246.77 262.155 220.014 262.808 191.301 251.061C145.824 269.046 116.921 293.413 100.594 309.793C66.4124 344.092 66.8497 363.995 67.313 369.829C68.5268 385.178 76.1292 400.702 81.0169 403.985C103.178 418.87 127.134 423.457 150.033 425.722C159.208 426.629 166.145 426.616 167.809 426.603Z" fill="#FCFDFF"/>
<path d="M120.171 41.5868C120.132 40.1054 127.832 41.0451 134.795 34.7674C141.236 28.9661 143.037 21.1026 143.037 21.1026C143.429 19.8105 144.199 17.2786 145.158 14.0222C146.665 8.91261 147.031 7.50958 148.225 7.00058C150.313 6.11961 153.485 8.58632 154.992 10.27C160.833 16.8152 160.82 33.1686 150.835 41.5868C138.861 51.6755 120.223 43.8838 120.165 41.5868H120.171Z" fill="#5C1909"/>
<path d="M25.2679 180.728C25.0657 182.105 4.77074 205.408 -4.46965 217.35C-21.9846 237.384 -39.5714 236.888 -45.5815 226.264C-55.0373 209.545 -23.6356 159.31 0.659546 136.483C39.8333 99.6785 101.573 73.9216 107.211 13.5458C107.603 9.3433 107.583 5.14728 107.537 0.925154C106.944 0.820742 106.65 0.487932 105.769 0.605395C100.685 1.30364 95.8238 11.6664 93.8204 15.8886C90.6293 22.5839 88.0778 29.4555 84.319 35.8964C72.8925 55.48 38.8936 80.8845 25.8748 87.5929C25.8748 87.5929 -19.1525 111.085 -54.3912 164.596C-65.1456 180.93 -86.9805 221.944 -74.9276 295.371C-74.6535 295.267 -68.1408 311.379 -55.3701 343.7C-55.344 343.759 -55.3048 343.818 -55.2722 343.876C-55.2591 343.896 -55.2526 343.916 -55.2395 343.935C-55.1939 344.007 10.5068 436.92 121.868 440.209C147.305 440.959 171.672 436.933 179.34 435.634C201.56 431.869 219.923 426.381 233.438 421.611C217.234 425.643 179.072 432.071 148.232 427.262C107.772 420.958 92.1237 410.256 81.017 403.991C27.8848 374.032 4.42488 325.089 -4.18904 306.158C-4.19556 306.158 -3.81708 306.765 -3.81708 306.758C-7.07993 295.665 -9.89902 284.721 -9.6902 268.909" fill="#5C1909"/>
<path d="M45.7783 216.475C20.4259 244.001 8.86893 275.657 5.31895 285.648C1.31218 296.918 -1.06318 306.68 -2.51188 313.708C-6.8841 301.153 -12.3461 280.049 -9.65751 254.416C-4.38475 204.122 28.433 172.642 39.9051 161.659C86.7792 116.789 152.225 105.76 165.198 107.496C165.655 107.555 171.913 108.416 172.696 106.478C173.832 103.672 162.699 97.1465 163.828 95.006C164.226 94.2556 165.929 94.4318 166.438 94.4905C181.571 96.2068 196.972 101.186 206.963 97.7077C216.908 94.2491 220.504 82.7443 223.401 84.2452C225 85.0739 225.111 89.0546 224.367 92.5002C222.448 101.447 221.091 106.061 222.344 107.072C224.236 108.586 232.178 99.9982 237.634 96.4025C261.714 80.5125 319.851 107.96 350.528 151.218C357.628 161.229 366.033 176.009 371.41 196.246C357.87 157.927 320.229 144.614 300.933 155.134C284.899 163.872 276.233 191.945 286.576 220.391C274.641 217.709 263.084 215.17 244.159 217.78C235.173 219.02 214.324 224.913 208.268 228.222C209.24 221.8 212.197 197.368 196.522 179.279C189.004 170.606 180.273 166.932 176.945 165.575C139.363 150.233 80.2796 179.011 45.7783 216.475Z" fill="#FCFDFF"/>
<path d="M374.673 212.56C371.841 184.767 356.702 162.116 334.867 153.829C331.428 152.524 312.725 145.548 297.67 154.481C279.711 165.138 272.455 196.35 286.576 228.222C294.623 233.658 302.675 239.1 310.722 244.536C317.345 247.988 330.377 255.917 340.896 271.291C352.055 287.599 354.45 306.23 355.096 313.708C361.4 302.399 369.414 282.254 373.368 259.545C376.67 240.575 376.044 224.274 374.673 212.56Z" fill="#FFE2DB"/>
<path d="M-2.51184 313.93C3.33518 325.944 11.675 340.209 23.5909 354.82C44.4797 380.427 67.424 396.134 83.6273 405.29C83.5164 405.166 83.3532 404.977 83.1509 404.742C83.1509 404.742 72.4358 392.199 69.2708 374.397C65.1335 351.113 100.862 314.158 103.857 311.098C119.597 295.012 147.403 271.076 191.301 253.019C191.601 247.166 193.187 242.728 194.466 240.62C196.085 237.938 198.59 235.426 198.59 235.426L198.604 235.413C201.99 232.104 205.873 229.612 208.66 228.045C210.121 220.319 213.932 194.96 198.48 176.238C198.48 176.238 191.667 167.983 181.513 163.186C141.967 144.503 49.9678 186.046 13.1498 261.503C3.13288 282.026 -0.789057 300.95 -2.51184 313.93Z" fill="#FFE2DB"/>
<path d="M173.871 245.077C184.299 242.787 192.828 233.246 194.336 222.283C195.419 214.752 193.174 207.398 191.699 200.024C190.531 194.484 189.148 188.767 186.055 183.892C171.333 160.341 135.461 172.133 137.262 200.951C137.516 205.799 138.756 210.465 139.735 215.209C140.832 220.208 141.745 225.115 143.886 229.749C148.884 241.234 161.883 247.89 173.767 245.097L173.871 245.071V245.077Z" fill="#FBFCFE"/>
<path d="M184.638 215.761L180.159 194.332C178.26 185.26 169.417 179.457 160.408 181.362C157.118 182.063 154.269 183.69 152.059 185.916C157.871 186.347 162.459 191.223 162.459 197.186C162.459 203.149 157.429 208.499 151.225 208.499C150.464 208.499 149.718 208.418 149 208.272L152.015 222.673C153.914 231.745 162.757 237.548 171.766 235.636C180.775 233.723 186.537 224.819 184.638 215.746V215.761Z" fill="black"/>
<path d="M192.85 222.079C191.424 232.45 183.337 241.455 173.564 243.609C163.836 245.532 156.743 242.455 151.791 237.913C147.373 233.861 144.646 228.621 143.387 224.669L192.875 215.303C192.894 216.057 192.916 216.932 192.93 217.781C192.961 219.616 192.953 221.326 192.85 222.079Z" fill="#F1C3B8" stroke="#DAABA0" stroke-width="3"/>
<path d="M177.447 175.874C181.82 178.825 184.967 183.31 186.979 188.361L138.621 197.661C138.655 197.127 138.692 196.564 138.729 196.055C138.834 194.598 138.958 193.301 139.088 192.728L139.109 192.637L139.118 192.543C139.723 186.365 142.803 181.834 146.553 178.648C150.327 175.44 154.739 173.635 157.819 172.966C166.218 171.139 172.647 172.635 177.447 175.874Z" fill="#F1C3B8" stroke="#DAABA0" stroke-width="3"/>
<path d="M321.051 230.329C329.913 228.887 337.614 220.58 339.526 210.485C340.883 203.548 339.441 196.565 338.638 189.609C337.992 184.382 337.176 178.972 334.873 174.234C323.955 151.362 291.5 155.5 293.043 186.875C292.965 191.397 293.728 195.821 294.263 200.298C294.883 205.016 295.36 209.643 296.867 214.093C300.365 225.109 310.845 232.15 320.954 230.342L321.045 230.329H321.051Z" fill="#FBFCFE"/>
<path d="M308.672 236.972V237.031C308.744 238.767 308.516 240.431 308.046 242.023C307.341 244.425 306.082 246.67 304.431 248.745C304.418 248.758 304.411 248.771 304.405 248.777C297.892 256.908 285.278 262.527 276.037 265.516C275.574 265.666 275.117 265.81 274.673 265.947C273.538 266.292 272.468 266.599 271.469 266.867C258.203 270.358 244.225 271.963 230.495 270.873C230.012 270.841 229.535 270.795 229.052 270.756C224.765 270.364 220.497 269.699 216.295 268.753C209.273 267.017 201.331 264.269 196.052 259.029C194.877 257.868 193.833 256.589 192.972 255.166C192.926 255.081 192.867 254.99 192.822 254.905C188.567 246.885 192.789 239.433 199.354 233.677C221.137 215.823 260.356 211.431 286.433 218.446C299.21 222.309 307.53 227.699 308.685 236.992L308.672 236.972Z" fill="#2C2C2C"/>
<path d="M230.495 270.867C230.012 270.834 229.535 270.788 229.052 270.749C224.765 270.358 220.497 269.692 216.295 268.746C209.273 267.01 201.331 264.263 196.052 259.023C195.132 258.031 194.31 256.961 193.598 255.792C193.553 255.708 193.5 255.616 193.455 255.531C193.442 255.166 193.533 254.801 193.768 254.455C195.334 252.543 198.46 251.877 200.927 251.264C206.154 250.2 211.838 250.696 216.804 253.026C223.486 256.138 228.713 262.325 230.703 268.028C231.049 268.974 231.225 270.24 230.501 270.86L230.495 270.867Z" fill="#454545"/>
<path d="M307.243 242.421C307.1 242.265 306.93 242.115 306.734 241.984C306.721 241.978 306.715 241.971 306.702 241.958C305.814 241.377 304.489 241.038 303.55 240.855C299.112 239.948 293.533 240.398 288.449 242.656C280.834 245.978 274.204 254.037 273.531 263.199C273.388 264.791 273.871 265.607 274.66 265.947C275.111 265.809 275.561 265.666 276.024 265.516C285.265 262.527 297.879 256.908 304.391 248.777C304.404 248.771 304.411 248.758 304.418 248.745C304.489 248.647 304.555 248.549 304.626 248.451V248.464C306.055 247.048 307.687 243.087 307.687 243.087C307.687 243.087 307.706 242.891 307.23 242.421H307.243Z" fill="#454545"/>
<path d="M334.036 204.299L331.152 182.597C329.928 173.409 321.539 166.969 312.413 168.204C309.08 168.659 306.119 170.072 303.75 172.129C309.515 172.988 313.73 178.189 313.29 184.136C312.849 190.083 307.438 195.046 301.251 194.588C300.492 194.532 299.753 194.397 299.048 194.198L300.991 208.782C302.215 217.97 310.605 224.41 319.73 223.168C328.856 221.926 335.26 213.472 334.037 204.284L334.036 204.299Z" fill="black"/>
<path d="M338.416 209.448C337.793 214.549 336.26 218.867 333.744 222.175C331.255 225.447 327.741 227.816 322.969 228.965C313.379 230.396 307.344 227.224 303.471 222.815C299.954 218.81 298.137 213.676 297.264 209.69L338.436 201.808C338.453 202.664 338.474 203.694 338.486 204.704C338.513 206.771 338.506 208.713 338.416 209.448Z" fill="#F1C3B8" stroke="#DAABA0" stroke-width="3"/>
<path d="M334.545 176.132L294.48 183.215C294.472 183.027 294.464 182.836 294.456 182.648C294.446 182.407 294.437 182.17 294.428 181.942C294.406 181.34 294.39 180.763 294.396 180.275C294.402 179.749 294.433 179.455 294.458 179.351L294.482 179.251L294.493 179.149C295.001 174.045 296.774 169.931 299.574 166.895C302.364 163.871 306.262 161.822 311.201 160.987C319.078 160.179 324.382 162.102 328.002 165.223C331.271 168.04 333.312 171.958 334.545 176.132Z" fill="#F1C3B8" stroke="#DAABA0" stroke-width="3"/>
</g>
<defs>
<clipPath id="clip0_37_185">
<rect width="495" height="439.714" fill="white" transform="translate(-112 0.579224)"/>
</clipPath>
</defs>
</svg>
