<svg width="18" height="18" viewBox="0 0 18 18" fill="none" xmlns="http://www.w3.org/2000/svg">
<path d="M8.93528 17.8372C4.0144 17.8372 0 13.8344 0 8.92783C0 4.02121 3.9959 0 8.93528 0C13.8747 0 17.8706 4.00277 17.8706 8.90938C17.8706 13.816 13.8562 17.8372 8.93528 17.8372ZM8.93528 1.10676C4.62489 1.10676 1.10997 4.61148 1.10997 8.90938C1.10997 13.2073 4.62489 16.712 8.93528 16.712C13.2457 16.712 16.7606 13.2073 16.7606 8.90938C16.7606 4.61148 13.2457 1.10676 8.93528 1.10676Z" fill="#ADADAD"/>
<path d="M9.56552 8.76199L12.4144 5.92132C12.5994 5.73686 12.5994 5.42328 12.4144 5.22038C12.2295 5.03592 11.915 5.03592 11.7115 5.22038L8.86254 8.06105L6.0136 5.23882C5.82861 5.05436 5.51412 5.05436 5.31062 5.23882C5.12563 5.42328 5.12563 5.73686 5.31062 5.93977L8.15955 8.78044L5.31062 11.6027C5.12563 11.7871 5.12563 12.1007 5.31062 12.3036C5.40312 12.3958 5.53262 12.4512 5.66211 12.4512C5.79161 12.4512 5.92111 12.3958 6.0136 12.3036L8.86254 9.46294L11.7115 12.3036C11.804 12.3958 11.9335 12.4512 12.063 12.4512C12.1925 12.4512 12.322 12.3958 12.4144 12.3036C12.5994 12.1192 12.5994 11.8056 12.4144 11.6027L9.56552 8.76199Z" fill="#ADADAD"/>
</svg>
