<svg width="57" height="57" viewBox="0 0 57 57" fill="none" xmlns="http://www.w3.org/2000/svg">
<rect width="57" height="57" rx="8" fill="#87A5E5" fill-opacity="0.2"/>
<path fill-rule="evenodd" clip-rule="evenodd" d="M21.216 37.5517C21.1074 37.554 21.0011 37.5124 20.9236 37.4373C20.845 37.361 20.8011 37.257 20.8011 37.1472C20.8011 37.0385 20.845 36.9345 20.9236 36.8582C21.0011 36.7831 21.1074 36.7415 21.216 36.7438H24.4222C24.6407 36.7507 24.8152 36.9287 24.8152 37.1472C24.8152 37.3668 24.6407 37.5448 24.4222 37.5517L21.216 37.5517ZM26.2241 37.5517C26.1155 37.554 26.0092 37.5124 25.9317 37.4373C25.8531 37.361 25.8092 37.257 25.8092 37.1472C25.8092 37.0385 25.8531 36.9345 25.9317 36.8582C26.0092 36.7831 26.1155 36.7415 26.2241 36.7438H29.4303C29.539 36.7415 29.6441 36.7831 29.7227 36.8582C29.8002 36.9345 29.8441 37.0385 29.8441 37.1472C29.8441 37.257 29.8002 37.361 29.7227 37.4373C29.6441 37.5124 29.539 37.554 29.4303 37.5517H26.2241ZM31.2322 37.5517C31.1236 37.554 31.0184 37.5124 30.9398 37.4373C30.8624 37.361 30.8173 37.257 30.8173 37.1472C30.8173 37.0385 30.8624 36.9345 30.9398 36.8582C31.0184 36.7831 31.1236 36.7415 31.2322 36.7438H34.4384C34.6568 36.7507 34.8314 36.9287 34.8314 37.1472C34.8314 37.3668 34.6568 37.5448 34.4384 37.5517L31.2322 37.5517ZM21.216 39.6599C20.993 39.6599 20.8127 39.4784 20.8127 39.2553C20.8127 39.0334 20.993 38.852 21.216 38.852H36.0817C36.3048 38.852 36.4851 39.0334 36.4851 39.2553C36.4851 39.4784 36.3048 39.6599 36.0817 39.6599H21.216ZM27.7533 29.1016L25.4012 27.2396C25.2764 27.1368 25.1181 27.0825 24.9574 27.0871H19.8384C19.4928 27.0882 19.2131 27.3679 19.2119 27.7135V40.382C19.2131 40.7264 19.4928 41.0061 19.8384 41.0084H37.4584C37.8028 41.0061 38.0825 40.7264 38.0849 40.382V30.5161C38.0825 29.9174 37.5983 29.432 36.9984 29.4308H28.6954C28.3521 29.4331 28.0191 29.3166 27.7533 29.1016ZM34.0511 28.6243H28.695H28.6962C28.5344 28.6277 28.3761 28.5746 28.2524 28.4706L25.9004 26.6086H25.8992C25.6322 26.3936 25.2994 26.278 24.9561 26.2803H20.0418V19.1513C20.0418 18.8901 20.147 18.6405 20.3342 18.4579C20.5237 18.2706 20.7803 18.1666 21.0473 18.1666H31.9822L34.0511 20.2054L34.0511 28.6243ZM22.4401 17.3601V16.9752V16.9763C22.4401 16.7151 22.5464 16.4643 22.7325 16.2817C22.9232 16.0956 23.1798 15.9904 23.4457 15.9916H34.3806L36.4494 18.0292L36.4506 28.6245H34.8591V20.0371C34.8591 19.9296 34.8151 19.8267 34.7389 19.7505L32.4515 17.4978C32.3753 17.41 32.2643 17.3603 32.1476 17.3603L22.4401 17.3601ZM30.5399 20.4218H23.5544V22.1671L30.5399 22.1682V20.4218ZM23.1508 19.6151C22.9277 19.6151 22.7474 19.7966 22.7474 20.0196V22.5728V22.5716C22.7474 22.7947 22.9277 22.975 23.1508 22.975H30.9432C31.0495 22.975 31.1524 22.9322 31.2286 22.8571C31.3038 22.7808 31.3465 22.6791 31.3465 22.5716V20.0196C31.3465 19.9121 31.3038 19.8093 31.2286 19.7341C31.1524 19.6579 31.0495 19.6151 30.9432 19.6151L23.1508 19.6151ZM22.9324 24.7214H31.1614C31.2701 24.7249 31.3753 24.6833 31.4538 24.6082C31.5313 24.5319 31.5752 24.4278 31.5752 24.3181C31.5752 24.2094 31.5313 24.1054 31.4538 24.0291C31.3753 23.9528 31.2701 23.9124 31.1614 23.9147H22.9324C22.8237 23.9124 22.7174 23.9528 22.64 24.0291C22.5614 24.1054 22.5174 24.2094 22.5174 24.3181C22.5174 24.4278 22.5614 24.5319 22.64 24.6082C22.7174 24.6833 22.8237 24.7249 22.9324 24.7214ZM27.9011 26.9035H32.3242C32.4329 26.907 32.5381 26.8654 32.6167 26.7891C32.6941 26.714 32.738 26.6088 32.738 26.5002C32.738 26.3915 32.6941 26.2875 32.6167 26.2112C32.5381 26.1349 32.4329 26.0933 32.3242 26.0968H27.9011C27.7925 26.0933 27.6873 26.1349 27.6087 26.2112C27.5313 26.2875 27.4862 26.3915 27.4862 26.5002C27.4862 26.6088 27.5313 26.714 27.6087 26.7891C27.6873 26.8654 27.7925 26.907 27.9011 26.9035Z" fill="#265BD1"/>
<path fill-rule="evenodd" clip-rule="evenodd" d="M20.9197 37.5517C20.811 37.554 20.7047 37.5124 20.6272 37.4373C20.5486 37.361 20.5047 37.257 20.5047 37.1472C20.5047 37.0385 20.5486 36.9345 20.6272 36.8582C20.7047 36.7831 20.811 36.7415 20.9197 36.7438H24.1258C24.3443 36.7507 24.5188 36.9287 24.5188 37.1472C24.5188 37.3668 24.3443 37.5448 24.1258 37.5517L20.9197 37.5517ZM25.9277 37.5517C25.8191 37.554 25.7128 37.5124 25.6353 37.4373C25.5567 37.361 25.5128 37.257 25.5128 37.1472C25.5128 37.0385 25.5567 36.9345 25.6353 36.8582C25.7128 36.7831 25.8191 36.7415 25.9277 36.7438H29.1339C29.2426 36.7415 29.3477 36.7831 29.4263 36.8582C29.5038 36.9345 29.5477 37.0385 29.5477 37.1472C29.5477 37.257 29.5038 37.361 29.4263 37.4373C29.3477 37.5124 29.2426 37.554 29.1339 37.5517H25.9277ZM30.9358 37.5517C30.8272 37.554 30.722 37.5124 30.6434 37.4373C30.566 37.361 30.5209 37.257 30.5209 37.1472C30.5209 37.0385 30.566 36.9345 30.6434 36.8582C30.722 36.7831 30.8272 36.7415 30.9358 36.7438H34.142C34.3605 36.7507 34.535 36.9287 34.535 37.1472C34.535 37.3668 34.3605 37.5448 34.142 37.5517L30.9358 37.5517ZM20.9197 39.6599C20.6966 39.6599 20.5163 39.4784 20.5163 39.2553C20.5163 39.0334 20.6966 38.852 20.9197 38.852H35.7853C36.0084 38.852 36.1887 39.0334 36.1887 39.2553C36.1887 39.4784 36.0084 39.6599 35.7853 39.6599H20.9197ZM27.4569 29.1016L25.1048 27.2396C24.98 27.1368 24.8217 27.0825 24.661 27.0871H19.542C19.1964 27.0882 18.9167 27.3679 18.9155 27.7135V40.382C18.9167 40.7264 19.1964 41.0061 19.542 41.0084H37.162C37.5065 41.0061 37.7862 40.7264 37.7885 40.382V30.5161C37.7862 29.9174 37.3019 29.432 36.702 29.4308H28.399C28.0557 29.4331 27.7227 29.3166 27.4569 29.1016ZM33.7547 28.6243H28.3987H28.3998C28.238 28.6277 28.0797 28.5746 27.956 28.4706L25.604 26.6086H25.6028C25.3358 26.3936 25.003 26.278 24.6597 26.2803H19.7454V19.1513C19.7454 18.8901 19.8506 18.6405 20.0378 18.4579C20.2273 18.2706 20.4839 18.1666 20.7509 18.1666H31.6858L33.7547 20.2054L33.7547 28.6243ZM22.1437 17.3601V16.9752V16.9763C22.1437 16.7151 22.25 16.4643 22.4361 16.2817C22.6268 16.0956 22.8834 15.9904 23.1493 15.9916H34.0842L36.153 18.0292L36.1542 28.6245H34.5627V20.0371C34.5627 19.9296 34.5187 19.8267 34.4425 19.7505L32.1552 17.4978C32.0789 17.41 31.9679 17.3603 31.8512 17.3603L22.1437 17.3601ZM30.2435 20.4218H23.258V22.1671L30.2435 22.1682V20.4218ZM22.8544 19.6151C22.6314 19.6151 22.451 19.7966 22.451 20.0196V22.5728V22.5716C22.451 22.7947 22.6313 22.975 22.8544 22.975H30.6468C30.7531 22.975 30.856 22.9322 30.9322 22.8571C31.0074 22.7808 31.0501 22.6791 31.0501 22.5716V20.0196C31.0501 19.9121 31.0074 19.8093 30.9322 19.7341C30.856 19.6579 30.7531 19.6151 30.6468 19.6151L22.8544 19.6151ZM22.636 24.7214H30.865C30.9737 24.7249 31.0789 24.6833 31.1575 24.6082C31.2349 24.5319 31.2788 24.4278 31.2788 24.3181C31.2788 24.2094 31.2349 24.1054 31.1575 24.0291C31.0789 23.9528 30.9737 23.9124 30.865 23.9147H22.636C22.5273 23.9124 22.421 23.9528 22.3436 24.0291C22.265 24.1054 22.2211 24.2094 22.2211 24.3181C22.2211 24.4278 22.265 24.5319 22.3436 24.6082C22.421 24.6833 22.5273 24.7249 22.636 24.7214ZM27.6047 26.9035H32.0279C32.1365 26.907 32.2417 26.8654 32.3203 26.7891C32.3977 26.714 32.4416 26.6088 32.4416 26.5002C32.4416 26.3915 32.3977 26.2875 32.3203 26.2112C32.2417 26.1349 32.1365 26.0933 32.0279 26.0968H27.6047C27.4961 26.0933 27.3909 26.1349 27.3123 26.2112C27.2349 26.2875 27.1898 26.3915 27.1898 26.5002C27.1898 26.6088 27.2349 26.714 27.3123 26.7891C27.3909 26.8654 27.4961 26.907 27.6047 26.9035Z" fill="#87A5E5"/>
</svg>
