<svg width="189" height="189" viewBox="0 0 189 189" fill="none" xmlns="http://www.w3.org/2000/svg">
<rect x="0.21582" y="0.0015564" width="188.216" height="188.216" rx="36" fill="#7531F9"/>
<path d="M45.7303 38.0016H75.6711C79.0605 38.0016 82.139 39.3806 84.363 41.6093C86.5918 43.8382 87.9707 46.9118 87.9707 50.3012V61.0179C87.9707 64.4073 86.5917 67.4858 84.363 69.7098C82.1341 71.9386 79.0605 73.3175 75.6711 73.3175H45.7303C42.3409 73.3175 39.2624 71.9385 37.0385 69.7098C34.8096 67.4809 33.4307 64.4073 33.4307 61.0179V50.3012C33.4307 46.9118 34.8097 43.8333 37.0385 41.6093C39.2673 39.3805 42.3409 38.0016 45.7303 38.0016ZM142.69 149.519H112.75C109.36 149.519 106.282 148.14 104.058 145.912C101.829 143.683 100.45 140.609 100.45 137.22V126.503C100.45 123.114 101.829 120.035 104.058 117.811C106.287 115.582 109.36 114.203 112.75 114.203H142.69C146.08 114.203 149.158 115.582 151.382 117.811C153.611 120.04 154.99 123.114 154.99 126.503V137.22C154.99 140.609 153.611 143.688 151.382 145.912C149.153 148.14 146.08 149.519 142.69 149.519ZM154.995 50.3068V90.4781C154.995 93.8675 153.616 96.946 151.387 99.17C149.158 101.399 146.085 102.778 142.695 102.778H112.754C109.365 102.778 106.287 101.399 104.063 99.17C101.834 96.9411 100.455 93.8675 100.455 90.4781V50.3068C100.455 46.9174 101.834 43.8389 104.063 41.6149C106.291 39.3861 109.365 38.0072 112.754 38.0072H142.695C146.085 38.0072 149.163 39.3862 151.387 41.6149C153.616 43.8438 154.995 46.9174 154.995 50.3068ZM87.9756 97.0441V137.215C87.9756 140.605 86.5965 143.683 84.3678 145.907C82.139 148.136 79.0653 149.515 75.6759 149.515H45.7352C42.3458 149.515 39.2673 148.136 37.0433 145.907C34.8145 143.678 33.4355 140.605 33.4355 137.215V97.0441C33.4355 93.6547 34.8146 90.5762 37.0433 88.3522C39.2721 86.1234 42.3458 84.7444 45.7352 84.7444H75.6759C79.0653 84.7444 82.1438 86.1235 84.3678 88.3522C86.5966 90.5811 87.9756 93.6547 87.9756 97.0441Z" fill="white"/>
</svg>
