<svg width="189" height="189" viewBox="0 0 189 189" fill="none" xmlns="http://www.w3.org/2000/svg">
<rect y="0.0015564" width="188.216" height="188.216" rx="36" fill="#24B7FD"/>
<path d="M85.93 119.173C85.9381 119.162 85.9471 119.151 85.9568 119.142L117.697 87.4013C121.79 83.3079 128.443 83.3079 132.536 87.4013C134.508 89.3729 135.611 91.9974 135.611 94.8047C135.611 97.612 134.528 100.256 132.536 102.241C128.443 106.334 121.79 106.334 117.697 102.241C117.041 101.584 115.977 101.584 115.321 102.241L99.8005 117.761C99.1247 118.437 99.1465 119.539 99.8485 120.187C113.852 133.074 135.384 132.624 148.851 119.169C162.659 105.348 162.659 82.8829 148.851 69.0813C135.043 55.2735 112.585 55.2735 98.7454 69.1139L67.0106 102.273C62.9172 106.353 56.2646 106.353 52.1713 102.273C48.0909 98.1793 48.0909 91.5267 52.1713 87.4333C54.1624 85.4421 56.7869 84.3584 59.5942 84.3584C62.4015 84.3584 65.0455 85.4422 67.0171 87.4333C67.8268 88.2538 69.1497 88.2582 69.9648 87.4431L85.9296 71.4783C86.5858 70.8221 86.5858 69.7581 85.9296 69.1019C79.0289 62.2012 69.9542 58.7411 60.88 58.7411C51.8054 58.7411 42.743 62.2012 35.8305 69.1019C22.0227 82.9097 22.0227 105.368 35.8305 119.189C49.6335 132.992 72.1004 133.01 85.9033 119.204C85.913 119.194 85.9219 119.184 85.93 119.173Z" fill="white"/>
</svg>
