<svg width="57" height="58" viewBox="0 0 57 58" fill="none" xmlns="http://www.w3.org/2000/svg">
<g clip-path="url(#clip0_30_849)">
<rect y="0.5" width="57" height="57" rx="7.17778" fill="white"/>
<path d="M8.98869 49.2383C7.59481 49.2383 6.46484 48.1083 6.46484 46.7144L6.46484 44.8789L17.0191 44.8789L17.0191 46.7144C17.0191 48.1083 15.8891 49.2383 14.4953 49.2383L8.98869 49.2383Z" fill="#EBF6ED"/>
<rect x="6.46484" y="44.877" width="3.90049" height="10.5543" transform="rotate(-90 6.46484 44.877)" fill="#D9EFFF"/>
<rect x="6.46484" y="40.9746" width="4.35937" height="10.5543" transform="rotate(-90 6.46484 40.9746)" fill="#C6E7FF"/>
<rect x="6.46484" y="36.6191" width="4.12993" height="10.5543" transform="rotate(-90 6.46484 36.6191)" fill="#B2DFFF"/>
<rect x="6.46484" y="32.4883" width="4.12993" height="10.5543" transform="rotate(-90 6.46484 32.4883)" fill="#9ED7FF"/>
<rect x="6.46484" y="28.3574" width="4.12993" height="10.5543" transform="rotate(-90 6.46484 28.3574)" fill="#8ACFFF"/>
<rect x="6.46484" y="24.2285" width="4.35937" height="10.5543" transform="rotate(-90 6.46484 24.2285)" fill="#73C6FF"/>
<rect x="6.46484" y="19.8691" width="4.12993" height="10.5543" transform="rotate(-90 6.46484 19.8691)" fill="#5BBEFF"/>
<rect x="6.46484" y="15.7402" width="3.90049" height="10.5543" transform="rotate(-90 6.46484 15.7402)" fill="#3EB5FE"/>
<path d="M6.46484 11.8379L6.46484 10.0024C6.46484 8.60849 7.59481 7.47852 8.98869 7.47852L14.4953 7.47852C15.8891 7.47852 17.0191 8.60848 17.0191 10.0024L17.0191 11.8379L6.46484 11.8379Z" fill="#00ACFD"/>
<path d="M8.44683 48.2563C7.0998 47.8979 6.29831 46.5154 6.65665 45.1684L7.12854 43.3946L17.3281 46.1079L16.8562 47.8817C16.4978 49.2288 15.1154 50.0303 13.7683 49.6719L8.44683 48.2563Z" fill="#EBF6ED"/>
<rect x="7.13281" y="43.3945" width="3.90049" height="10.5543" transform="rotate(-75.1029 7.13281 43.3945)" fill="#D7ECDB"/>
<rect x="8.13281" y="39.625" width="4.35937" height="10.5543" transform="rotate(-75.1029 8.13281 39.625)" fill="#FFDED8"/>
<rect x="9.25781" y="35.4121" width="4.12993" height="10.5543" transform="rotate(-75.1029 9.25781 35.4121)" fill="#FFCEC5"/>
<rect x="10.3164" y="31.4219" width="4.12993" height="10.5543" transform="rotate(-75.1029 10.3164 31.4219)" fill="#FBAC9F"/>
<rect x="11.3789" y="27.4277" width="4.12993" height="10.5543" transform="rotate(-75.1029 11.3789 27.4277)" fill="#F99C8C"/>
<rect x="12.4375" y="23.4375" width="4.35937" height="10.5543" transform="rotate(-75.1029 12.4375 23.4375)" fill="#F58A79"/>
<rect x="13.5586" y="19.2266" width="4.12993" height="10.5543" transform="rotate(-75.1029 13.5586 19.2266)" fill="#F27866"/>
<rect x="14.625" y="15.2344" width="3.90049" height="10.5543" transform="rotate(-75.1029 14.625 15.2344)" fill="#EE6552"/>
<path d="M15.625 11.4629L16.0969 9.68906C16.4552 8.34203 17.8377 7.54054 19.1847 7.89888L24.5062 9.31453C25.8533 9.67288 26.6548 11.0554 26.2964 12.4024L25.8245 14.1762L15.625 11.4629Z" fill="#E8503D"/>
<path d="M7.72776 47.1296C6.52329 46.4281 6.11559 44.883 6.81714 43.6785L7.74096 42.0924L16.861 47.4044L15.9372 48.9905C15.2356 50.195 13.6905 50.6027 12.486 49.9011L7.72776 47.1296Z" fill="#EBF6ED"/>
<rect x="7.74219" y="42.0918" width="3.90049" height="10.5543" transform="rotate(-59.7812 7.74219 42.0918)" fill="#D7ECDB"/>
<rect x="9.70703" y="38.7207" width="4.35937" height="10.5543" transform="rotate(-59.7812 9.70703 38.7207)" fill="#C2E3C9"/>
<rect x="11.9062" y="34.9551" width="4.12993" height="10.5543" transform="rotate(-59.7812 11.9062 34.9551)" fill="#AEDAB7"/>
<rect x="13.9805" y="31.3867" width="4.12993" height="10.5543" transform="rotate(-59.7812 13.9805 31.3867)" fill="#9ACFA6"/>
<rect x="16.0625" y="27.8203" width="4.12993" height="10.5543" transform="rotate(-59.7812 16.0625 27.8203)" fill="#84C794"/>
<rect x="18.1367" y="24.25" width="4.35937" height="10.5543" transform="rotate(-59.7812 18.1367 24.25)" fill="#6EBD83"/>
<rect x="20.3359" y="20.4824" width="4.12993" height="10.5543" transform="rotate(-59.7812 20.3359 20.4824)" fill="#57B471"/>
<rect x="22.4102" y="16.9141" width="3.90049" height="10.5543" transform="rotate(-59.7812 22.4102 16.9141)" fill="#38AA60"/>
<path d="M24.3789 13.543L25.3027 11.9569C26.0043 10.7524 27.5494 10.3447 28.7539 11.0463L33.5122 13.8177C34.7166 14.5193 35.1243 16.0644 34.4228 17.2689L33.4989 18.855L24.3789 13.543Z" fill="#01A04E"/>
<path d="M6.54506 44.3647C5.61408 43.3273 5.70035 41.7316 6.73774 40.8006L8.10383 39.5747L15.1531 47.4297L13.787 48.6556C12.7496 49.5866 11.1539 49.5003 10.2229 48.4629L6.54506 44.3647Z" fill="#FFFBEE"/>
<rect x="8.10938" y="39.5742" width="3.90049" height="10.5543" transform="rotate(-41.9055 8.10938 39.5742)" fill="#FFF6DC"/>
<rect x="11.0117" y="36.9688" width="4.35937" height="10.5543" transform="rotate(-41.9055 11.0117 36.9688)" fill="#FFF0CA"/>
<rect x="14.2539" y="34.0547" width="4.12993" height="10.5543" transform="rotate(-41.9055 14.2539 34.0547)" fill="#FFECB7"/>
<rect x="17.3281" y="31.2988" width="4.12993" height="10.5543" transform="rotate(-41.9055 17.3281 31.2988)" fill="#FFE8A4"/>
<rect x="20.3984" y="28.5391" width="4.12993" height="10.5543" transform="rotate(-41.9055 20.3984 28.5391)" fill="#FFE290"/>
<rect x="23.4727" y="25.7812" width="4.35937" height="10.5543" transform="rotate(-41.9055 23.4727 25.7812)" fill="#FFDD7B"/>
<rect x="26.7188" y="22.8711" width="4.12993" height="10.5543" transform="rotate(-41.9055 26.7188 22.8711)" fill="#FFD862"/>
<rect x="29.7891" y="20.1113" width="3.90049" height="10.5543" transform="rotate(-41.9055 29.7891 20.1113)" fill="#FFD344"/>
<path d="M32.6953 17.5078L34.0614 16.2819C35.0988 15.3509 36.6945 15.4371 37.6254 16.4745L41.3033 20.5728C42.2343 21.6102 42.148 23.2059 41.1106 24.1368L39.7445 25.3628L32.6953 17.5078Z" fill="#FFCD00"/>
<path d="M7.95701 45.0586C7.25804 43.8526 7.66903 42.3084 8.87499 41.6094L10.4631 40.689L15.7556 49.8203L14.1675 50.7408C12.9616 51.4397 11.4173 51.0287 10.7183 49.8228L7.95701 45.0586Z" fill="white"/>
<rect x="10.4648" y="40.6895" width="3.90049" height="10.5543" transform="rotate(-30.0965 10.4648 40.6895)" fill="#FFE1D9"/>
<rect x="13.8438" y="38.7344" width="4.35937" height="10.5543" transform="rotate(-30.0965 13.8438 38.7344)" fill="#FED2C6"/>
<rect x="17.6133" y="36.5508" width="4.12993" height="10.5543" transform="rotate(-30.0965 17.6133 36.5508)" fill="#FDC3B3"/>
<rect x="21.1875" y="34.4766" width="4.12993" height="10.5543" transform="rotate(-30.0965 21.1875 34.4766)" fill="#FBB3A0"/>
<rect x="24.7617" y="32.4043" width="4.12993" height="10.5543" transform="rotate(-30.0965 24.7617 32.4043)" fill="#F9A48D"/>
<rect x="28.332" y="30.3359" width="4.35937" height="10.5543" transform="rotate(-30.0965 28.332 30.3359)" fill="#F5947A"/>
<rect x="32.1055" y="28.1465" width="4.12993" height="10.5543" transform="rotate(-30.0965 32.1055 28.1465)" fill="#F28468"/>
<rect x="35.6797" y="26.0781" width="3.90049" height="10.5543" transform="rotate(-30.0965 35.6797 26.0781)" fill="#EE7354"/>
<path d="M39.0508 24.1211L40.6388 23.2007C41.8448 22.5017 43.3891 22.9127 44.088 24.1186L46.8493 28.8828C47.5483 30.0888 47.1373 31.633 45.9314 32.332L44.3433 33.2525L39.0508 24.1211Z" fill="#EA613F"/>
<path d="M8.27931 44.0182C7.90716 42.6749 8.69442 41.2842 10.0377 40.9121L11.8066 40.422L14.6245 50.5932L12.8556 51.0832C11.5123 51.4554 10.1217 50.6681 9.7495 49.3249L8.27931 44.0182Z" fill="white"/>
<rect x="11.8086" y="40.4219" width="3.90049" height="10.5543" transform="rotate(-15.4852 11.8086 40.4219)" fill="#DFDBFF"/>
<rect x="15.5664" y="39.377" width="4.35937" height="10.5543" transform="rotate(-15.4852 15.5664 39.377)" fill="#CFC9FF"/>
<rect x="19.7695" y="38.2148" width="4.12993" height="10.5543" transform="rotate(-15.4852 19.7695 38.2148)" fill="#C0B7FF"/>
<rect x="23.75" y="37.1133" width="4.12993" height="10.5543" transform="rotate(-15.4852 23.75 37.1133)" fill="#B3A3FF"/>
<rect x="27.7305" y="36.0078" width="4.12993" height="10.5543" transform="rotate(-15.4852 27.7305 36.0078)" fill="#A491FF"/>
<rect x="31.707" y="34.9062" width="4.35937" height="10.5543" transform="rotate(-15.4852 31.707 34.9062)" fill="#977DFF"/>
<rect x="35.9102" y="33.7441" width="4.12993" height="10.5543" transform="rotate(-15.4852 35.9102 33.7441)" fill="#8C68FE"/>
<rect x="39.8906" y="32.6406" width="3.90049" height="10.5543" transform="rotate(-15.4852 39.8906 32.6406)" fill="#7F50FC"/>
<path d="M43.6523 31.5996L45.4212 31.1095C46.7645 30.7374 48.1552 31.5247 48.5273 32.8679L49.9975 38.1746C50.3697 39.5179 49.5824 40.9085 48.2391 41.2807L46.4702 41.7708L43.6523 31.5996Z" fill="#7531F9"/>
<path d="M51.1199 43.1251V47.8177C51.1199 49.4206 49.8201 50.7205 48.2171 50.7205H9.14109C7.53812 50.7205 6.23828 49.4206 6.23828 47.8177V43.1251C6.23828 42.8192 6.28558 42.5244 6.37327 42.2479C6.58145 41.5898 7.01853 41.0333 7.5906 40.6711C7.94551 40.446 8.35324 40.2958 8.79101 40.2437C8.90563 40.2299 9.02267 40.2227 9.14109 40.2227H48.2171C48.5662 40.2227 48.9004 40.2845 49.21 40.3967C50.3241 40.8023 51.1199 41.8708 51.1199 43.1251Z" fill="#131B23"/>
<path d="M11.8483 47.8724C13.1733 47.8724 14.2474 46.7983 14.2474 45.4733C14.2474 44.1483 13.1733 43.0742 11.8483 43.0742C10.5233 43.0742 9.44922 44.1483 9.44922 45.4733C9.44922 46.7983 10.5233 47.8724 11.8483 47.8724Z" fill="white"/>
</g>
<defs>
<clipPath id="clip0_30_849">
<rect y="0.5" width="57" height="57" rx="6.51428" fill="white"/>
</clipPath>
</defs>
</svg>
