<svg width="16" height="16" viewBox="0 0 16 16" fill="none" xmlns="http://www.w3.org/2000/svg">
<path d="M8.77334 0.920427C8.28825 0.693923 7.71151 0.693923 7.22642 0.920427L1.4165 3.6332C0.83243 3.90592 0.5 4.43544 0.5 5.00048C0.5 5.56552 0.83243 6.09506 1.4165 6.36776L7.22642 9.08054C7.71151 9.30704 8.28825 9.30704 8.77334 9.08054L14.5833 6.36776C15.1673 6.09506 15.4998 5.56552 15.4998 5.00048C15.4998 4.43544 15.1673 3.90592 14.5833 3.6332L8.77334 0.920427Z" fill="#0D1218"/>
<path d="M1.20107 8.29283C0.94821 8.18185 0.653262 8.29688 0.542284 8.54972C0.431303 8.80257 0.546316 9.09752 0.799172 9.20851L7.35937 12.0878C7.84119 12.3053 8.4124 12.3049 8.89385 12.0864L8.8948 12.086L15.2074 9.20554C15.4587 9.09091 15.5694 8.79434 15.4548 8.54312C15.3401 8.2919 15.0435 8.18115 14.7923 8.2958L8.48065 11.1758L8.48015 11.176C8.26036 11.2756 7.98921 11.2755 7.76949 11.1758L7.76384 11.1733L1.20107 8.29283Z" fill="#0D1218"/>
<path d="M1.20107 11.2928C0.94821 11.1819 0.653262 11.2969 0.542284 11.5497C0.431303 11.8026 0.546316 12.0975 0.799172 12.2085L7.35937 15.0878C7.84119 15.3053 8.4124 15.3049 8.89385 15.0864L8.8948 15.086L15.2074 12.2055C15.4587 12.0909 15.5694 11.7943 15.4548 11.5431C15.3401 11.2919 15.0435 11.1812 14.7923 11.2958L8.48065 14.1758L8.48015 14.176C8.26036 14.2756 7.98921 14.2755 7.76949 14.1758L7.76384 14.1733L1.20107 11.2928Z" fill="#0D1218"/>
</svg>
