<svg width="208" height="105" viewBox="0 0 208 105" fill="none" xmlns="http://www.w3.org/2000/svg">
<path fill-rule="evenodd" clip-rule="evenodd" d="M64.4715 47.8872C62.3802 46.4415 60.1367 45.2179 57.7766 44.2403C53.4089 42.4312 48.7276 41.5 44 41.5C39.2724 41.5 34.5911 42.4312 30.2234 44.2403C25.8557 46.0495 21.8871 48.7012 18.5442 52.0442C15.2012 55.3871 12.5495 59.3557 10.7403 63.7234C8.93117 68.0911 8 72.7724 8 77.5H8.18817C8.06425 78.3153 8 79.1501 8 80C8 89.1127 15.3873 96.5 24.5 96.5H183.5C192.613 96.5 200 89.1127 200 80C200 70.8873 192.613 63.5 183.5 63.5H180.831C180.354 57.1615 178.873 50.9292 176.433 45.039C173.417 37.7595 168.998 31.1451 163.426 25.5736C157.855 20.0021 151.241 15.5825 143.961 12.5672C136.681 9.55195 128.879 8 121 8C113.121 8 105.319 9.55195 98.039 12.5672C90.7595 15.5825 84.1451 20.0021 78.5736 25.5736C73.0021 31.1451 68.5825 37.7595 65.5672 45.039C65.1775 45.98 64.8121 46.9297 64.4715 47.8872Z" fill="#DFE8FA"/>
</svg>
